<?xml version="1.0" standalone="no"?>
<svg width="567.429" height="409.712" viewBox="0 0 567.429 409.712" xmlns="http://www.w3.org/2000/svg" shape-rendering="crispEdges">
<title>
H_clusters_eta.svg
</title>
<desc>
Creator: ROOT Version 6.22/02
CreationDate: Mon Sep 21 23:51:53 2020</desc>
<defs>
</defs>
<rect x="0.5" y="0" width="566.929" height="409.212" fill="white"/>
<rect x="57.1929" y="40.9212" width="453.543" height="327.37" fill="white"/>
<rect x="57.1929" y="40.9212" width="453.543" height="327.37" fill="none" stroke="black"/>
<path d="M57.1929,368.291v -0.01187h 9.07087v -7.94582h 9.07087v -0.939361h 9.07087v 1.15616h 9.07087v 1.72523h 9.07087v -1.85242h 9.07087v -4.21944h 9.07087v -3.83274h 9.07087v -0.397529h 9.07087v -6.4417h 9.07087v 2.76164h 9.07087v 0.267425h
 9.07087v -76.322h 9.07087v -123.169h 9.07087v 6.09852h 9.07087v -42.6225h 9.07087v -9.65394h 9.07087v 19.2515h 9.07087v -19.934h 9.07087v -39.0496h 9.07087v 16.2646h 9.07087v -20.7123h 9.07087v 0.690207h 9.07087v 7.07593h 9.07087v 1.71906h 9.07087v
 1.22378h 9.07087v -7.13703h 9.07087v -3.93666h 9.07087v -1.83729h 9.07087v 22.2486h 9.07087v -18.1433h 9.07087v 38.6974h 9.07087v 18.4911h 9.07087v -18.4041h 9.07087v 11.5813h 9.07087v 43.461h 9.07087v -7.49673h 9.07087v 124.327h 9.07087v 77.6322h
 9.07087v -0.346558h 9.07087v -3.1096h 9.07087v 6.67444h 9.07087v 0.348769h 9.07087v 3.81854h 9.07087v 4.23748h 9.07087v 1.70661h 9.07087v -1.66413h 9.07087v -1.17583h 9.07087v 0.997082h 9.07087v 7.88472h 9.07087v 0.014663z" fill="#00ffff"/>
<path d="M57.1929,368.279h 9.07087v -7.94582h 9.07087v -0.939361h 9.07087v 1.15616h 9.07087v 1.72523h 9.07087v -1.85242h 9.07087v -4.21944h 9.07087v -3.83274h 9.07087v -0.397529h 9.07087v -6.4417h 9.07087v 2.76164h 9.07087v 0.267425h 9.07087v
 -76.322h 9.07087v -123.169h 9.07087v 6.09852h 9.07087v -42.6225h 9.07087v -9.65394h 9.07087v 19.2515h 9.07087v -19.934h 9.07087v -39.0496h 9.07087v 16.2646h 9.07087v -20.7123h 9.07087v 0.690207h 9.07087v 7.07593h 9.07087v 1.71906h 9.07087v 1.22378h
 9.07087v -7.13703h 9.07087v -3.93666h 9.07087v -1.83729h 9.07087v 22.2486h 9.07087v -18.1433h 9.07087v 38.6974h 9.07087v 18.4911h 9.07087v -18.4041h 9.07087v 11.5813h 9.07087v 43.461h 9.07087v -7.49673h 9.07087v 124.327h 9.07087v 77.6322h 9.07087v
 -0.346558h 9.07087v -3.1096h 9.07087v 6.67444h 9.07087v 0.348769h 9.07087v 3.81854h 9.07087v 4.23748h 9.07087v 1.70661h 9.07087v -1.66413h 9.07087v -1.17583h 9.07087v 0.997082h 9.07087v 7.88472h 9.07087v 0.014663" fill="none" stroke="#000099"/>
<path d="M57.1929,368.291h 453.543" fill="none" stroke="black"/>
<path d="M57.1929,358.47v 9.82109" fill="none" stroke="black"/>
<path d="M66.2638,363.38v 4.91054" fill="none" stroke="black"/>
<path d="M75.3346,363.38v 4.91054" fill="none" stroke="black"/>
<path d="M84.4055,363.38v 4.91054" fill="none" stroke="black"/>
<path d="M93.4764,363.38v 4.91054" fill="none" stroke="black"/>
<path d="M102.547,358.47v 9.82109" fill="none" stroke="black"/>
<path d="M111.618,363.38v 4.91054" fill="none" stroke="black"/>
<path d="M120.689,363.38v 4.91054" fill="none" stroke="black"/>
<path d="M129.76,363.38v 4.91054" fill="none" stroke="black"/>
<path d="M138.831,363.38v 4.91054" fill="none" stroke="black"/>
<path d="M147.902,358.47v 9.82109" fill="none" stroke="black"/>
<path d="M156.972,363.38v 4.91054" fill="none" stroke="black"/>
<path d="M166.043,363.38v 4.91054" fill="none" stroke="black"/>
<path d="M175.114,363.38v 4.91054" fill="none" stroke="black"/>
<path d="M184.185,363.38v 4.91054" fill="none" stroke="black"/>
<path d="M193.256,358.47v 9.82109" fill="none" stroke="black"/>
<path d="M202.327,363.38v 4.91054" fill="none" stroke="black"/>
<path d="M211.398,363.38v 4.91054" fill="none" stroke="black"/>
<path d="M220.469,363.38v 4.91054" fill="none" stroke="black"/>
<path d="M229.539,363.38v 4.91054" fill="none" stroke="black"/>
<path d="M238.61,358.47v 9.82109" fill="none" stroke="black"/>
<path d="M247.681,363.38v 4.91054" fill="none" stroke="black"/>
<path d="M256.752,363.38v 4.91054" fill="none" stroke="black"/>
<path d="M265.823,363.38v 4.91054" fill="none" stroke="black"/>
<path d="M274.894,363.38v 4.91054" fill="none" stroke="black"/>
<path d="M283.965,358.47v 9.82109" fill="none" stroke="black"/>
<path d="M293.035,363.38v 4.91054" fill="none" stroke="black"/>
<path d="M302.106,363.38v 4.91054" fill="none" stroke="black"/>
<path d="M311.177,363.38v 4.91054" fill="none" stroke="black"/>
<path d="M320.248,363.38v 4.91054" fill="none" stroke="black"/>
<path d="M329.319,358.47v 9.82109" fill="none" stroke="black"/>
<path d="M338.39,363.38v 4.91054" fill="none" stroke="black"/>
<path d="M347.461,363.38v 4.91054" fill="none" stroke="black"/>
<path d="M356.531,363.38v 4.91054" fill="none" stroke="black"/>
<path d="M365.602,363.38v 4.91054" fill="none" stroke="black"/>
<path d="M374.673,358.47v 9.82109" fill="none" stroke="black"/>
<path d="M383.744,363.38v 4.91054" fill="none" stroke="black"/>
<path d="M392.815,363.38v 4.91054" fill="none" stroke="black"/>
<path d="M401.886,363.38v 4.91054" fill="none" stroke="black"/>
<path d="M410.957,363.38v 4.91054" fill="none" stroke="black"/>
<path d="M420.028,358.47v 9.82109" fill="none" stroke="black"/>
<path d="M429.098,363.38v 4.91054" fill="none" stroke="black"/>
<path d="M438.169,363.38v 4.91054" fill="none" stroke="black"/>
<path d="M447.24,363.38v 4.91054" fill="none" stroke="black"/>
<path d="M456.311,363.38v 4.91054" fill="none" stroke="black"/>
<path d="M465.382,358.47v 9.82109" fill="none" stroke="black"/>
<path d="M474.453,363.38v 4.91054" fill="none" stroke="black"/>
<path d="M483.524,363.38v 4.91054" fill="none" stroke="black"/>
<path d="M492.594,363.38v 4.91054" fill="none" stroke="black"/>
<path d="M501.665,363.38v 4.91054" fill="none" stroke="black"/>
<path d="M510.736,358.47v 9.82109" fill="none" stroke="black"/>
<path d="M510.736,358.47v 9.82109" fill="none" stroke="black"/>
<text xml:space="preserve" x="56.6246" y="381.505" fill="black" font-size="13.6398" font-family="Helvetica">5</text>
<text xml:space="preserve" x="48.8097" y="381.505" fill="black" font-size="13.6398" font-family="Times">&#8722;</text>
<text xml:space="preserve" x="102.093" y="381.505" fill="black" font-size="13.6398" font-family="Helvetica">4</text>
<text xml:space="preserve" x="94.2777" y="381.505" fill="black" font-size="13.6398" font-family="Times">&#8722;</text>
<text xml:space="preserve" x="147.561" y="381.505" fill="black" font-size="13.6398" font-family="Helvetica">3</text>
<text xml:space="preserve" x="139.746" y="381.505" fill="black" font-size="13.6398" font-family="Times">&#8722;</text>
<text xml:space="preserve" x="193.029" y="381.505" fill="black" font-size="13.6398" font-family="Helvetica">2</text>
<text xml:space="preserve" x="185.214" y="381.505" fill="black" font-size="13.6398" font-family="Times">&#8722;</text>
<text xml:space="preserve" x="239.207" y="381.505" fill="black" font-size="13.6398" font-family="Helvetica">1</text>
<text xml:space="preserve" x="232.103" y="381.505" fill="black" font-size="13.6398" font-family="Times">&#8722;</text>
<text xml:space="preserve" x="280.412" y="381.505" fill="black" font-size="13.6398" font-family="Helvetica">0</text>
<text xml:space="preserve" x="325.88" y="381.505" fill="black" font-size="13.6398" font-family="Helvetica">1</text>
<text xml:space="preserve" x="370.638" y="381.505" fill="black" font-size="13.6398" font-family="Helvetica">2</text>
<text xml:space="preserve" x="416.106" y="381.505" fill="black" font-size="13.6398" font-family="Helvetica">3</text>
<text xml:space="preserve" x="461.574" y="381.505" fill="black" font-size="13.6398" font-family="Helvetica">4</text>
<text xml:space="preserve" x="507.042" y="381.505" fill="black" font-size="13.6398" font-family="Helvetica">5</text>
<text xml:space="preserve" x="483.598" y="395.714" fill="black" font-size="13.6398" font-family="Helvetica"> eta </text>
<path d="M57.1929,368.291v -327.37" fill="none" stroke="black"/>
<path d="M70.7992,368.291h -13.6063" fill="none" stroke="black"/>
<path d="M63.9961,356.654h -6.80315" fill="none" stroke="black"/>
<path d="M63.9961,345.016h -6.80315" fill="none" stroke="black"/>
<path d="M63.9961,333.379h -6.80315" fill="none" stroke="black"/>
<path d="M63.9961,321.742h -6.80315" fill="none" stroke="black"/>
<path d="M70.7992,310.104h -13.6063" fill="none" stroke="black"/>
<path d="M63.9961,298.467h -6.80315" fill="none" stroke="black"/>
<path d="M63.9961,286.83h -6.80315" fill="none" stroke="black"/>
<path d="M63.9961,275.193h -6.80315" fill="none" stroke="black"/>
<path d="M63.9961,263.555h -6.80315" fill="none" stroke="black"/>
<path d="M70.7992,251.918h -13.6063" fill="none" stroke="black"/>
<path d="M63.9961,240.281h -6.80315" fill="none" stroke="black"/>
<path d="M63.9961,228.643h -6.80315" fill="none" stroke="black"/>
<path d="M63.9961,217.006h -6.80315" fill="none" stroke="black"/>
<path d="M63.9961,205.369h -6.80315" fill="none" stroke="black"/>
<path d="M70.7992,193.732h -13.6063" fill="none" stroke="black"/>
<path d="M63.9961,182.094h -6.80315" fill="none" stroke="black"/>
<path d="M63.9961,170.457h -6.80315" fill="none" stroke="black"/>
<path d="M63.9961,158.82h -6.80315" fill="none" stroke="black"/>
<path d="M63.9961,147.183h -6.80315" fill="none" stroke="black"/>
<path d="M70.7992,135.545h -13.6063" fill="none" stroke="black"/>
<path d="M63.9961,123.908h -6.80315" fill="none" stroke="black"/>
<path d="M63.9961,112.271h -6.80315" fill="none" stroke="black"/>
<path d="M63.9961,100.633h -6.80315" fill="none" stroke="black"/>
<path d="M63.9961,88.9962h -6.80315" fill="none" stroke="black"/>
<path d="M70.7992,77.3589h -13.6063" fill="none" stroke="black"/>
<path d="M70.7992,77.3589h -13.6063" fill="none" stroke="black"/>
<path d="M63.9961,65.7216h -6.80315" fill="none" stroke="black"/>
<path d="M63.9961,54.0843h -6.80315" fill="none" stroke="black"/>
<path d="M63.9961,42.447h -6.80315" fill="none" stroke="black"/>
<text xml:space="preserve" x="46.6784" y="372.98" fill="black" font-size="13.6398" font-family="Helvetica">0</text>
<text xml:space="preserve" x="31.7593" y="314.724" fill="black" font-size="13.6398" font-family="Helvetica">500</text>
<text xml:space="preserve" x="23.9444" y="256.468" fill="black" font-size="13.6398" font-family="Helvetica">1000</text>
<text xml:space="preserve" x="23.9444" y="198.212" fill="black" font-size="13.6398" font-family="Helvetica">1500</text>
<text xml:space="preserve" x="23.9444" y="139.956" fill="black" font-size="13.6398" font-family="Helvetica">2000</text>
<text xml:space="preserve" x="23.9444" y="81.7003" fill="black" font-size="13.6398" font-family="Helvetica">2500</text>
<text xml:space="preserve" x="79.3586" y="31.9697" fill="black" font-size="9.25989" font-family="Helvetica">3</text>
<text xml:space="preserve" x="64.4394" y="39.0741" fill="black" font-size="13.6398" font-family="Helvetica">10</text>
<text xml:space="preserve" x="56.6246" y="39.0741" fill="black" font-size="13.6398" font-family="Times">&#0215;</text>
<g transform="rotate(-90,11.867,89.5151)">
<text xml:space="preserve" x="11.867" y="89.5151" fill="black" font-size="13.6398" font-family="Helvetica"> Events </text>
</g>
<text xml:space="preserve" x="236.365" y="19.8923" fill="black" font-size="18.0511" font-family="Helvetica">Clusters eta</text>
<rect x="442.705" y="26.5988" width="113.386" height="65.4739" fill="white"/>
<path d="M442.705,92.0727h 113.386" fill="none" stroke="black"/>
<path d="M556.091,92.0727v -65.4739" fill="none" stroke="black"/>
<path d="M556.091,26.5988h -113.386" fill="none" stroke="black"/>
<path d="M442.705,26.5988v 65.4739" fill="none" stroke="black"/>
<text xml:space="preserve" x="459.443" y="38.3636" fill="black" font-size="14.3156" font-family="Helvetica">Clusters_eta</text>
<path d="M442.705,42.9673h 113.386" fill="none" stroke="black"/>
<text xml:space="preserve" x="448.076" y="54.7037" fill="black" font-size="9.04234" font-family="Helvetica">Entries </text>
<text xml:space="preserve" x="488.571" y="54.7037" fill="black" font-size="9.04234" font-family="Helvetica">   6.073094e+07</text>
<text xml:space="preserve" x="448.076" y="71.0438" fill="black" font-size="9.04234" font-family="Helvetica">Mean  </text>
<text xml:space="preserve" x="512.725" y="71.0438" fill="black" font-size="9.04234" font-family="Helvetica"> 0.004857</text>
<text xml:space="preserve" x="448.076" y="87.3838" fill="black" font-size="9.04234" font-family="Helvetica">Std Dev   </text>
<text xml:space="preserve" x="525.513" y="87.3838" fill="black" font-size="9.04234" font-family="Helvetica">  1.511</text>
<text xml:space="preserve" x="236.365" y="19.8923" fill="black" font-size="18.0511" font-family="Helvetica">Clusters eta</text></svg>
