<?xml version="1.0" standalone="no"?>
<svg width="567.429" height="409.712" viewBox="0 0 567.429 409.712" xmlns="http://www.w3.org/2000/svg" shape-rendering="crispEdges">
<title>
H_clusters_pt.svg
</title>
<desc>
Creator: ROOT Version 6.22/02
CreationDate: Mon Sep 21 23:51:53 2020</desc>
<defs>
</defs>
<rect x="0.5" y="0" width="566.929" height="409.212" fill="white"/>
<rect x="57.1929" y="40.9212" width="453.543" height="327.37" fill="white"/>
<rect x="57.1929" y="40.9212" width="453.543" height="327.37" fill="none" stroke="black"/>
<path d="M57.1929,368.291v -14.8467h 9.07087v -30.158h 9.07087v -30.4236h 9.07087v -16.8726h 9.07087v -4.70912h 9.07087v -4.49449h 9.07087v -3.52379h 9.07087v -12.9984h 9.07087v -22.5647h 9.07087v -45.3232h 9.07087v -41.097h 9.07087v -26.0912h
 9.07087v -18.8751h 9.07087v -8.77595h 9.07087v -8.00862h 9.07087v -8.64126h 9.07087v -5.05522h 9.07087v -0.941181h 9.07087v -1.79651h 9.07087v -4.44566h 9.07087v -2.13831h 9.07087v 1.75734h 9.07087v 6.07958h 9.07087v 8.55326h 9.07087v 12.4918h
 9.07087v 14.0866h 9.07087v 11.3231h 9.07087v 11.2046h 9.07087v 7.44627h 9.07087v 7.18495h 9.07087v 8.16423h 9.07087v 8.91385h 9.07087v 9.7681h 9.07087v 10.6218h 9.07087v 9.2138h 9.07087v 12.0062h 9.07087v 11.7245h 9.07087v 11.3221h 9.07087v 11.218h
 9.07087v 10.2682h 9.07087v 9.45098h 9.07087v 12.0363h 9.07087v 9.28034h 9.07087v 10.8606h 9.07087v 9.8003h 9.07087v 9.36566h 9.07087v 10.1217h 9.07087v 10.0772h 9.07087v 9.43971h 9.07087v 8.93531h 9.07087v 29.0642z" fill="#00ffff"/>
<path d="M57.1929,353.444h 9.07087v -30.158h 9.07087v -30.4236h 9.07087v -16.8726h 9.07087v -4.70912h 9.07087v -4.49449h 9.07087v -3.52379h 9.07087v -12.9984h 9.07087v -22.5647h 9.07087v -45.3232h 9.07087v -41.097h 9.07087v -26.0912h 9.07087v
 -18.8751h 9.07087v -8.77595h 9.07087v -8.00862h 9.07087v -8.64126h 9.07087v -5.05522h 9.07087v -0.941181h 9.07087v -1.79651h 9.07087v -4.44566h 9.07087v -2.13831h 9.07087v 1.75734h 9.07087v 6.07958h 9.07087v 8.55326h 9.07087v 12.4918h 9.07087v
 14.0866h 9.07087v 11.3231h 9.07087v 11.2046h 9.07087v 7.44627h 9.07087v 7.18495h 9.07087v 8.16423h 9.07087v 8.91385h 9.07087v 9.7681h 9.07087v 10.6218h 9.07087v 9.2138h 9.07087v 12.0062h 9.07087v 11.7245h 9.07087v 11.3221h 9.07087v 11.218h 9.07087v
 10.2682h 9.07087v 9.45098h 9.07087v 12.0363h 9.07087v 9.28034h 9.07087v 10.8606h 9.07087v 9.8003h 9.07087v 9.36566h 9.07087v 10.1217h 9.07087v 10.0772h 9.07087v 9.43971h 9.07087v 8.93531h 9.07087" fill="none" stroke="#000099"/>
<path d="M57.1929,368.291h 453.543" fill="none" stroke="black"/>
<path d="M89.5889,358.47v 9.82109" fill="none" stroke="black"/>
<path d="M105.787,363.38v 4.91054" fill="none" stroke="black"/>
<path d="M121.985,363.38v 4.91054" fill="none" stroke="black"/>
<path d="M138.183,363.38v 4.91054" fill="none" stroke="black"/>
<path d="M154.381,358.47v 9.82109" fill="none" stroke="black"/>
<path d="M170.579,363.38v 4.91054" fill="none" stroke="black"/>
<path d="M186.777,363.38v 4.91054" fill="none" stroke="black"/>
<path d="M202.975,363.38v 4.91054" fill="none" stroke="black"/>
<path d="M219.173,358.47v 9.82109" fill="none" stroke="black"/>
<path d="M235.371,363.38v 4.91054" fill="none" stroke="black"/>
<path d="M251.569,363.38v 4.91054" fill="none" stroke="black"/>
<path d="M267.767,363.38v 4.91054" fill="none" stroke="black"/>
<path d="M283.965,358.47v 9.82109" fill="none" stroke="black"/>
<path d="M300.163,363.38v 4.91054" fill="none" stroke="black"/>
<path d="M316.361,363.38v 4.91054" fill="none" stroke="black"/>
<path d="M332.559,363.38v 4.91054" fill="none" stroke="black"/>
<path d="M348.756,358.47v 9.82109" fill="none" stroke="black"/>
<path d="M364.954,363.38v 4.91054" fill="none" stroke="black"/>
<path d="M381.152,363.38v 4.91054" fill="none" stroke="black"/>
<path d="M397.35,363.38v 4.91054" fill="none" stroke="black"/>
<path d="M413.548,358.47v 9.82109" fill="none" stroke="black"/>
<path d="M429.746,363.38v 4.91054" fill="none" stroke="black"/>
<path d="M445.944,363.38v 4.91054" fill="none" stroke="black"/>
<path d="M462.142,363.38v 4.91054" fill="none" stroke="black"/>
<path d="M478.34,358.47v 9.82109" fill="none" stroke="black"/>
<path d="M89.5889,358.47v 9.82109" fill="none" stroke="black"/>
<path d="M73.3909,363.38v 4.91054" fill="none" stroke="black"/>
<path d="M57.1929,363.38v 4.91054" fill="none" stroke="black"/>
<path d="M478.34,358.47v 9.82109" fill="none" stroke="black"/>
<path d="M494.538,363.38v 4.91054" fill="none" stroke="black"/>
<text xml:space="preserve" x="77.9377" y="381.505" fill="black" font-size="13.6398" font-family="Helvetica">200</text>
<text xml:space="preserve" x="142.588" y="381.505" fill="black" font-size="13.6398" font-family="Helvetica">400</text>
<text xml:space="preserve" x="207.237" y="381.505" fill="black" font-size="13.6398" font-family="Helvetica">600</text>
<text xml:space="preserve" x="272.598" y="381.505" fill="black" font-size="13.6398" font-family="Helvetica">800</text>
<text xml:space="preserve" x="333.695" y="381.505" fill="black" font-size="13.6398" font-family="Helvetica">1000</text>
<text xml:space="preserve" x="398.345" y="381.505" fill="black" font-size="13.6398" font-family="Helvetica">1200</text>
<text xml:space="preserve" x="462.995" y="381.505" fill="black" font-size="13.6398" font-family="Helvetica">1400</text>
<text xml:space="preserve" x="491.412" y="394.293" fill="black" font-size="13.6398" font-family="Helvetica"> pt </text>
<path d="M57.1929,368.291v -327.37" fill="none" stroke="black"/>
<path d="M70.7992,323.96h -13.6063" fill="none" stroke="black"/>
<path d="M63.9961,313.228h -6.80315" fill="none" stroke="black"/>
<path d="M63.9961,302.496h -6.80315" fill="none" stroke="black"/>
<path d="M63.9961,291.765h -6.80315" fill="none" stroke="black"/>
<path d="M63.9961,281.033h -6.80315" fill="none" stroke="black"/>
<path d="M70.7992,270.301h -13.6063" fill="none" stroke="black"/>
<path d="M63.9961,259.569h -6.80315" fill="none" stroke="black"/>
<path d="M63.9961,248.837h -6.80315" fill="none" stroke="black"/>
<path d="M63.9961,238.105h -6.80315" fill="none" stroke="black"/>
<path d="M63.9961,227.374h -6.80315" fill="none" stroke="black"/>
<path d="M70.7992,216.642h -13.6063" fill="none" stroke="black"/>
<path d="M63.9961,205.91h -6.80315" fill="none" stroke="black"/>
<path d="M63.9961,195.178h -6.80315" fill="none" stroke="black"/>
<path d="M63.9961,184.446h -6.80315" fill="none" stroke="black"/>
<path d="M63.9961,173.715h -6.80315" fill="none" stroke="black"/>
<path d="M70.7992,162.983h -13.6063" fill="none" stroke="black"/>
<path d="M63.9961,152.251h -6.80315" fill="none" stroke="black"/>
<path d="M63.9961,141.519h -6.80315" fill="none" stroke="black"/>
<path d="M63.9961,130.787h -6.80315" fill="none" stroke="black"/>
<path d="M63.9961,120.055h -6.80315" fill="none" stroke="black"/>
<path d="M70.7992,109.324h -13.6063" fill="none" stroke="black"/>
<path d="M63.9961,98.5918h -6.80315" fill="none" stroke="black"/>
<path d="M63.9961,87.86h -6.80315" fill="none" stroke="black"/>
<path d="M63.9961,77.1282h -6.80315" fill="none" stroke="black"/>
<path d="M63.9961,66.3964h -6.80315" fill="none" stroke="black"/>
<path d="M70.7992,55.6646h -13.6063" fill="none" stroke="black"/>
<path d="M70.7992,323.96h -13.6063" fill="none" stroke="black"/>
<path d="M63.9961,334.692h -6.80315" fill="none" stroke="black"/>
<path d="M63.9961,345.424h -6.80315" fill="none" stroke="black"/>
<path d="M63.9961,356.156h -6.80315" fill="none" stroke="black"/>
<path d="M63.9961,366.887h -6.80315" fill="none" stroke="black"/>
<path d="M70.7992,55.6646h -13.6063" fill="none" stroke="black"/>
<path d="M63.9961,44.9327h -6.80315" fill="none" stroke="black"/>
<text xml:space="preserve" x="31.7593" y="328.933" fill="black" font-size="13.6398" font-family="Helvetica">500</text>
<text xml:space="preserve" x="31.7593" y="274.939" fill="black" font-size="13.6398" font-family="Helvetica">600</text>
<text xml:space="preserve" x="31.7593" y="220.946" fill="black" font-size="13.6398" font-family="Helvetica">700</text>
<text xml:space="preserve" x="31.7593" y="167.663" fill="black" font-size="13.6398" font-family="Helvetica">800</text>
<text xml:space="preserve" x="31.7593" y="113.67" fill="black" font-size="13.6398" font-family="Helvetica">900</text>
<text xml:space="preserve" x="23.9444" y="60.3872" fill="black" font-size="13.6398" font-family="Helvetica">1000</text>
<text xml:space="preserve" x="79.3586" y="31.9697" fill="black" font-size="9.25989" font-family="Helvetica">3</text>
<text xml:space="preserve" x="64.4394" y="39.0741" fill="black" font-size="13.6398" font-family="Helvetica">10</text>
<text xml:space="preserve" x="56.6246" y="39.0741" fill="black" font-size="13.6398" font-family="Times">&#0215;</text>
<g transform="rotate(-90,11.867,89.5151)">
<text xml:space="preserve" x="11.867" y="89.5151" fill="black" font-size="13.6398" font-family="Helvetica"> Events </text>
</g>
<text xml:space="preserve" x="234.234" y="19.8923" fill="black" font-size="20.4444" font-family="Helvetica">Clusters pt</text>
<rect x="442.705" y="26.5988" width="113.386" height="65.4739" fill="white"/>
<path d="M442.705,92.0727h 113.386" fill="none" stroke="black"/>
<path d="M556.091,92.0727v -65.4739" fill="none" stroke="black"/>
<path d="M556.091,26.5988h -113.386" fill="none" stroke="black"/>
<path d="M442.705,26.5988v 65.4739" fill="none" stroke="black"/>
<text xml:space="preserve" x="462.995" y="38.3636" fill="black" font-size="14.3156" font-family="Helvetica">Clusters_pt</text>
<path d="M442.705,42.9673h 113.386" fill="none" stroke="black"/>
<text xml:space="preserve" x="448.076" y="54.7037" fill="black" font-size="9.04234" font-family="Helvetica">Entries </text>
<text xml:space="preserve" x="488.571" y="54.7037" fill="black" font-size="9.04234" font-family="Helvetica">   6.073094e+07</text>
<text xml:space="preserve" x="448.076" y="71.0438" fill="black" font-size="9.04234" font-family="Helvetica">Mean  </text>
<text xml:space="preserve" x="524.092" y="71.0438" fill="black" font-size="9.04234" font-family="Helvetica">  777.5</text>
<text xml:space="preserve" x="448.076" y="87.3838" fill="black" font-size="9.04234" font-family="Helvetica">Std Dev   </text>
<text xml:space="preserve" x="524.092" y="87.3838" fill="black" font-size="9.04234" font-family="Helvetica">  363.9</text>
<text xml:space="preserve" x="234.234" y="19.8923" fill="black" font-size="20.4444" font-family="Helvetica">Clusters pt</text></svg>
