<?xml version="1.0" standalone="no"?>
<svg width="567.429" height="409.712" viewBox="0 0 567.429 409.712" xmlns="http://www.w3.org/2000/svg" shape-rendering="crispEdges">
<title>
H_clusters_m.svg
</title>
<desc>
Creator: ROOT Version 6.22/02
CreationDate: Mon Sep 21 23:51:53 2020</desc>
<defs>
</defs>
<rect x="0.5" y="0" width="566.929" height="409.212" fill="white"/>
<rect x="57.1929" y="40.9212" width="453.543" height="327.37" fill="white"/>
<rect x="57.1929" y="40.9212" width="453.543" height="327.37" fill="none" stroke="black"/>
<path d="M57.1929,368.291h 226.772v -311.781h 9.07087v 311.781h 217.701z" fill="#00ffff"/>
<path d="M57.1929,368.291h 226.772v -311.781h 9.07087v 311.781h 217.701" fill="none" stroke="#000099"/>
<path d="M57.1929,368.291h 453.543" fill="none" stroke="black"/>
<path d="M57.1929,358.47v 9.82109" fill="none" stroke="black"/>
<path d="M66.2638,363.38v 4.91054" fill="none" stroke="black"/>
<path d="M75.3346,363.38v 4.91054" fill="none" stroke="black"/>
<path d="M84.4055,363.38v 4.91054" fill="none" stroke="black"/>
<path d="M93.4764,363.38v 4.91054" fill="none" stroke="black"/>
<path d="M102.547,358.47v 9.82109" fill="none" stroke="black"/>
<path d="M111.618,363.38v 4.91054" fill="none" stroke="black"/>
<path d="M120.689,363.38v 4.91054" fill="none" stroke="black"/>
<path d="M129.76,363.38v 4.91054" fill="none" stroke="black"/>
<path d="M138.831,363.38v 4.91054" fill="none" stroke="black"/>
<path d="M147.902,358.47v 9.82109" fill="none" stroke="black"/>
<path d="M156.972,363.38v 4.91054" fill="none" stroke="black"/>
<path d="M166.043,363.38v 4.91054" fill="none" stroke="black"/>
<path d="M175.114,363.38v 4.91054" fill="none" stroke="black"/>
<path d="M184.185,363.38v 4.91054" fill="none" stroke="black"/>
<path d="M193.256,358.47v 9.82109" fill="none" stroke="black"/>
<path d="M202.327,363.38v 4.91054" fill="none" stroke="black"/>
<path d="M211.398,363.38v 4.91054" fill="none" stroke="black"/>
<path d="M220.469,363.38v 4.91054" fill="none" stroke="black"/>
<path d="M229.539,363.38v 4.91054" fill="none" stroke="black"/>
<path d="M238.61,358.47v 9.82109" fill="none" stroke="black"/>
<path d="M247.681,363.38v 4.91054" fill="none" stroke="black"/>
<path d="M256.752,363.38v 4.91054" fill="none" stroke="black"/>
<path d="M265.823,363.38v 4.91054" fill="none" stroke="black"/>
<path d="M274.894,363.38v 4.91054" fill="none" stroke="black"/>
<path d="M283.965,358.47v 9.82109" fill="none" stroke="black"/>
<path d="M293.035,363.38v 4.91054" fill="none" stroke="black"/>
<path d="M302.106,363.38v 4.91054" fill="none" stroke="black"/>
<path d="M311.177,363.38v 4.91054" fill="none" stroke="black"/>
<path d="M320.248,363.38v 4.91054" fill="none" stroke="black"/>
<path d="M329.319,358.47v 9.82109" fill="none" stroke="black"/>
<path d="M338.39,363.38v 4.91054" fill="none" stroke="black"/>
<path d="M347.461,363.38v 4.91054" fill="none" stroke="black"/>
<path d="M356.531,363.38v 4.91054" fill="none" stroke="black"/>
<path d="M365.602,363.38v 4.91054" fill="none" stroke="black"/>
<path d="M374.673,358.47v 9.82109" fill="none" stroke="black"/>
<path d="M383.744,363.38v 4.91054" fill="none" stroke="black"/>
<path d="M392.815,363.38v 4.91054" fill="none" stroke="black"/>
<path d="M401.886,363.38v 4.91054" fill="none" stroke="black"/>
<path d="M410.957,363.38v 4.91054" fill="none" stroke="black"/>
<path d="M420.028,358.47v 9.82109" fill="none" stroke="black"/>
<path d="M429.098,363.38v 4.91054" fill="none" stroke="black"/>
<path d="M438.169,363.38v 4.91054" fill="none" stroke="black"/>
<path d="M447.24,363.38v 4.91054" fill="none" stroke="black"/>
<path d="M456.311,363.38v 4.91054" fill="none" stroke="black"/>
<path d="M465.382,358.47v 9.82109" fill="none" stroke="black"/>
<path d="M474.453,363.38v 4.91054" fill="none" stroke="black"/>
<path d="M483.524,363.38v 4.91054" fill="none" stroke="black"/>
<path d="M492.594,363.38v 4.91054" fill="none" stroke="black"/>
<path d="M501.665,363.38v 4.91054" fill="none" stroke="black"/>
<path d="M510.736,358.47v 9.82109" fill="none" stroke="black"/>
<path d="M57.1929,358.47v 9.82109" fill="none" stroke="black"/>
<text xml:space="preserve" x="50.9411" y="381.505" fill="black" font-size="13.6398" font-family="Helvetica">0.5</text>
<text xml:space="preserve" x="43.1263" y="381.505" fill="black" font-size="13.6398" font-family="Times">&#8722;</text>
<text xml:space="preserve" x="96.4091" y="381.505" fill="black" font-size="13.6398" font-family="Helvetica">0.4</text>
<text xml:space="preserve" x="88.5943" y="381.505" fill="black" font-size="13.6398" font-family="Times">&#8722;</text>
<text xml:space="preserve" x="141.877" y="381.505" fill="black" font-size="13.6398" font-family="Helvetica">0.3</text>
<text xml:space="preserve" x="134.062" y="381.505" fill="black" font-size="13.6398" font-family="Times">&#8722;</text>
<text xml:space="preserve" x="187.345" y="381.505" fill="black" font-size="13.6398" font-family="Helvetica">0.2</text>
<text xml:space="preserve" x="179.53" y="381.505" fill="black" font-size="13.6398" font-family="Times">&#8722;</text>
<text xml:space="preserve" x="233.523" y="381.505" fill="black" font-size="13.6398" font-family="Helvetica">0.1</text>
<text xml:space="preserve" x="226.419" y="381.505" fill="black" font-size="13.6398" font-family="Times">&#8722;</text>
<text xml:space="preserve" x="280.412" y="381.505" fill="black" font-size="13.6398" font-family="Helvetica">0</text>
<text xml:space="preserve" x="320.197" y="381.505" fill="black" font-size="13.6398" font-family="Helvetica">0.1</text>
<text xml:space="preserve" x="364.954" y="381.505" fill="black" font-size="13.6398" font-family="Helvetica">0.2</text>
<text xml:space="preserve" x="410.422" y="381.505" fill="black" font-size="13.6398" font-family="Helvetica">0.3</text>
<text xml:space="preserve" x="455.89" y="381.505" fill="black" font-size="13.6398" font-family="Helvetica">0.4</text>
<text xml:space="preserve" x="501.358" y="381.505" fill="black" font-size="13.6398" font-family="Helvetica">0.5</text>
<text xml:space="preserve" x="492.123" y="395.003" fill="black" font-size="13.6398" font-family="Helvetica"> m </text>
<path d="M57.1929,368.291v -327.37" fill="none" stroke="black"/>
<path d="M70.7992,368.291h -13.6063" fill="none" stroke="black"/>
<path d="M63.9961,358.999h -6.80315" fill="none" stroke="black"/>
<path d="M63.9961,349.707h -6.80315" fill="none" stroke="black"/>
<path d="M63.9961,340.415h -6.80315" fill="none" stroke="black"/>
<path d="M70.7992,331.124h -13.6063" fill="none" stroke="black"/>
<path d="M63.9961,321.832h -6.80315" fill="none" stroke="black"/>
<path d="M63.9961,312.54h -6.80315" fill="none" stroke="black"/>
<path d="M63.9961,303.248h -6.80315" fill="none" stroke="black"/>
<path d="M70.7992,293.957h -13.6063" fill="none" stroke="black"/>
<path d="M63.9961,284.665h -6.80315" fill="none" stroke="black"/>
<path d="M63.9961,275.373h -6.80315" fill="none" stroke="black"/>
<path d="M63.9961,266.081h -6.80315" fill="none" stroke="black"/>
<path d="M70.7992,256.789h -13.6063" fill="none" stroke="black"/>
<path d="M63.9961,247.498h -6.80315" fill="none" stroke="black"/>
<path d="M63.9961,238.206h -6.80315" fill="none" stroke="black"/>
<path d="M63.9961,228.914h -6.80315" fill="none" stroke="black"/>
<path d="M70.7992,219.622h -13.6063" fill="none" stroke="black"/>
<path d="M63.9961,210.33h -6.80315" fill="none" stroke="black"/>
<path d="M63.9961,201.039h -6.80315" fill="none" stroke="black"/>
<path d="M63.9961,191.747h -6.80315" fill="none" stroke="black"/>
<path d="M70.7992,182.455h -13.6063" fill="none" stroke="black"/>
<path d="M63.9961,173.163h -6.80315" fill="none" stroke="black"/>
<path d="M63.9961,163.872h -6.80315" fill="none" stroke="black"/>
<path d="M63.9961,154.58h -6.80315" fill="none" stroke="black"/>
<path d="M70.7992,145.288h -13.6063" fill="none" stroke="black"/>
<path d="M63.9961,135.996h -6.80315" fill="none" stroke="black"/>
<path d="M63.9961,126.704h -6.80315" fill="none" stroke="black"/>
<path d="M63.9961,117.413h -6.80315" fill="none" stroke="black"/>
<path d="M70.7992,108.121h -13.6063" fill="none" stroke="black"/>
<path d="M63.9961,98.829h -6.80315" fill="none" stroke="black"/>
<path d="M63.9961,89.5373h -6.80315" fill="none" stroke="black"/>
<path d="M63.9961,80.2455h -6.80315" fill="none" stroke="black"/>
<path d="M70.7992,70.9537h -13.6063" fill="none" stroke="black"/>
<path d="M70.7992,70.9537h -13.6063" fill="none" stroke="black"/>
<path d="M63.9961,61.6619h -6.80315" fill="none" stroke="black"/>
<path d="M63.9961,52.3701h -6.80315" fill="none" stroke="black"/>
<path d="M63.9961,43.0783h -6.80315" fill="none" stroke="black"/>
<text xml:space="preserve" x="46.6784" y="372.98" fill="black" font-size="13.6398" font-family="Helvetica">0</text>
<text xml:space="preserve" x="46.6784" y="336.747" fill="black" font-size="13.6398" font-family="Helvetica">2</text>
<text xml:space="preserve" x="46.6784" y="299.094" fill="black" font-size="13.6398" font-family="Helvetica">4</text>
<text xml:space="preserve" x="46.6784" y="261.441" fill="black" font-size="13.6398" font-family="Helvetica">6</text>
<text xml:space="preserve" x="46.6784" y="224.498" fill="black" font-size="13.6398" font-family="Helvetica">8</text>
<text xml:space="preserve" x="38.8636" y="186.845" fill="black" font-size="13.6398" font-family="Helvetica">10</text>
<text xml:space="preserve" x="38.8636" y="150.613" fill="black" font-size="13.6398" font-family="Helvetica">12</text>
<text xml:space="preserve" x="38.8636" y="113.67" fill="black" font-size="13.6398" font-family="Helvetica">14</text>
<text xml:space="preserve" x="38.8636" y="75.3064" fill="black" font-size="13.6398" font-family="Helvetica">16</text>
<text xml:space="preserve" x="79.3586" y="31.9697" fill="black" font-size="9.25989" font-family="Helvetica">6</text>
<text xml:space="preserve" x="64.4394" y="39.0741" fill="black" font-size="13.6398" font-family="Helvetica">10</text>
<text xml:space="preserve" x="56.6246" y="39.0741" fill="black" font-size="13.6398" font-family="Times">&#0215;</text>
<g transform="rotate(-90,26.7862,89.5151)">
<text xml:space="preserve" x="26.7862" y="89.5151" fill="black" font-size="13.6398" font-family="Helvetica"> Events </text>
</g>
<text xml:space="preserve" x="242.049" y="19.8923" fill="black" font-size="18.0511" font-family="Helvetica">Clusters m</text>
<rect x="442.705" y="26.5988" width="113.386" height="65.4739" fill="white"/>
<path d="M442.705,92.0727h 113.386" fill="none" stroke="black"/>
<path d="M556.091,92.0727v -65.4739" fill="none" stroke="black"/>
<path d="M556.091,26.5988h -113.386" fill="none" stroke="black"/>
<path d="M442.705,26.5988v 65.4739" fill="none" stroke="black"/>
<text xml:space="preserve" x="463.705" y="38.3636" fill="black" font-size="14.3156" font-family="Helvetica">Clusters_m</text>
<path d="M442.705,42.9673h 113.386" fill="none" stroke="black"/>
<text xml:space="preserve" x="448.076" y="54.7037" fill="black" font-size="9.04234" font-family="Helvetica">Entries </text>
<text xml:space="preserve" x="488.571" y="54.7037" fill="black" font-size="9.04234" font-family="Helvetica">   6.073094e+07</text>
<text xml:space="preserve" x="448.076" y="71.0438" fill="black" font-size="9.04234" font-family="Helvetica">Mean  </text>
<text xml:space="preserve" x="531.197" y="71.0438" fill="black" font-size="9.04234" font-family="Helvetica">      0</text>
<text xml:space="preserve" x="448.076" y="87.3838" fill="black" font-size="9.04234" font-family="Helvetica">Std Dev   </text>
<text xml:space="preserve" x="531.197" y="87.3838" fill="black" font-size="9.04234" font-family="Helvetica">      0</text>
<text xml:space="preserve" x="242.049" y="19.8923" fill="black" font-size="18.0511" font-family="Helvetica">Clusters m</text></svg>
