<?xml version="1.0" standalone="no"?>
<svg width="567.429" height="409.712" viewBox="0 0 567.429 409.712" xmlns="http://www.w3.org/2000/svg" shape-rendering="crispEdges">
<title>
H_mu.svg
</title>
<desc>
Creator: ROOT Version 6.22/02
CreationDate: Mon Sep 21 23:39:34 2020</desc>
<defs>
</defs>
<rect x="0.5" y="0" width="566.929" height="409.212" fill="white"/>
<rect x="57.1929" y="40.9212" width="453.543" height="327.37" fill="white"/>
<rect x="57.1929" y="40.9212" width="453.543" height="327.37" fill="none" stroke="black"/>
<path d="M57.1929,368.291h 36.2835v -4.74544h 9.07087v -3.17994h 9.07087v 0.733832h 9.07087v -19.2753h 9.07087v -24.3143h 9.07087v -37.7189h 9.07087v -52.6402h 9.07087v 51.2214h 9.07087v -130.475h 9.07087v -30.0871h 9.07087v -27.6899h 9.07087v
 131.16h 9.07087v -164.77h 9.07087v 0.0978442h 9.07087v 2.15257h 9.07087v 14.432h 9.07087v 152.833h 9.07087v -130.671h 9.07087v 38.4528h 9.07087v 26.7604h 9.07087v 114.624h 9.07087v -81.651h 9.07087v 17.2206h 9.07087v 1.46766h 9.07087v 7.14263h
 9.07087v 77.4926h 9.07087v -63.2074h 9.07087v 2.8864h 9.07087v 7.87646h 9.07087v 4.10946h 9.07087v 67.3168h 9.07087v -39.2845h 9.07087v 23.9229h 9.07087v 22.4552h 9.07087v 27.7388h 9.07087v -2.93533h 9.07087v 10.029h 9.07087v 5.33251h 9.07087v
 -0.0489221h 9.07087v 2.93533h 9.07087v -3.03317h 9.07087v 5.33251h 45.3543z" fill="#ff0000"/>
<path d="M57.1929,368.291h 36.2835v -4.74544h 9.07087v -3.17994h 9.07087v 0.733832h 9.07087v -19.2753h 9.07087v -24.3143h 9.07087v -37.7189h 9.07087v -52.6402h 9.07087v 51.2214h 9.07087v -130.475h 9.07087v -30.0871h 9.07087v -27.6899h 9.07087v
 131.16h 9.07087v -164.77h 9.07087v 0.0978442h 9.07087v 2.15257h 9.07087v 14.432h 9.07087v 152.833h 9.07087v -130.671h 9.07087v 38.4528h 9.07087v 26.7604h 9.07087v 114.624h 9.07087v -81.651h 9.07087v 17.2206h 9.07087v 1.46766h 9.07087v 7.14263h
 9.07087v 77.4926h 9.07087v -63.2074h 9.07087v 2.8864h 9.07087v 7.87646h 9.07087v 4.10946h 9.07087v 67.3168h 9.07087v -39.2845h 9.07087v 23.9229h 9.07087v 22.4552h 9.07087v 27.7388h 9.07087v -2.93533h 9.07087v 10.029h 9.07087v 5.33251h 9.07087v
 -0.0489221h 9.07087v 2.93533h 9.07087v -3.03317h 9.07087v 5.33251h 45.3543" fill="none" stroke="#000099"/>
<path d="M57.1929,368.291h 453.543" fill="none" stroke="black"/>
<path d="M103.057,358.47v 9.82109" fill="none" stroke="black"/>
<path d="M113.249,363.38v 4.91054" fill="none" stroke="black"/>
<path d="M123.441,363.38v 4.91054" fill="none" stroke="black"/>
<path d="M133.633,363.38v 4.91054" fill="none" stroke="black"/>
<path d="M143.825,363.38v 4.91054" fill="none" stroke="black"/>
<path d="M154.017,358.47v 9.82109" fill="none" stroke="black"/>
<path d="M164.209,363.38v 4.91054" fill="none" stroke="black"/>
<path d="M174.401,363.38v 4.91054" fill="none" stroke="black"/>
<path d="M184.593,363.38v 4.91054" fill="none" stroke="black"/>
<path d="M194.785,363.38v 4.91054" fill="none" stroke="black"/>
<path d="M204.977,358.47v 9.82109" fill="none" stroke="black"/>
<path d="M215.169,363.38v 4.91054" fill="none" stroke="black"/>
<path d="M225.361,363.38v 4.91054" fill="none" stroke="black"/>
<path d="M235.553,363.38v 4.91054" fill="none" stroke="black"/>
<path d="M245.745,363.38v 4.91054" fill="none" stroke="black"/>
<path d="M255.937,358.47v 9.82109" fill="none" stroke="black"/>
<path d="M266.129,363.38v 4.91054" fill="none" stroke="black"/>
<path d="M276.321,363.38v 4.91054" fill="none" stroke="black"/>
<path d="M286.513,363.38v 4.91054" fill="none" stroke="black"/>
<path d="M296.705,363.38v 4.91054" fill="none" stroke="black"/>
<path d="M306.897,358.47v 9.82109" fill="none" stroke="black"/>
<path d="M317.089,363.38v 4.91054" fill="none" stroke="black"/>
<path d="M327.28,363.38v 4.91054" fill="none" stroke="black"/>
<path d="M337.472,363.38v 4.91054" fill="none" stroke="black"/>
<path d="M347.664,363.38v 4.91054" fill="none" stroke="black"/>
<path d="M357.856,358.47v 9.82109" fill="none" stroke="black"/>
<path d="M368.048,363.38v 4.91054" fill="none" stroke="black"/>
<path d="M378.24,363.38v 4.91054" fill="none" stroke="black"/>
<path d="M388.432,363.38v 4.91054" fill="none" stroke="black"/>
<path d="M398.624,363.38v 4.91054" fill="none" stroke="black"/>
<path d="M408.816,358.47v 9.82109" fill="none" stroke="black"/>
<path d="M419.008,363.38v 4.91054" fill="none" stroke="black"/>
<path d="M429.2,363.38v 4.91054" fill="none" stroke="black"/>
<path d="M439.392,363.38v 4.91054" fill="none" stroke="black"/>
<path d="M449.584,363.38v 4.91054" fill="none" stroke="black"/>
<path d="M459.776,358.47v 9.82109" fill="none" stroke="black"/>
<path d="M469.968,363.38v 4.91054" fill="none" stroke="black"/>
<path d="M480.16,363.38v 4.91054" fill="none" stroke="black"/>
<path d="M490.352,363.38v 4.91054" fill="none" stroke="black"/>
<path d="M500.544,363.38v 4.91054" fill="none" stroke="black"/>
<path d="M510.736,358.47v 9.82109" fill="none" stroke="black"/>
<path d="M103.057,358.47v 9.82109" fill="none" stroke="black"/>
<path d="M92.8649,363.38v 4.91054" fill="none" stroke="black"/>
<path d="M82.6729,363.38v 4.91054" fill="none" stroke="black"/>
<path d="M72.4809,363.38v 4.91054" fill="none" stroke="black"/>
<path d="M62.2889,363.38v 4.91054" fill="none" stroke="black"/>
<text xml:space="preserve" x="94.9882" y="381.505" fill="black" font-size="13.6398" font-family="Helvetica">10</text>
<text xml:space="preserve" x="146.14" y="381.505" fill="black" font-size="13.6398" font-family="Helvetica">20</text>
<text xml:space="preserve" x="196.581" y="381.505" fill="black" font-size="13.6398" font-family="Helvetica">30</text>
<text xml:space="preserve" x="247.732" y="381.505" fill="black" font-size="13.6398" font-family="Helvetica">40</text>
<text xml:space="preserve" x="298.884" y="381.505" fill="black" font-size="13.6398" font-family="Helvetica">50</text>
<text xml:space="preserve" x="350.035" y="381.505" fill="black" font-size="13.6398" font-family="Helvetica">60</text>
<text xml:space="preserve" x="400.476" y="381.505" fill="black" font-size="13.6398" font-family="Helvetica">70</text>
<text xml:space="preserve" x="451.628" y="381.505" fill="black" font-size="13.6398" font-family="Helvetica">80</text>
<text xml:space="preserve" x="502.779" y="381.505" fill="black" font-size="13.6398" font-family="Helvetica">90</text>
<text xml:space="preserve" x="427.473" y="393.582" fill="black" font-size="13.6398" font-family="Helvetica"> mu_average </text>
<path d="M57.1929,368.291v -327.37" fill="none" stroke="black"/>
<path d="M70.7992,368.291h -13.6063" fill="none" stroke="black"/>
<path d="M63.9961,358.506h -6.80315" fill="none" stroke="black"/>
<path d="M63.9961,348.722h -6.80315" fill="none" stroke="black"/>
<path d="M63.9961,338.938h -6.80315" fill="none" stroke="black"/>
<path d="M63.9961,329.153h -6.80315" fill="none" stroke="black"/>
<path d="M70.7992,319.369h -13.6063" fill="none" stroke="black"/>
<path d="M63.9961,309.584h -6.80315" fill="none" stroke="black"/>
<path d="M63.9961,299.8h -6.80315" fill="none" stroke="black"/>
<path d="M63.9961,290.015h -6.80315" fill="none" stroke="black"/>
<path d="M63.9961,280.231h -6.80315" fill="none" stroke="black"/>
<path d="M70.7992,270.447h -13.6063" fill="none" stroke="black"/>
<path d="M63.9961,260.662h -6.80315" fill="none" stroke="black"/>
<path d="M63.9961,250.878h -6.80315" fill="none" stroke="black"/>
<path d="M63.9961,241.093h -6.80315" fill="none" stroke="black"/>
<path d="M63.9961,231.309h -6.80315" fill="none" stroke="black"/>
<path d="M70.7992,221.524h -13.6063" fill="none" stroke="black"/>
<path d="M63.9961,211.74h -6.80315" fill="none" stroke="black"/>
<path d="M63.9961,201.956h -6.80315" fill="none" stroke="black"/>
<path d="M63.9961,192.171h -6.80315" fill="none" stroke="black"/>
<path d="M63.9961,182.387h -6.80315" fill="none" stroke="black"/>
<path d="M70.7992,172.602h -13.6063" fill="none" stroke="black"/>
<path d="M63.9961,162.818h -6.80315" fill="none" stroke="black"/>
<path d="M63.9961,153.034h -6.80315" fill="none" stroke="black"/>
<path d="M63.9961,143.249h -6.80315" fill="none" stroke="black"/>
<path d="M63.9961,133.465h -6.80315" fill="none" stroke="black"/>
<path d="M70.7992,123.68h -13.6063" fill="none" stroke="black"/>
<path d="M63.9961,113.896h -6.80315" fill="none" stroke="black"/>
<path d="M63.9961,104.111h -6.80315" fill="none" stroke="black"/>
<path d="M63.9961,94.327h -6.80315" fill="none" stroke="black"/>
<path d="M63.9961,84.5426h -6.80315" fill="none" stroke="black"/>
<path d="M70.7992,74.7582h -13.6063" fill="none" stroke="black"/>
<path d="M70.7992,74.7582h -13.6063" fill="none" stroke="black"/>
<path d="M63.9961,64.9738h -6.80315" fill="none" stroke="black"/>
<path d="M63.9961,55.1893h -6.80315" fill="none" stroke="black"/>
<path d="M63.9961,45.4049h -6.80315" fill="none" stroke="black"/>
<text xml:space="preserve" x="46.6784" y="372.98" fill="black" font-size="13.6398" font-family="Helvetica">0</text>
<text xml:space="preserve" x="23.9444" y="323.96" fill="black" font-size="13.6398" font-family="Helvetica">1000</text>
<text xml:space="preserve" x="23.9444" y="274.939" fill="black" font-size="13.6398" font-family="Helvetica">2000</text>
<text xml:space="preserve" x="23.9444" y="225.919" fill="black" font-size="13.6398" font-family="Helvetica">3000</text>
<text xml:space="preserve" x="23.9444" y="176.899" fill="black" font-size="13.6398" font-family="Helvetica">4000</text>
<text xml:space="preserve" x="23.9444" y="128.589" fill="black" font-size="13.6398" font-family="Helvetica">5000</text>
<text xml:space="preserve" x="23.9444" y="79.569" fill="black" font-size="13.6398" font-family="Helvetica">6000</text>
<g transform="rotate(-90,11.867,89.5151)">
<text xml:space="preserve" x="11.867" y="89.5151" fill="black" font-size="13.6398" font-family="Helvetica"> Events </text>
</g>
<text xml:space="preserve" x="215.052" y="19.8923" fill="black" font-size="19.7796" font-family="Helvetica">Average events</text>
<rect x="442.705" y="26.5988" width="113.386" height="65.4739" fill="white"/>
<path d="M442.705,92.0727h 113.386" fill="none" stroke="black"/>
<path d="M556.091,92.0727v -65.4739" fill="none" stroke="black"/>
<path d="M556.091,26.5988h -113.386" fill="none" stroke="black"/>
<path d="M442.705,26.5988v 65.4739" fill="none" stroke="black"/>
<text xml:space="preserve" x="459.443" y="36.9428" fill="black" font-size="14.3156" font-family="Helvetica">mu_average</text>
<path d="M442.705,42.9673h 113.386" fill="none" stroke="black"/>
<text xml:space="preserve" x="448.076" y="56.1246" fill="black" font-size="12.0579" font-family="Helvetica">Entries </text>
<text xml:space="preserve" x="507.042" y="56.1246" fill="black" font-size="12.0579" font-family="Helvetica"> 102900</text>
<text xml:space="preserve" x="448.076" y="72.4646" fill="black" font-size="12.0579" font-family="Helvetica">Mean  </text>
<text xml:space="preserve" x="513.436" y="72.4646" fill="black" font-size="12.0579" font-family="Helvetica">  38.93</text>
<text xml:space="preserve" x="448.076" y="88.8047" fill="black" font-size="12.0579" font-family="Helvetica">Std Dev   </text>
<text xml:space="preserve" x="513.436" y="88.8047" fill="black" font-size="12.0579" font-family="Helvetica">  13.45</text>
<text xml:space="preserve" x="215.052" y="19.8923" fill="black" font-size="19.7796" font-family="Helvetica">Average events</text></svg>
