<?xml version="1.0" standalone="no"?>
<svg width="567.429" height="409.712" viewBox="0 0 567.429 409.712" xmlns="http://www.w3.org/2000/svg" shape-rendering="crispEdges">
<title>
H_particles_phi.svg
</title>
<desc>
Creator: ROOT Version 6.22/02
CreationDate: Mon Sep 21 23:51:53 2020</desc>
<defs>
</defs>
<rect x="0.5" y="0" width="566.929" height="409.212" fill="white"/>
<rect x="57.1929" y="40.9212" width="453.543" height="327.37" fill="white"/>
<rect x="57.1929" y="40.9212" width="453.543" height="327.37" fill="none" stroke="black"/>
<path d="M57.1929,368.291h 45.3543v -196.973h 9.07087v -113.514h 9.07087v -1.29358h 9.07087v 1.26572h 9.07087v 0.707657h 9.07087v -1.44777h 9.07087v 0.277003h 9.07087v 0.231016h 9.07087v -0.493682h 9.07087v 0.563474h 9.07087v -0.144453h 9.07087v
 0.597288h 9.07087v 0.412529h 9.07087v -1.39881h 9.07087v 0.858061h 9.07087v -0.0459869h 9.07087v -0.208293h 9.07087v -0.0941378h 9.07087v 0.595936h 9.07087v 0.0348959h 9.07087v -0.517217h 9.07087v -0.319744h 9.07087v 0.959232h 9.07087v -0.320826h
 9.07087v 0.717395h 9.07087v -0.690885h 9.07087v 1.24814h 9.07087v -0.282954h 9.07087v 0.0413882h 9.07087v -1.0228h 9.07087v 0.289176h 9.07087v 0.138502h 9.07087v -0.252387h 9.07087v -0.849945h 9.07087v 1.05256h 9.07087v -0.691696h 9.07087v
 -0.102253h 9.07087v -0.335704h 9.07087v 0.665998h 9.07087v 113.396h 9.07087v 196.948h 45.3543z" fill="#00ffff"/>
<path d="M57.1929,368.291h 45.3543v -196.973h 9.07087v -113.514h 9.07087v -1.29358h 9.07087v 1.26572h 9.07087v 0.707657h 9.07087v -1.44777h 9.07087v 0.277003h 9.07087v 0.231016h 9.07087v -0.493682h 9.07087v 0.563474h 9.07087v -0.144453h 9.07087v
 0.597288h 9.07087v 0.412529h 9.07087v -1.39881h 9.07087v 0.858061h 9.07087v -0.0459869h 9.07087v -0.208293h 9.07087v -0.0941378h 9.07087v 0.595936h 9.07087v 0.0348959h 9.07087v -0.517217h 9.07087v -0.319744h 9.07087v 0.959232h 9.07087v -0.320826h
 9.07087v 0.717395h 9.07087v -0.690885h 9.07087v 1.24814h 9.07087v -0.282954h 9.07087v 0.0413882h 9.07087v -1.0228h 9.07087v 0.289176h 9.07087v 0.138502h 9.07087v -0.252387h 9.07087v -0.849945h 9.07087v 1.05256h 9.07087v -0.691696h 9.07087v
 -0.102253h 9.07087v -0.335704h 9.07087v 0.665998h 9.07087v 113.396h 9.07087v 196.948h 45.3543" fill="none" stroke="#000099"/>
<path d="M57.1929,368.291h 453.543" fill="none" stroke="black"/>
<path d="M57.1929,358.47v 9.82109" fill="none" stroke="black"/>
<path d="M68.5315,363.38v 4.91054" fill="none" stroke="black"/>
<path d="M79.8701,363.38v 4.91054" fill="none" stroke="black"/>
<path d="M91.2087,363.38v 4.91054" fill="none" stroke="black"/>
<path d="M102.547,363.38v 4.91054" fill="none" stroke="black"/>
<path d="M113.886,358.47v 9.82109" fill="none" stroke="black"/>
<path d="M125.224,363.38v 4.91054" fill="none" stroke="black"/>
<path d="M136.563,363.38v 4.91054" fill="none" stroke="black"/>
<path d="M147.902,363.38v 4.91054" fill="none" stroke="black"/>
<path d="M159.24,363.38v 4.91054" fill="none" stroke="black"/>
<path d="M170.579,358.47v 9.82109" fill="none" stroke="black"/>
<path d="M181.917,363.38v 4.91054" fill="none" stroke="black"/>
<path d="M193.256,363.38v 4.91054" fill="none" stroke="black"/>
<path d="M204.594,363.38v 4.91054" fill="none" stroke="black"/>
<path d="M215.933,363.38v 4.91054" fill="none" stroke="black"/>
<path d="M227.272,358.47v 9.82109" fill="none" stroke="black"/>
<path d="M238.61,363.38v 4.91054" fill="none" stroke="black"/>
<path d="M249.949,363.38v 4.91054" fill="none" stroke="black"/>
<path d="M261.287,363.38v 4.91054" fill="none" stroke="black"/>
<path d="M272.626,363.38v 4.91054" fill="none" stroke="black"/>
<path d="M283.965,358.47v 9.82109" fill="none" stroke="black"/>
<path d="M295.303,363.38v 4.91054" fill="none" stroke="black"/>
<path d="M306.642,363.38v 4.91054" fill="none" stroke="black"/>
<path d="M317.98,363.38v 4.91054" fill="none" stroke="black"/>
<path d="M329.319,363.38v 4.91054" fill="none" stroke="black"/>
<path d="M340.657,358.47v 9.82109" fill="none" stroke="black"/>
<path d="M351.996,363.38v 4.91054" fill="none" stroke="black"/>
<path d="M363.335,363.38v 4.91054" fill="none" stroke="black"/>
<path d="M374.673,363.38v 4.91054" fill="none" stroke="black"/>
<path d="M386.012,363.38v 4.91054" fill="none" stroke="black"/>
<path d="M397.35,358.47v 9.82109" fill="none" stroke="black"/>
<path d="M408.689,363.38v 4.91054" fill="none" stroke="black"/>
<path d="M420.028,363.38v 4.91054" fill="none" stroke="black"/>
<path d="M431.366,363.38v 4.91054" fill="none" stroke="black"/>
<path d="M442.705,363.38v 4.91054" fill="none" stroke="black"/>
<path d="M454.043,358.47v 9.82109" fill="none" stroke="black"/>
<path d="M465.382,363.38v 4.91054" fill="none" stroke="black"/>
<path d="M476.72,363.38v 4.91054" fill="none" stroke="black"/>
<path d="M488.059,363.38v 4.91054" fill="none" stroke="black"/>
<path d="M499.398,363.38v 4.91054" fill="none" stroke="black"/>
<path d="M510.736,358.47v 9.82109" fill="none" stroke="black"/>
<text xml:space="preserve" x="56.6246" y="381.505" fill="black" font-size="13.6398" font-family="Helvetica">4</text>
<text xml:space="preserve" x="48.8097" y="381.505" fill="black" font-size="13.6398" font-family="Times">&#8722;</text>
<text xml:space="preserve" x="113.46" y="381.505" fill="black" font-size="13.6398" font-family="Helvetica">3</text>
<text xml:space="preserve" x="105.645" y="381.505" fill="black" font-size="13.6398" font-family="Times">&#8722;</text>
<text xml:space="preserve" x="170.295" y="381.505" fill="black" font-size="13.6398" font-family="Helvetica">2</text>
<text xml:space="preserve" x="162.48" y="381.505" fill="black" font-size="13.6398" font-family="Times">&#8722;</text>
<text xml:space="preserve" x="227.84" y="381.505" fill="black" font-size="13.6398" font-family="Helvetica">1</text>
<text xml:space="preserve" x="220.736" y="381.505" fill="black" font-size="13.6398" font-family="Times">&#8722;</text>
<text xml:space="preserve" x="280.412" y="381.505" fill="black" font-size="13.6398" font-family="Helvetica">0</text>
<text xml:space="preserve" x="337.247" y="381.505" fill="black" font-size="13.6398" font-family="Helvetica">1</text>
<text xml:space="preserve" x="393.372" y="381.505" fill="black" font-size="13.6398" font-family="Helvetica">2</text>
<text xml:space="preserve" x="450.207" y="381.505" fill="black" font-size="13.6398" font-family="Helvetica">3</text>
<text xml:space="preserve" x="507.042" y="381.505" fill="black" font-size="13.6398" font-family="Helvetica">4</text>
<text xml:space="preserve" x="485.018" y="394.293" fill="black" font-size="13.6398" font-family="Helvetica"> phi </text>
<path d="M57.1929,368.291v -327.37" fill="none" stroke="black"/>
<path d="M70.7992,368.291h -13.6063" fill="none" stroke="black"/>
<path d="M63.9961,354.765h -6.80315" fill="none" stroke="black"/>
<path d="M63.9961,341.24h -6.80315" fill="none" stroke="black"/>
<path d="M63.9961,327.714h -6.80315" fill="none" stroke="black"/>
<path d="M70.7992,314.189h -13.6063" fill="none" stroke="black"/>
<path d="M63.9961,300.663h -6.80315" fill="none" stroke="black"/>
<path d="M63.9961,287.138h -6.80315" fill="none" stroke="black"/>
<path d="M63.9961,273.612h -6.80315" fill="none" stroke="black"/>
<path d="M70.7992,260.086h -13.6063" fill="none" stroke="black"/>
<path d="M63.9961,246.561h -6.80315" fill="none" stroke="black"/>
<path d="M63.9961,233.035h -6.80315" fill="none" stroke="black"/>
<path d="M63.9961,219.51h -6.80315" fill="none" stroke="black"/>
<path d="M70.7992,205.984h -13.6063" fill="none" stroke="black"/>
<path d="M63.9961,192.459h -6.80315" fill="none" stroke="black"/>
<path d="M63.9961,178.933h -6.80315" fill="none" stroke="black"/>
<path d="M63.9961,165.408h -6.80315" fill="none" stroke="black"/>
<path d="M70.7992,151.882h -13.6063" fill="none" stroke="black"/>
<path d="M63.9961,138.357h -6.80315" fill="none" stroke="black"/>
<path d="M63.9961,124.831h -6.80315" fill="none" stroke="black"/>
<path d="M63.9961,111.305h -6.80315" fill="none" stroke="black"/>
<path d="M70.7992,97.7799h -13.6063" fill="none" stroke="black"/>
<path d="M63.9961,84.2544h -6.80315" fill="none" stroke="black"/>
<path d="M63.9961,70.7288h -6.80315" fill="none" stroke="black"/>
<path d="M63.9961,57.2033h -6.80315" fill="none" stroke="black"/>
<path d="M70.7992,43.6777h -13.6063" fill="none" stroke="black"/>
<path d="M70.7992,43.6777h -13.6063" fill="none" stroke="black"/>
<text xml:space="preserve" x="46.6784" y="372.98" fill="black" font-size="13.6398" font-family="Helvetica">0</text>
<text xml:space="preserve" x="31.7593" y="318.986" fill="black" font-size="13.6398" font-family="Helvetica">200</text>
<text xml:space="preserve" x="31.7593" y="264.993" fill="black" font-size="13.6398" font-family="Helvetica">400</text>
<text xml:space="preserve" x="31.7593" y="210.29" fill="black" font-size="13.6398" font-family="Helvetica">600</text>
<text xml:space="preserve" x="31.7593" y="156.296" fill="black" font-size="13.6398" font-family="Helvetica">800</text>
<text xml:space="preserve" x="23.9444" y="102.303" fill="black" font-size="13.6398" font-family="Helvetica">1000</text>
<text xml:space="preserve" x="23.9444" y="48.3098" fill="black" font-size="13.6398" font-family="Helvetica">1200</text>
<text xml:space="preserve" x="79.3586" y="31.9697" fill="black" font-size="9.25989" font-family="Helvetica">3</text>
<text xml:space="preserve" x="64.4394" y="39.0741" fill="black" font-size="13.6398" font-family="Helvetica">10</text>
<text xml:space="preserve" x="56.6246" y="39.0741" fill="black" font-size="13.6398" font-family="Times">&#0215;</text>
<g transform="rotate(-90,11.867,89.5151)">
<text xml:space="preserve" x="11.867" y="89.5151" fill="black" font-size="13.6398" font-family="Helvetica"> Events </text>
</g>
<text xml:space="preserve" x="229.971" y="19.8923" fill="black" font-size="19.7796" font-family="Helvetica">Particles phi</text>
<rect x="442.705" y="26.5988" width="113.386" height="65.4739" fill="white"/>
<path d="M442.705,92.0727h 113.386" fill="none" stroke="black"/>
<path d="M556.091,92.0727v -65.4739" fill="none" stroke="black"/>
<path d="M556.091,26.5988h -113.386" fill="none" stroke="black"/>
<path d="M442.705,26.5988v 65.4739" fill="none" stroke="black"/>
<text xml:space="preserve" x="458.732" y="38.3636" fill="black" font-size="14.3156" font-family="Helvetica">Particles_phi</text>
<path d="M442.705,42.9673h 113.386" fill="none" stroke="black"/>
<text xml:space="preserve" x="448.076" y="54.7037" fill="black" font-size="9.04234" font-family="Helvetica">Entries </text>
<text xml:space="preserve" x="488.571" y="54.7037" fill="black" font-size="9.04234" font-family="Helvetica">   4.505651e+07</text>
<text xml:space="preserve" x="448.076" y="71.0438" fill="black" font-size="9.04234" font-family="Helvetica">Mean  </text>
<text xml:space="preserve" x="514.857" y="71.0438" fill="black" font-size="9.04234" font-family="Helvetica">0.001219</text>
<text xml:space="preserve" x="509.884" y="71.0438" fill="black" font-size="9.04234" font-family="Times">&#8722;</text>
<text xml:space="preserve" x="507.042" y="71.0438" fill="black" font-size="9.04234" font-family="Helvetica"> </text>
<text xml:space="preserve" x="448.076" y="87.3838" fill="black" font-size="9.04234" font-family="Helvetica">Std Dev   </text>
<text xml:space="preserve" x="524.092" y="87.3838" fill="black" font-size="9.04234" font-family="Helvetica">  1.814</text>
<text xml:space="preserve" x="229.971" y="19.8923" fill="black" font-size="19.7796" font-family="Helvetica">Particles phi</text></svg>
