<?xml version="1.0" standalone="no"?>
<svg width="567.429" height="409.712" viewBox="0 0 567.429 409.712" xmlns="http://www.w3.org/2000/svg" shape-rendering="crispEdges">
<title>
H_particles_pt.svg
</title>
<desc>
Creator: ROOT Version 6.22/02
CreationDate: Mon Sep 21 23:51:53 2020</desc>
<defs>
</defs>
<rect x="0.5" y="0" width="566.929" height="409.212" fill="white"/>
<rect x="57.1929" y="40.9212" width="453.543" height="327.37" fill="white"/>
<rect x="57.1929" y="40.9212" width="453.543" height="327.37" fill="none" stroke="black"/>
<path d="M57.1929,368.291v -77.6174h 9.07087v -187.854h 9.07087v -41.7564h 9.07087v -4.55273h 9.07087v 6.76341h 9.07087v 10.6902h 9.07087v 10.6402h 9.07087v 11.7692h 9.07087v 10.4635h 9.07087v 12.0918h 9.07087v 10.6281h 9.07087v 10.6121h 9.07087v
 11.0016h 9.07087v 10.5696h 9.07087v 10.3484h 9.07087v 10.2237h 9.07087v 9.96737h 9.07087v 9.20901h 9.07087v 9.4782h 9.07087v 8.71082h 9.07087v 8.05653h 9.07087v 7.97591h 9.07087v 7.50966h 9.07087v 7.64464h 9.07087v 7.5179h 9.07087v 6.66166h 9.07087v
 6.08671h 9.07087v 6.04034h 9.07087v 5.93267h 9.07087v 5.55142h 9.07087v 5.11661h 9.07087v 5.19388h 9.07087v 4.73305h 9.07087v 4.52208h 9.07087v 4.15346h 9.07087v 3.62874h 9.07087v 4.02775h 9.07087v 3.22251h 9.07087v 3.57052h 9.07087v 3.09114h
 9.07087v 3.02004h 9.07087v 3.14008h 9.07087v 2.18569h 9.07087v 2.66945h 9.07087v 2.26838h 9.07087v 2.56152h 9.07087v 1.86138h 9.07087v 2.07029h 9.07087v 1.91805h 9.07087v 1.83459h 9.07087v 14.8467z" fill="#00ffff"/>
<path d="M57.1929,290.673h 9.07087v -187.854h 9.07087v -41.7564h 9.07087v -4.55273h 9.07087v 6.76341h 9.07087v 10.6902h 9.07087v 10.6402h 9.07087v 11.7692h 9.07087v 10.4635h 9.07087v 12.0918h 9.07087v 10.6281h 9.07087v 10.6121h 9.07087v 11.0016h
 9.07087v 10.5696h 9.07087v 10.3484h 9.07087v 10.2237h 9.07087v 9.96737h 9.07087v 9.20901h 9.07087v 9.4782h 9.07087v 8.71082h 9.07087v 8.05653h 9.07087v 7.97591h 9.07087v 7.50966h 9.07087v 7.64464h 9.07087v 7.5179h 9.07087v 6.66166h 9.07087v 6.08671h
 9.07087v 6.04034h 9.07087v 5.93267h 9.07087v 5.55142h 9.07087v 5.11661h 9.07087v 5.19388h 9.07087v 4.73305h 9.07087v 4.52208h 9.07087v 4.15346h 9.07087v 3.62874h 9.07087v 4.02775h 9.07087v 3.22251h 9.07087v 3.57052h 9.07087v 3.09114h 9.07087v
 3.02004h 9.07087v 3.14008h 9.07087v 2.18569h 9.07087v 2.66945h 9.07087v 2.26838h 9.07087v 2.56152h 9.07087v 1.86138h 9.07087v 2.07029h 9.07087v 1.91805h 9.07087v 1.83459h 9.07087" fill="none" stroke="#000099"/>
<path d="M57.1929,368.291h 453.543" fill="none" stroke="black"/>
<path d="M59.4494,358.47v 9.82109" fill="none" stroke="black"/>
<path d="M82.0137,363.38v 4.91054" fill="none" stroke="black"/>
<path d="M104.578,363.38v 4.91054" fill="none" stroke="black"/>
<path d="M127.142,363.38v 4.91054" fill="none" stroke="black"/>
<path d="M149.707,358.47v 9.82109" fill="none" stroke="black"/>
<path d="M172.271,363.38v 4.91054" fill="none" stroke="black"/>
<path d="M194.835,363.38v 4.91054" fill="none" stroke="black"/>
<path d="M217.4,363.38v 4.91054" fill="none" stroke="black"/>
<path d="M239.964,358.47v 9.82109" fill="none" stroke="black"/>
<path d="M262.528,363.38v 4.91054" fill="none" stroke="black"/>
<path d="M285.093,363.38v 4.91054" fill="none" stroke="black"/>
<path d="M307.657,363.38v 4.91054" fill="none" stroke="black"/>
<path d="M330.221,358.47v 9.82109" fill="none" stroke="black"/>
<path d="M352.786,363.38v 4.91054" fill="none" stroke="black"/>
<path d="M375.35,363.38v 4.91054" fill="none" stroke="black"/>
<path d="M397.914,363.38v 4.91054" fill="none" stroke="black"/>
<path d="M420.479,358.47v 9.82109" fill="none" stroke="black"/>
<path d="M443.043,363.38v 4.91054" fill="none" stroke="black"/>
<path d="M465.608,363.38v 4.91054" fill="none" stroke="black"/>
<path d="M488.172,363.38v 4.91054" fill="none" stroke="black"/>
<path d="M510.736,358.47v 9.82109" fill="none" stroke="black"/>
<path d="M59.4494,358.47v 9.82109" fill="none" stroke="black"/>
<path d="M510.736,358.47v 9.82109" fill="none" stroke="black"/>
<text xml:space="preserve" x="55.2037" y="381.505" fill="black" font-size="13.6398" font-family="Helvetica">0</text>
<text xml:space="preserve" x="138.325" y="381.505" fill="black" font-size="13.6398" font-family="Helvetica">200</text>
<text xml:space="preserve" x="228.55" y="381.505" fill="black" font-size="13.6398" font-family="Helvetica">400</text>
<text xml:space="preserve" x="318.776" y="381.505" fill="black" font-size="13.6398" font-family="Helvetica">600</text>
<text xml:space="preserve" x="409.002" y="381.505" fill="black" font-size="13.6398" font-family="Helvetica">800</text>
<text xml:space="preserve" x="495.675" y="381.505" fill="black" font-size="13.6398" font-family="Helvetica">1000</text>
<text xml:space="preserve" x="491.412" y="394.293" fill="black" font-size="13.6398" font-family="Helvetica"> pt </text>
<path d="M57.1929,368.291v -327.37" fill="none" stroke="black"/>
<path d="M70.7992,352.604h -13.6063" fill="none" stroke="black"/>
<path d="M63.9961,339.725h -6.80315" fill="none" stroke="black"/>
<path d="M63.9961,326.845h -6.80315" fill="none" stroke="black"/>
<path d="M63.9961,313.965h -6.80315" fill="none" stroke="black"/>
<path d="M70.7992,301.085h -13.6063" fill="none" stroke="black"/>
<path d="M63.9961,288.206h -6.80315" fill="none" stroke="black"/>
<path d="M63.9961,275.326h -6.80315" fill="none" stroke="black"/>
<path d="M63.9961,262.446h -6.80315" fill="none" stroke="black"/>
<path d="M70.7992,249.566h -13.6063" fill="none" stroke="black"/>
<path d="M63.9961,236.687h -6.80315" fill="none" stroke="black"/>
<path d="M63.9961,223.807h -6.80315" fill="none" stroke="black"/>
<path d="M63.9961,210.927h -6.80315" fill="none" stroke="black"/>
<path d="M70.7992,198.047h -13.6063" fill="none" stroke="black"/>
<path d="M63.9961,185.168h -6.80315" fill="none" stroke="black"/>
<path d="M63.9961,172.288h -6.80315" fill="none" stroke="black"/>
<path d="M63.9961,159.408h -6.80315" fill="none" stroke="black"/>
<path d="M70.7992,146.529h -13.6063" fill="none" stroke="black"/>
<path d="M63.9961,133.649h -6.80315" fill="none" stroke="black"/>
<path d="M63.9961,120.769h -6.80315" fill="none" stroke="black"/>
<path d="M63.9961,107.889h -6.80315" fill="none" stroke="black"/>
<path d="M70.7992,95.0096h -13.6063" fill="none" stroke="black"/>
<path d="M63.9961,82.1298h -6.80315" fill="none" stroke="black"/>
<path d="M63.9961,69.2501h -6.80315" fill="none" stroke="black"/>
<path d="M63.9961,56.3704h -6.80315" fill="none" stroke="black"/>
<path d="M70.7992,43.4906h -13.6063" fill="none" stroke="black"/>
<path d="M70.7992,352.604h -13.6063" fill="none" stroke="black"/>
<path d="M63.9961,365.484h -6.80315" fill="none" stroke="black"/>
<path d="M70.7992,43.4906h -13.6063" fill="none" stroke="black"/>
<text xml:space="preserve" x="31.7593" y="357.35" fill="black" font-size="13.6398" font-family="Helvetica">200</text>
<text xml:space="preserve" x="31.7593" y="305.488" fill="black" font-size="13.6398" font-family="Helvetica">400</text>
<text xml:space="preserve" x="31.7593" y="254.337" fill="black" font-size="13.6398" font-family="Helvetica">600</text>
<text xml:space="preserve" x="31.7593" y="202.475" fill="black" font-size="13.6398" font-family="Helvetica">800</text>
<text xml:space="preserve" x="23.9444" y="151.323" fill="black" font-size="13.6398" font-family="Helvetica">1000</text>
<text xml:space="preserve" x="23.9444" y="99.4613" fill="black" font-size="13.6398" font-family="Helvetica">1200</text>
<text xml:space="preserve" x="23.9444" y="48.3098" fill="black" font-size="13.6398" font-family="Helvetica">1400</text>
<text xml:space="preserve" x="79.3586" y="31.9697" fill="black" font-size="9.25989" font-family="Helvetica">3</text>
<text xml:space="preserve" x="64.4394" y="39.0741" fill="black" font-size="13.6398" font-family="Helvetica">10</text>
<text xml:space="preserve" x="56.6246" y="39.0741" fill="black" font-size="13.6398" font-family="Times">&#0215;</text>
<g transform="rotate(-90,11.867,89.5151)">
<text xml:space="preserve" x="11.867" y="89.5151" fill="black" font-size="13.6398" font-family="Helvetica"> Events </text>
</g>
<text xml:space="preserve" x="234.944" y="19.8923" fill="black" font-size="19.7796" font-family="Helvetica">Particles pt</text>
<rect x="442.705" y="26.5988" width="113.386" height="65.4739" fill="white"/>
<path d="M442.705,92.0727h 113.386" fill="none" stroke="black"/>
<path d="M556.091,92.0727v -65.4739" fill="none" stroke="black"/>
<path d="M556.091,26.5988h -113.386" fill="none" stroke="black"/>
<path d="M442.705,26.5988v 65.4739" fill="none" stroke="black"/>
<text xml:space="preserve" x="461.574" y="38.3636" fill="black" font-size="14.3156" font-family="Helvetica">Particles_pt</text>
<path d="M442.705,42.9673h 113.386" fill="none" stroke="black"/>
<text xml:space="preserve" x="448.076" y="54.7037" fill="black" font-size="9.04234" font-family="Helvetica">Entries </text>
<text xml:space="preserve" x="488.571" y="54.7037" fill="black" font-size="9.04234" font-family="Helvetica">   4.505651e+07</text>
<text xml:space="preserve" x="448.076" y="71.0438" fill="black" font-size="9.04234" font-family="Helvetica">Mean  </text>
<text xml:space="preserve" x="524.092" y="71.0438" fill="black" font-size="9.04234" font-family="Helvetica">  344.2</text>
<text xml:space="preserve" x="448.076" y="87.3838" fill="black" font-size="9.04234" font-family="Helvetica">Std Dev   </text>
<text xml:space="preserve" x="524.092" y="87.3838" fill="black" font-size="9.04234" font-family="Helvetica">  254.5</text>
<text xml:space="preserve" x="234.944" y="19.8923" fill="black" font-size="19.7796" font-family="Helvetica">Particles pt</text></svg>
