<?xml version="1.0" standalone="no"?>
<svg width="567.429" height="409.712" viewBox="0 0 567.429 409.712" xmlns="http://www.w3.org/2000/svg" shape-rendering="crispEdges">
<title>
H_track_phi.svg
</title>
<desc>
Creator: ROOT Version 6.22/02
CreationDate: Mon Sep 21 23:51:53 2020</desc>
<defs>
</defs>
<rect x="0.5" y="0" width="566.929" height="409.212" fill="white"/>
<rect x="57.1929" y="40.9212" width="453.543" height="327.37" fill="white"/>
<rect x="57.1929" y="40.9212" width="453.543" height="327.37" fill="none" stroke="black"/>
<path d="M57.1929,368.291h 45.3543v -192.556h 9.07087v -119.224h 9.07087v 3.63122h 9.07087v -1.84623h 9.07087v 2.19477h 9.07087v 0.289681h 9.07087v -0.604928h 9.07087v 2.9347h 9.07087v -1.60511h 9.07087v 3.22567h 9.07087v -4.28728h 9.07087v 1.43351h
 9.07087v -1.58065h 9.07087v 0.993744h 9.07087v 2.40279h 9.07087v -3.01029h 9.07087v 1.2139h 9.07087v -1.3901h 9.07087v 2.63913h 9.07087v -2.83593h 9.07087v 2.94334h 9.07087v -3.77542h 9.07087v 3.69615h 9.07087v 3.07651h 9.07087v -2.78388h 9.07087v
 2.23045h 9.07087v -4.96541h 9.07087v 2.90251h 9.07087v -0.217031h 9.07087v 1.28214h 9.07087v -0.254919h 9.07087v -3.98289h 9.07087v 2.77377h 9.07087v -3.02354h 9.07087v 4.47249h 9.07087v -3.78351h 9.07087v 3.5891h 9.07087v -0.656611h 9.07087v
 -0.407761h 9.07087v 110.301h 9.07087v 194.565h 45.3543z" fill="#00ffff"/>
<path d="M57.1929,368.291h 45.3543v -192.556h 9.07087v -119.224h 9.07087v 3.63122h 9.07087v -1.84623h 9.07087v 2.19477h 9.07087v 0.289681h 9.07087v -0.604928h 9.07087v 2.9347h 9.07087v -1.60511h 9.07087v 3.22567h 9.07087v -4.28728h 9.07087v 1.43351h
 9.07087v -1.58065h 9.07087v 0.993744h 9.07087v 2.40279h 9.07087v -3.01029h 9.07087v 1.2139h 9.07087v -1.3901h 9.07087v 2.63913h 9.07087v -2.83593h 9.07087v 2.94334h 9.07087v -3.77542h 9.07087v 3.69615h 9.07087v 3.07651h 9.07087v -2.78388h 9.07087v
 2.23045h 9.07087v -4.96541h 9.07087v 2.90251h 9.07087v -0.217031h 9.07087v 1.28214h 9.07087v -0.254919h 9.07087v -3.98289h 9.07087v 2.77377h 9.07087v -3.02354h 9.07087v 4.47249h 9.07087v -3.78351h 9.07087v 3.5891h 9.07087v -0.656611h 9.07087v
 -0.407761h 9.07087v 110.301h 9.07087v 194.565h 45.3543" fill="none" stroke="#000099"/>
<path d="M57.1929,368.291h 453.543" fill="none" stroke="black"/>
<path d="M57.1929,358.47v 9.82109" fill="none" stroke="black"/>
<path d="M68.5315,363.38v 4.91054" fill="none" stroke="black"/>
<path d="M79.8701,363.38v 4.91054" fill="none" stroke="black"/>
<path d="M91.2087,363.38v 4.91054" fill="none" stroke="black"/>
<path d="M102.547,363.38v 4.91054" fill="none" stroke="black"/>
<path d="M113.886,358.47v 9.82109" fill="none" stroke="black"/>
<path d="M125.224,363.38v 4.91054" fill="none" stroke="black"/>
<path d="M136.563,363.38v 4.91054" fill="none" stroke="black"/>
<path d="M147.902,363.38v 4.91054" fill="none" stroke="black"/>
<path d="M159.24,363.38v 4.91054" fill="none" stroke="black"/>
<path d="M170.579,358.47v 9.82109" fill="none" stroke="black"/>
<path d="M181.917,363.38v 4.91054" fill="none" stroke="black"/>
<path d="M193.256,363.38v 4.91054" fill="none" stroke="black"/>
<path d="M204.594,363.38v 4.91054" fill="none" stroke="black"/>
<path d="M215.933,363.38v 4.91054" fill="none" stroke="black"/>
<path d="M227.272,358.47v 9.82109" fill="none" stroke="black"/>
<path d="M238.61,363.38v 4.91054" fill="none" stroke="black"/>
<path d="M249.949,363.38v 4.91054" fill="none" stroke="black"/>
<path d="M261.287,363.38v 4.91054" fill="none" stroke="black"/>
<path d="M272.626,363.38v 4.91054" fill="none" stroke="black"/>
<path d="M283.965,358.47v 9.82109" fill="none" stroke="black"/>
<path d="M295.303,363.38v 4.91054" fill="none" stroke="black"/>
<path d="M306.642,363.38v 4.91054" fill="none" stroke="black"/>
<path d="M317.98,363.38v 4.91054" fill="none" stroke="black"/>
<path d="M329.319,363.38v 4.91054" fill="none" stroke="black"/>
<path d="M340.657,358.47v 9.82109" fill="none" stroke="black"/>
<path d="M351.996,363.38v 4.91054" fill="none" stroke="black"/>
<path d="M363.335,363.38v 4.91054" fill="none" stroke="black"/>
<path d="M374.673,363.38v 4.91054" fill="none" stroke="black"/>
<path d="M386.012,363.38v 4.91054" fill="none" stroke="black"/>
<path d="M397.35,358.47v 9.82109" fill="none" stroke="black"/>
<path d="M408.689,363.38v 4.91054" fill="none" stroke="black"/>
<path d="M420.028,363.38v 4.91054" fill="none" stroke="black"/>
<path d="M431.366,363.38v 4.91054" fill="none" stroke="black"/>
<path d="M442.705,363.38v 4.91054" fill="none" stroke="black"/>
<path d="M454.043,358.47v 9.82109" fill="none" stroke="black"/>
<path d="M465.382,363.38v 4.91054" fill="none" stroke="black"/>
<path d="M476.72,363.38v 4.91054" fill="none" stroke="black"/>
<path d="M488.059,363.38v 4.91054" fill="none" stroke="black"/>
<path d="M499.398,363.38v 4.91054" fill="none" stroke="black"/>
<path d="M510.736,358.47v 9.82109" fill="none" stroke="black"/>
<text xml:space="preserve" x="56.6246" y="381.505" fill="black" font-size="13.6398" font-family="Helvetica">4</text>
<text xml:space="preserve" x="48.8097" y="381.505" fill="black" font-size="13.6398" font-family="Times">&#8722;</text>
<text xml:space="preserve" x="113.46" y="381.505" fill="black" font-size="13.6398" font-family="Helvetica">3</text>
<text xml:space="preserve" x="105.645" y="381.505" fill="black" font-size="13.6398" font-family="Times">&#8722;</text>
<text xml:space="preserve" x="170.295" y="381.505" fill="black" font-size="13.6398" font-family="Helvetica">2</text>
<text xml:space="preserve" x="162.48" y="381.505" fill="black" font-size="13.6398" font-family="Times">&#8722;</text>
<text xml:space="preserve" x="227.84" y="381.505" fill="black" font-size="13.6398" font-family="Helvetica">1</text>
<text xml:space="preserve" x="220.736" y="381.505" fill="black" font-size="13.6398" font-family="Times">&#8722;</text>
<text xml:space="preserve" x="280.412" y="381.505" fill="black" font-size="13.6398" font-family="Helvetica">0</text>
<text xml:space="preserve" x="337.247" y="381.505" fill="black" font-size="13.6398" font-family="Helvetica">1</text>
<text xml:space="preserve" x="393.372" y="381.505" fill="black" font-size="13.6398" font-family="Helvetica">2</text>
<text xml:space="preserve" x="450.207" y="381.505" fill="black" font-size="13.6398" font-family="Helvetica">3</text>
<text xml:space="preserve" x="507.042" y="381.505" fill="black" font-size="13.6398" font-family="Helvetica">4</text>
<text xml:space="preserve" x="485.018" y="394.293" fill="black" font-size="13.6398" font-family="Helvetica"> phi </text>
<path d="M57.1929,368.291v -327.37" fill="none" stroke="black"/>
<path d="M70.7992,368.291h -13.6063" fill="none" stroke="black"/>
<path d="M63.9961,359.095h -6.80315" fill="none" stroke="black"/>
<path d="M63.9961,349.898h -6.80315" fill="none" stroke="black"/>
<path d="M63.9961,340.702h -6.80315" fill="none" stroke="black"/>
<path d="M70.7992,331.506h -13.6063" fill="none" stroke="black"/>
<path d="M63.9961,322.31h -6.80315" fill="none" stroke="black"/>
<path d="M63.9961,313.113h -6.80315" fill="none" stroke="black"/>
<path d="M63.9961,303.917h -6.80315" fill="none" stroke="black"/>
<path d="M70.7992,294.721h -13.6063" fill="none" stroke="black"/>
<path d="M63.9961,285.525h -6.80315" fill="none" stroke="black"/>
<path d="M63.9961,276.329h -6.80315" fill="none" stroke="black"/>
<path d="M63.9961,267.132h -6.80315" fill="none" stroke="black"/>
<path d="M70.7992,257.936h -13.6063" fill="none" stroke="black"/>
<path d="M63.9961,248.74h -6.80315" fill="none" stroke="black"/>
<path d="M63.9961,239.544h -6.80315" fill="none" stroke="black"/>
<path d="M63.9961,230.347h -6.80315" fill="none" stroke="black"/>
<path d="M70.7992,221.151h -13.6063" fill="none" stroke="black"/>
<path d="M63.9961,211.955h -6.80315" fill="none" stroke="black"/>
<path d="M63.9961,202.759h -6.80315" fill="none" stroke="black"/>
<path d="M63.9961,193.563h -6.80315" fill="none" stroke="black"/>
<path d="M70.7992,184.366h -13.6063" fill="none" stroke="black"/>
<path d="M63.9961,175.17h -6.80315" fill="none" stroke="black"/>
<path d="M63.9961,165.974h -6.80315" fill="none" stroke="black"/>
<path d="M63.9961,156.778h -6.80315" fill="none" stroke="black"/>
<path d="M70.7992,147.581h -13.6063" fill="none" stroke="black"/>
<path d="M63.9961,138.385h -6.80315" fill="none" stroke="black"/>
<path d="M63.9961,129.189h -6.80315" fill="none" stroke="black"/>
<path d="M63.9961,119.993h -6.80315" fill="none" stroke="black"/>
<path d="M70.7992,110.796h -13.6063" fill="none" stroke="black"/>
<path d="M63.9961,101.6h -6.80315" fill="none" stroke="black"/>
<path d="M63.9961,92.404h -6.80315" fill="none" stroke="black"/>
<path d="M63.9961,83.2078h -6.80315" fill="none" stroke="black"/>
<path d="M70.7992,74.0116h -13.6063" fill="none" stroke="black"/>
<path d="M70.7992,74.0116h -13.6063" fill="none" stroke="black"/>
<path d="M63.9961,64.8153h -6.80315" fill="none" stroke="black"/>
<path d="M63.9961,55.6191h -6.80315" fill="none" stroke="black"/>
<path d="M63.9961,46.4229h -6.80315" fill="none" stroke="black"/>
<text xml:space="preserve" x="46.6784" y="372.98" fill="black" font-size="13.6398" font-family="Helvetica">0</text>
<text xml:space="preserve" x="31.7593" y="336.037" fill="black" font-size="13.6398" font-family="Helvetica">200</text>
<text xml:space="preserve" x="31.7593" y="299.094" fill="black" font-size="13.6398" font-family="Helvetica">400</text>
<text xml:space="preserve" x="31.7593" y="262.862" fill="black" font-size="13.6398" font-family="Helvetica">600</text>
<text xml:space="preserve" x="31.7593" y="225.919" fill="black" font-size="13.6398" font-family="Helvetica">800</text>
<text xml:space="preserve" x="23.9444" y="188.976" fill="black" font-size="13.6398" font-family="Helvetica">1000</text>
<text xml:space="preserve" x="23.9444" y="152.034" fill="black" font-size="13.6398" font-family="Helvetica">1200</text>
<text xml:space="preserve" x="23.9444" y="115.091" fill="black" font-size="13.6398" font-family="Helvetica">1400</text>
<text xml:space="preserve" x="23.9444" y="78.8586" fill="black" font-size="13.6398" font-family="Helvetica">1600</text>
<text xml:space="preserve" x="79.3586" y="31.9697" fill="black" font-size="9.25989" font-family="Helvetica">3</text>
<text xml:space="preserve" x="64.4394" y="39.0741" fill="black" font-size="13.6398" font-family="Helvetica">10</text>
<text xml:space="preserve" x="56.6246" y="39.0741" fill="black" font-size="13.6398" font-family="Times">&#0215;</text>
<g transform="rotate(-90,11.867,89.5151)">
<text xml:space="preserve" x="11.867" y="89.5151" fill="black" font-size="13.6398" font-family="Helvetica"> Events </text>
</g>
<text xml:space="preserve" x="243.47" y="19.8923" fill="black" font-size="19.7796" font-family="Helvetica">Track phi</text>
<rect x="442.705" y="26.5988" width="113.386" height="65.4739" fill="white"/>
<path d="M442.705,92.0727h 113.386" fill="none" stroke="black"/>
<path d="M556.091,92.0727v -65.4739" fill="none" stroke="black"/>
<path d="M556.091,26.5988h -113.386" fill="none" stroke="black"/>
<path d="M442.705,26.5988v 65.4739" fill="none" stroke="black"/>
<text xml:space="preserve" x="467.968" y="38.3636" fill="black" font-size="14.3156" font-family="Helvetica">Track_phi</text>
<path d="M442.705,42.9673h 113.386" fill="none" stroke="black"/>
<text xml:space="preserve" x="448.076" y="54.7037" fill="black" font-size="9.04234" font-family="Helvetica">Entries </text>
<text xml:space="preserve" x="488.571" y="54.7037" fill="black" font-size="9.04234" font-family="Helvetica">   6.536832e+07</text>
<text xml:space="preserve" x="448.076" y="71.0438" fill="black" font-size="9.04234" font-family="Helvetica">Mean  </text>
<text xml:space="preserve" x="514.857" y="71.0438" fill="black" font-size="9.04234" font-family="Helvetica">0.005625</text>
<text xml:space="preserve" x="509.884" y="71.0438" fill="black" font-size="9.04234" font-family="Times">&#8722;</text>
<text xml:space="preserve" x="507.042" y="71.0438" fill="black" font-size="9.04234" font-family="Helvetica"> </text>
<text xml:space="preserve" x="448.076" y="87.3838" fill="black" font-size="9.04234" font-family="Helvetica">Std Dev   </text>
<text xml:space="preserve" x="524.092" y="87.3838" fill="black" font-size="9.04234" font-family="Helvetica">  1.815</text>
<text xml:space="preserve" x="243.47" y="19.8923" fill="black" font-size="19.7796" font-family="Helvetica">Track phi</text></svg>
