<?xml version="1.0" standalone="no"?>
<svg width="567.429" height="409.712" viewBox="0 0 567.429 409.712" xmlns="http://www.w3.org/2000/svg" shape-rendering="crispEdges">
<title>
H_track_pt.svg
</title>
<desc>
Creator: ROOT Version 6.22/02
CreationDate: Mon Sep 21 23:51:53 2020</desc>
<defs>
</defs>
<rect x="0.5" y="0" width="566.929" height="409.212" fill="white"/>
<rect x="57.1929" y="40.9212" width="453.543" height="327.37" fill="white"/>
<rect x="57.1929" y="40.9212" width="453.543" height="327.37" fill="none" stroke="black"/>
<path d="M57.1929,368.291h 36.2835v -85.8161h 9.07087v -204.27h 9.07087v -21.694h 9.07087v 18.4002h 9.07087v 20.0057h 9.07087v 15.7959h 9.07087v 19.0413h 9.07087v 16.9163h 9.07087v 14.8401h 9.07087v 13.5219h 9.07087v 12.1163h 9.07087v 11.709h
 9.07087v 10.8845h 9.07087v 9.92326h 9.07087v 8.88027h 9.07087v 8.51202h 9.07087v 8.05525h 9.07087v 6.96438h 9.07087v 6.9503h 9.07087v 6.03787h 9.07087v 5.99069h 9.07087v 5.17442h 9.07087v 4.81352h 9.07087v 4.64825h 9.07087v 4.0402h 9.07087v 3.9556h
 9.07087v 3.46957h 9.07087v 3.37783h 9.07087v 3.34795h 9.07087v 2.93142h 9.07087v 2.64173h 9.07087v 2.74131h 9.07087v 2.34812h 9.07087v 2.33433h 9.07087v 2.08357h 9.07087v 2.21403h 9.07087v 1.8655h 9.07087v 1.78684h 9.07087v 1.74902h 9.07087v
 1.61232h 9.07087v 1.62751h 9.07087v 1.58516h 9.07087v 1.56062h 9.07087v 1.25594h 9.07087v 1.27615h 9.07087v 1.29205h 9.07087v 31.5026z" fill="#00ffff"/>
<path d="M57.1929,368.291h 36.2835v -85.8161h 9.07087v -204.27h 9.07087v -21.694h 9.07087v 18.4002h 9.07087v 20.0057h 9.07087v 15.7959h 9.07087v 19.0413h 9.07087v 16.9163h 9.07087v 14.8401h 9.07087v 13.5219h 9.07087v 12.1163h 9.07087v 11.709h
 9.07087v 10.8845h 9.07087v 9.92326h 9.07087v 8.88027h 9.07087v 8.51202h 9.07087v 8.05525h 9.07087v 6.96438h 9.07087v 6.9503h 9.07087v 6.03787h 9.07087v 5.99069h 9.07087v 5.17442h 9.07087v 4.81352h 9.07087v 4.64825h 9.07087v 4.0402h 9.07087v 3.9556h
 9.07087v 3.46957h 9.07087v 3.37783h 9.07087v 3.34795h 9.07087v 2.93142h 9.07087v 2.64173h 9.07087v 2.74131h 9.07087v 2.34812h 9.07087v 2.33433h 9.07087v 2.08357h 9.07087v 2.21403h 9.07087v 1.8655h 9.07087v 1.78684h 9.07087v 1.74902h 9.07087v
 1.61232h 9.07087v 1.62751h 9.07087v 1.58516h 9.07087v 1.56062h 9.07087v 1.25594h 9.07087v 1.27615h 9.07087v 1.29205h 9.07087" fill="none" stroke="#000099"/>
<path d="M57.1929,368.291h 453.543" fill="none" stroke="black"/>
<path d="M57.1929,358.47v 9.82109" fill="none" stroke="black"/>
<path d="M77.8085,363.38v 4.91054" fill="none" stroke="black"/>
<path d="M98.4241,363.38v 4.91054" fill="none" stroke="black"/>
<path d="M119.04,363.38v 4.91054" fill="none" stroke="black"/>
<path d="M139.655,358.47v 9.82109" fill="none" stroke="black"/>
<path d="M160.271,363.38v 4.91054" fill="none" stroke="black"/>
<path d="M180.887,363.38v 4.91054" fill="none" stroke="black"/>
<path d="M201.502,363.38v 4.91054" fill="none" stroke="black"/>
<path d="M222.118,358.47v 9.82109" fill="none" stroke="black"/>
<path d="M242.733,363.38v 4.91054" fill="none" stroke="black"/>
<path d="M263.349,363.38v 4.91054" fill="none" stroke="black"/>
<path d="M283.965,363.38v 4.91054" fill="none" stroke="black"/>
<path d="M304.58,358.47v 9.82109" fill="none" stroke="black"/>
<path d="M325.196,363.38v 4.91054" fill="none" stroke="black"/>
<path d="M345.811,363.38v 4.91054" fill="none" stroke="black"/>
<path d="M366.427,363.38v 4.91054" fill="none" stroke="black"/>
<path d="M387.043,358.47v 9.82109" fill="none" stroke="black"/>
<path d="M407.658,363.38v 4.91054" fill="none" stroke="black"/>
<path d="M428.274,363.38v 4.91054" fill="none" stroke="black"/>
<path d="M448.889,363.38v 4.91054" fill="none" stroke="black"/>
<path d="M469.505,358.47v 9.82109" fill="none" stroke="black"/>
<path d="M469.505,358.47v 9.82109" fill="none" stroke="black"/>
<path d="M490.121,363.38v 4.91054" fill="none" stroke="black"/>
<path d="M510.736,363.38v 4.91054" fill="none" stroke="black"/>
<text xml:space="preserve" x="45.2576" y="381.505" fill="black" font-size="13.6398" font-family="Helvetica">400</text>
<text xml:space="preserve" x="127.668" y="381.505" fill="black" font-size="13.6398" font-family="Helvetica">600</text>
<text xml:space="preserve" x="210.079" y="381.505" fill="black" font-size="13.6398" font-family="Helvetica">800</text>
<text xml:space="preserve" x="289.648" y="381.505" fill="black" font-size="13.6398" font-family="Helvetica">1000</text>
<text xml:space="preserve" x="372.059" y="381.505" fill="black" font-size="13.6398" font-family="Helvetica">1200</text>
<text xml:space="preserve" x="454.47" y="381.505" fill="black" font-size="13.6398" font-family="Helvetica">1400</text>
<text xml:space="preserve" x="491.412" y="394.293" fill="black" font-size="13.6398" font-family="Helvetica"> pt </text>
<path d="M57.1929,368.291v -327.37" fill="none" stroke="black"/>
<path d="M70.7992,368.291h -13.6063" fill="none" stroke="black"/>
<path d="M63.9961,358.232h -6.80315" fill="none" stroke="black"/>
<path d="M63.9961,348.173h -6.80315" fill="none" stroke="black"/>
<path d="M63.9961,338.115h -6.80315" fill="none" stroke="black"/>
<path d="M63.9961,328.056h -6.80315" fill="none" stroke="black"/>
<path d="M70.7992,317.997h -13.6063" fill="none" stroke="black"/>
<path d="M63.9961,307.938h -6.80315" fill="none" stroke="black"/>
<path d="M63.9961,297.88h -6.80315" fill="none" stroke="black"/>
<path d="M63.9961,287.821h -6.80315" fill="none" stroke="black"/>
<path d="M63.9961,277.762h -6.80315" fill="none" stroke="black"/>
<path d="M70.7992,267.703h -13.6063" fill="none" stroke="black"/>
<path d="M63.9961,257.645h -6.80315" fill="none" stroke="black"/>
<path d="M63.9961,247.586h -6.80315" fill="none" stroke="black"/>
<path d="M63.9961,237.527h -6.80315" fill="none" stroke="black"/>
<path d="M63.9961,227.468h -6.80315" fill="none" stroke="black"/>
<path d="M70.7992,217.41h -13.6063" fill="none" stroke="black"/>
<path d="M63.9961,207.351h -6.80315" fill="none" stroke="black"/>
<path d="M63.9961,197.292h -6.80315" fill="none" stroke="black"/>
<path d="M63.9961,187.233h -6.80315" fill="none" stroke="black"/>
<path d="M63.9961,177.175h -6.80315" fill="none" stroke="black"/>
<path d="M70.7992,167.116h -13.6063" fill="none" stroke="black"/>
<path d="M63.9961,157.057h -6.80315" fill="none" stroke="black"/>
<path d="M63.9961,146.998h -6.80315" fill="none" stroke="black"/>
<path d="M63.9961,136.94h -6.80315" fill="none" stroke="black"/>
<path d="M63.9961,126.881h -6.80315" fill="none" stroke="black"/>
<path d="M70.7992,116.822h -13.6063" fill="none" stroke="black"/>
<path d="M63.9961,106.763h -6.80315" fill="none" stroke="black"/>
<path d="M63.9961,96.7045h -6.80315" fill="none" stroke="black"/>
<path d="M63.9961,86.6458h -6.80315" fill="none" stroke="black"/>
<path d="M63.9961,76.587h -6.80315" fill="none" stroke="black"/>
<path d="M70.7992,66.5282h -13.6063" fill="none" stroke="black"/>
<path d="M70.7992,66.5282h -13.6063" fill="none" stroke="black"/>
<path d="M63.9961,56.4695h -6.80315" fill="none" stroke="black"/>
<path d="M63.9961,46.4107h -6.80315" fill="none" stroke="black"/>
<text xml:space="preserve" x="46.6784" y="372.98" fill="black" font-size="13.6398" font-family="Helvetica">0</text>
<text xml:space="preserve" x="31.7593" y="322.539" fill="black" font-size="13.6398" font-family="Helvetica">500</text>
<text xml:space="preserve" x="23.9444" y="272.098" fill="black" font-size="13.6398" font-family="Helvetica">1000</text>
<text xml:space="preserve" x="23.9444" y="222.367" fill="black" font-size="13.6398" font-family="Helvetica">1500</text>
<text xml:space="preserve" x="23.9444" y="171.926" fill="black" font-size="13.6398" font-family="Helvetica">2000</text>
<text xml:space="preserve" x="23.9444" y="121.485" fill="black" font-size="13.6398" font-family="Helvetica">2500</text>
<text xml:space="preserve" x="23.9444" y="71.0438" fill="black" font-size="13.6398" font-family="Helvetica">3000</text>
<text xml:space="preserve" x="79.3586" y="31.9697" fill="black" font-size="9.25989" font-family="Helvetica">3</text>
<text xml:space="preserve" x="64.4394" y="39.0741" fill="black" font-size="13.6398" font-family="Helvetica">10</text>
<text xml:space="preserve" x="56.6246" y="39.0741" fill="black" font-size="13.6398" font-family="Times">&#0215;</text>
<g transform="rotate(-90,11.867,89.5151)">
<text xml:space="preserve" x="11.867" y="89.5151" fill="black" font-size="13.6398" font-family="Helvetica"> Events </text>
</g>
<text xml:space="preserve" x="247.732" y="19.8923" fill="black" font-size="19.7796" font-family="Helvetica">Track pt</text>
<rect x="442.705" y="26.5988" width="113.386" height="65.4739" fill="white"/>
<path d="M442.705,92.0727h 113.386" fill="none" stroke="black"/>
<path d="M556.091,92.0727v -65.4739" fill="none" stroke="black"/>
<path d="M556.091,26.5988h -113.386" fill="none" stroke="black"/>
<path d="M442.705,26.5988v 65.4739" fill="none" stroke="black"/>
<text xml:space="preserve" x="471.52" y="38.3636" fill="black" font-size="14.3156" font-family="Helvetica">Track_pt</text>
<path d="M442.705,42.9673h 113.386" fill="none" stroke="black"/>
<text xml:space="preserve" x="448.076" y="54.7037" fill="black" font-size="9.04234" font-family="Helvetica">Entries </text>
<text xml:space="preserve" x="488.571" y="54.7037" fill="black" font-size="9.04234" font-family="Helvetica">   6.536832e+07</text>
<text xml:space="preserve" x="448.076" y="71.0438" fill="black" font-size="9.04234" font-family="Helvetica">Mean  </text>
<text xml:space="preserve" x="524.092" y="71.0438" fill="black" font-size="9.04234" font-family="Helvetica">  810.8</text>
<text xml:space="preserve" x="448.076" y="87.3838" fill="black" font-size="9.04234" font-family="Helvetica">Std Dev   </text>
<text xml:space="preserve" x="524.092" y="87.3838" fill="black" font-size="9.04234" font-family="Helvetica">  254.5</text>
<text xml:space="preserve" x="247.732" y="19.8923" fill="black" font-size="19.7796" font-family="Helvetica">Track pt</text></svg>
