<?xml version="1.0" standalone="no"?>
<svg width="567.429" height="409.712" viewBox="0 0 567.429 409.712" xmlns="http://www.w3.org/2000/svg" shape-rendering="crispEdges">
<title>
H_track_m.svg
</title>
<desc>
Creator: ROOT Version 6.22/02
CreationDate: Mon Sep 21 23:51:53 2020</desc>
<defs>
</defs>
<rect x="0.5" y="0" width="566.929" height="409.212" fill="white"/>
<rect x="57.1929" y="40.9212" width="453.543" height="327.37" fill="white"/>
<rect x="57.1929" y="40.9212" width="453.543" height="327.37" fill="none" stroke="black"/>
<path d="M57.1929,368.291v -0.000185836h 9.07087v -0.000315921h 18.1417v -5.57507e-05h 9.07087v -0.000501756h 9.07087v -9.29178e-05h 9.07087v -0.000706176h 9.07087v 0.000130085h 9.07087v -0.000446006h 9.07087v -0.000223003h 9.07087v -0.000111501h
 9.07087v -0.000204419h 9.07087v -0.000929179h 9.07087v -0.000483173h 9.07087v -0.000148669h 9.07087v -0.000576091h 9.07087v -0.000464589h 9.07087v -0.000947762h 9.07087v -0.00130085h 9.07087v -0.000204419h 9.07087v -0.00139377h 9.07087v -0.00250878h
 9.07087v -0.00239728h 9.07087v -0.00208136h 9.07087v -0.00308487h 9.07087v -0.00217428h 9.07087v -0.00501756h 9.07087v -0.0036238h 9.07087v -0.00657858h 9.07087v -0.00789802h 9.07087v -0.026017h 9.07087v -0.0471837h 9.07087v -0.151047h 9.07087v
 -0.244746h 9.07087v -311.267h 9.07087v 307.907h 9.07087v 3.43006h 9.07087v 0.229786h 9.07087v 0.115869h 9.07087v 0.0429838h 9.07087v 0.00767501h 9.07087v 0.0053149h 9.07087v 0.00637416h 9.07087v 0.00600249h 9.07087v 0.00674584h 9.07087v 0.00696884h
 9.07087v 0.0024902h 9.07087v 0.00117076h 9.07087v 0.0029362h 9.07087v 0.000613258h 9.07087v 0.00825111z" fill="#00ffff"/>
<path d="M57.1929,368.291h 9.07087v -0.000315921h 18.1417v -5.57507e-05h 9.07087v -0.000501756h 9.07087v -9.29178e-05h 9.07087v -0.000706176h 9.07087v 0.000130085h 9.07087v -0.000446006h 9.07087v -0.000223003h 9.07087v -0.000111501h 9.07087v
 -0.000204419h 9.07087v -0.000929179h 9.07087v -0.000483173h 9.07087v -0.000148669h 9.07087v -0.000576091h 9.07087v -0.000464589h 9.07087v -0.000947762h 9.07087v -0.00130085h 9.07087v -0.000204419h 9.07087v -0.00139377h 9.07087v -0.00250878h 9.07087v
 -0.00239728h 9.07087v -0.00208136h 9.07087v -0.00308487h 9.07087v -0.00217428h 9.07087v -0.00501756h 9.07087v -0.0036238h 9.07087v -0.00657858h 9.07087v -0.00789802h 9.07087v -0.026017h 9.07087v -0.0471837h 9.07087v -0.151047h 9.07087v -0.244746h
 9.07087v -311.267h 9.07087v 307.907h 9.07087v 3.43006h 9.07087v 0.229786h 9.07087v 0.115869h 9.07087v 0.0429838h 9.07087v 0.00767501h 9.07087v 0.0053149h 9.07087v 0.00637416h 9.07087v 0.00600249h 9.07087v 0.00674584h 9.07087v 0.00696884h 9.07087v
 0.0024902h 9.07087v 0.00117076h 9.07087v 0.0029362h 9.07087v 0.000613258h 9.07087" fill="none" stroke="#000099"/>
<path d="M57.1929,368.291h 453.543" fill="none" stroke="black"/>
<path d="M57.1929,358.47v 9.82109" fill="none" stroke="black"/>
<path d="M68.5315,363.38v 4.91054" fill="none" stroke="black"/>
<path d="M79.8701,363.38v 4.91054" fill="none" stroke="black"/>
<path d="M91.2087,363.38v 4.91054" fill="none" stroke="black"/>
<path d="M102.547,358.47v 9.82109" fill="none" stroke="black"/>
<path d="M113.886,363.38v 4.91054" fill="none" stroke="black"/>
<path d="M125.224,363.38v 4.91054" fill="none" stroke="black"/>
<path d="M136.563,363.38v 4.91054" fill="none" stroke="black"/>
<path d="M147.902,358.47v 9.82109" fill="none" stroke="black"/>
<path d="M159.24,363.38v 4.91054" fill="none" stroke="black"/>
<path d="M170.579,363.38v 4.91054" fill="none" stroke="black"/>
<path d="M181.917,363.38v 4.91054" fill="none" stroke="black"/>
<path d="M193.256,358.47v 9.82109" fill="none" stroke="black"/>
<path d="M204.594,363.38v 4.91054" fill="none" stroke="black"/>
<path d="M215.933,363.38v 4.91054" fill="none" stroke="black"/>
<path d="M227.272,363.38v 4.91054" fill="none" stroke="black"/>
<path d="M238.61,358.47v 9.82109" fill="none" stroke="black"/>
<path d="M249.949,363.38v 4.91054" fill="none" stroke="black"/>
<path d="M261.287,363.38v 4.91054" fill="none" stroke="black"/>
<path d="M272.626,363.38v 4.91054" fill="none" stroke="black"/>
<path d="M283.965,358.47v 9.82109" fill="none" stroke="black"/>
<path d="M295.303,363.38v 4.91054" fill="none" stroke="black"/>
<path d="M306.642,363.38v 4.91054" fill="none" stroke="black"/>
<path d="M317.98,363.38v 4.91054" fill="none" stroke="black"/>
<path d="M329.319,358.47v 9.82109" fill="none" stroke="black"/>
<path d="M340.657,363.38v 4.91054" fill="none" stroke="black"/>
<path d="M351.996,363.38v 4.91054" fill="none" stroke="black"/>
<path d="M363.335,363.38v 4.91054" fill="none" stroke="black"/>
<path d="M374.673,358.47v 9.82109" fill="none" stroke="black"/>
<path d="M386.012,363.38v 4.91054" fill="none" stroke="black"/>
<path d="M397.35,363.38v 4.91054" fill="none" stroke="black"/>
<path d="M408.689,363.38v 4.91054" fill="none" stroke="black"/>
<path d="M420.028,358.47v 9.82109" fill="none" stroke="black"/>
<path d="M431.366,363.38v 4.91054" fill="none" stroke="black"/>
<path d="M442.705,363.38v 4.91054" fill="none" stroke="black"/>
<path d="M454.043,363.38v 4.91054" fill="none" stroke="black"/>
<path d="M465.382,358.47v 9.82109" fill="none" stroke="black"/>
<path d="M476.72,363.38v 4.91054" fill="none" stroke="black"/>
<path d="M488.059,363.38v 4.91054" fill="none" stroke="black"/>
<path d="M499.398,363.38v 4.91054" fill="none" stroke="black"/>
<path d="M510.736,358.47v 9.82109" fill="none" stroke="black"/>
<text xml:space="preserve" x="53.0724" y="381.505" fill="black" font-size="13.6398" font-family="Helvetica">0</text>
<text xml:space="preserve" x="94.2777" y="381.505" fill="black" font-size="13.6398" font-family="Helvetica">20</text>
<text xml:space="preserve" x="139.746" y="381.505" fill="black" font-size="13.6398" font-family="Helvetica">40</text>
<text xml:space="preserve" x="185.214" y="381.505" fill="black" font-size="13.6398" font-family="Helvetica">60</text>
<text xml:space="preserve" x="230.682" y="381.505" fill="black" font-size="13.6398" font-family="Helvetica">80</text>
<text xml:space="preserve" x="272.598" y="381.505" fill="black" font-size="13.6398" font-family="Helvetica">100</text>
<text xml:space="preserve" x="317.355" y="381.505" fill="black" font-size="13.6398" font-family="Helvetica">120</text>
<text xml:space="preserve" x="362.823" y="381.505" fill="black" font-size="13.6398" font-family="Helvetica">140</text>
<text xml:space="preserve" x="408.291" y="381.505" fill="black" font-size="13.6398" font-family="Helvetica">160</text>
<text xml:space="preserve" x="453.759" y="381.505" fill="black" font-size="13.6398" font-family="Helvetica">180</text>
<text xml:space="preserve" x="499.227" y="381.505" fill="black" font-size="13.6398" font-family="Helvetica">200</text>
<text xml:space="preserve" x="492.123" y="395.003" fill="black" font-size="13.6398" font-family="Helvetica"> m </text>
<path d="M57.1929,368.291v -327.37" fill="none" stroke="black"/>
<path d="M70.7992,368.291h -13.6063" fill="none" stroke="black"/>
<path d="M63.9961,358.999h -6.80315" fill="none" stroke="black"/>
<path d="M63.9961,349.707h -6.80315" fill="none" stroke="black"/>
<path d="M63.9961,340.415h -6.80315" fill="none" stroke="black"/>
<path d="M70.7992,331.124h -13.6063" fill="none" stroke="black"/>
<path d="M63.9961,321.832h -6.80315" fill="none" stroke="black"/>
<path d="M63.9961,312.54h -6.80315" fill="none" stroke="black"/>
<path d="M63.9961,303.248h -6.80315" fill="none" stroke="black"/>
<path d="M70.7992,293.957h -13.6063" fill="none" stroke="black"/>
<path d="M63.9961,284.665h -6.80315" fill="none" stroke="black"/>
<path d="M63.9961,275.373h -6.80315" fill="none" stroke="black"/>
<path d="M63.9961,266.081h -6.80315" fill="none" stroke="black"/>
<path d="M70.7992,256.789h -13.6063" fill="none" stroke="black"/>
<path d="M63.9961,247.498h -6.80315" fill="none" stroke="black"/>
<path d="M63.9961,238.206h -6.80315" fill="none" stroke="black"/>
<path d="M63.9961,228.914h -6.80315" fill="none" stroke="black"/>
<path d="M70.7992,219.622h -13.6063" fill="none" stroke="black"/>
<path d="M63.9961,210.33h -6.80315" fill="none" stroke="black"/>
<path d="M63.9961,201.039h -6.80315" fill="none" stroke="black"/>
<path d="M63.9961,191.747h -6.80315" fill="none" stroke="black"/>
<path d="M70.7992,182.455h -13.6063" fill="none" stroke="black"/>
<path d="M63.9961,173.163h -6.80315" fill="none" stroke="black"/>
<path d="M63.9961,163.872h -6.80315" fill="none" stroke="black"/>
<path d="M63.9961,154.58h -6.80315" fill="none" stroke="black"/>
<path d="M70.7992,145.288h -13.6063" fill="none" stroke="black"/>
<path d="M63.9961,135.996h -6.80315" fill="none" stroke="black"/>
<path d="M63.9961,126.704h -6.80315" fill="none" stroke="black"/>
<path d="M63.9961,117.413h -6.80315" fill="none" stroke="black"/>
<path d="M70.7992,108.121h -13.6063" fill="none" stroke="black"/>
<path d="M63.9961,98.829h -6.80315" fill="none" stroke="black"/>
<path d="M63.9961,89.5373h -6.80315" fill="none" stroke="black"/>
<path d="M63.9961,80.2455h -6.80315" fill="none" stroke="black"/>
<path d="M70.7992,70.9537h -13.6063" fill="none" stroke="black"/>
<path d="M70.7992,70.9537h -13.6063" fill="none" stroke="black"/>
<path d="M63.9961,61.6619h -6.80315" fill="none" stroke="black"/>
<path d="M63.9961,52.3701h -6.80315" fill="none" stroke="black"/>
<path d="M63.9961,43.0783h -6.80315" fill="none" stroke="black"/>
<text xml:space="preserve" x="46.6784" y="372.98" fill="black" font-size="13.6398" font-family="Helvetica">0</text>
<text xml:space="preserve" x="46.6784" y="336.747" fill="black" font-size="13.6398" font-family="Helvetica">2</text>
<text xml:space="preserve" x="46.6784" y="299.094" fill="black" font-size="13.6398" font-family="Helvetica">4</text>
<text xml:space="preserve" x="46.6784" y="261.441" fill="black" font-size="13.6398" font-family="Helvetica">6</text>
<text xml:space="preserve" x="46.6784" y="224.498" fill="black" font-size="13.6398" font-family="Helvetica">8</text>
<text xml:space="preserve" x="38.8636" y="186.845" fill="black" font-size="13.6398" font-family="Helvetica">10</text>
<text xml:space="preserve" x="38.8636" y="150.613" fill="black" font-size="13.6398" font-family="Helvetica">12</text>
<text xml:space="preserve" x="38.8636" y="113.67" fill="black" font-size="13.6398" font-family="Helvetica">14</text>
<text xml:space="preserve" x="38.8636" y="75.3064" fill="black" font-size="13.6398" font-family="Helvetica">16</text>
<text xml:space="preserve" x="79.3586" y="31.9697" fill="black" font-size="9.25989" font-family="Helvetica">6</text>
<text xml:space="preserve" x="64.4394" y="39.0741" fill="black" font-size="13.6398" font-family="Helvetica">10</text>
<text xml:space="preserve" x="56.6246" y="39.0741" fill="black" font-size="13.6398" font-family="Times">&#0215;</text>
<g transform="rotate(-90,26.7862,89.5151)">
<text xml:space="preserve" x="26.7862" y="89.5151" fill="black" font-size="13.6398" font-family="Helvetica"> Events </text>
</g>
<text xml:space="preserve" x="251.995" y="19.8923" fill="black" font-size="18.0511" font-family="Helvetica">Track m</text>
<rect x="442.705" y="26.5988" width="113.386" height="65.4739" fill="white"/>
<path d="M442.705,92.0727h 113.386" fill="none" stroke="black"/>
<path d="M556.091,92.0727v -65.4739" fill="none" stroke="black"/>
<path d="M556.091,26.5988h -113.386" fill="none" stroke="black"/>
<path d="M442.705,26.5988v 65.4739" fill="none" stroke="black"/>
<text xml:space="preserve" x="471.52" y="38.3636" fill="black" font-size="14.3156" font-family="Helvetica">Track_m</text>
<path d="M442.705,42.9673h 113.386" fill="none" stroke="black"/>
<text xml:space="preserve" x="448.076" y="54.7037" fill="black" font-size="9.04234" font-family="Helvetica">Entries </text>
<text xml:space="preserve" x="488.571" y="54.7037" fill="black" font-size="9.04234" font-family="Helvetica">   6.536832e+07</text>
<text xml:space="preserve" x="448.076" y="71.0438" fill="black" font-size="9.04234" font-family="Helvetica">Mean  </text>
<text xml:space="preserve" x="524.092" y="71.0438" fill="black" font-size="9.04234" font-family="Helvetica">  139.6</text>
<text xml:space="preserve" x="448.076" y="87.3838" fill="black" font-size="9.04234" font-family="Helvetica">Std Dev   </text>
<text xml:space="preserve" x="521.961" y="87.3838" fill="black" font-size="9.04234" font-family="Helvetica"> 0.9967</text>
<text xml:space="preserve" x="251.995" y="19.8923" fill="black" font-size="18.0511" font-family="Helvetica">Track m</text></svg>
