<?xml version="1.0" standalone="no"?>
<svg width="567.429" height="409.712" viewBox="0 0 567.429 409.712" xmlns="http://www.w3.org/2000/svg" shape-rendering="crispEdges">
<title>
cutflow.svg
</title>
<desc>
Creator: ROOT Version 6.22/02
CreationDate: Fri Oct 16 22:52:27 2020</desc>
<defs>
</defs>
<rect x="0.5" y="0" width="566.929" height="409.212" fill="white"/>
<rect x="57.1929" y="40.9212" width="453.543" height="327.37" fill="white"/>
<rect x="57.1929" y="40.9212" width="453.543" height="327.37" fill="none" stroke="black"/>
<path d="M57.1929,368.291h 45.3543v -304.003h 90.7087v 8.76063h 45.3543v 191.171h 45.3543v 0.187934h 45.3543v 63.5983h 45.3543v 8.52605h 45.3543v 6.41572h 45.3543v 25.3432h 45.3543z" fill="#00ffff"/>
<path d="M57.1929,368.291h 45.3543v -304.003h 90.7087v 8.76063h 45.3543v 191.171h 45.3543v 0.187934h 45.3543v 63.5983h 45.3543v 8.52605h 45.3543v 6.41572h 45.3543v 25.3432h 45.3543" fill="none" stroke="#000099"/>
<path d="M57.1929,368.291h 453.543" fill="none" stroke="black"/>
<path d="M57.1929,358.47v 9.82109" fill="none" stroke="black"/>
<path d="M66.2638,363.38v 4.91054" fill="none" stroke="black"/>
<path d="M75.3346,363.38v 4.91054" fill="none" stroke="black"/>
<path d="M84.4055,363.38v 4.91054" fill="none" stroke="black"/>
<path d="M93.4764,363.38v 4.91054" fill="none" stroke="black"/>
<path d="M102.547,358.47v 9.82109" fill="none" stroke="black"/>
<path d="M111.618,363.38v 4.91054" fill="none" stroke="black"/>
<path d="M120.689,363.38v 4.91054" fill="none" stroke="black"/>
<path d="M129.76,363.38v 4.91054" fill="none" stroke="black"/>
<path d="M138.831,363.38v 4.91054" fill="none" stroke="black"/>
<path d="M147.902,358.47v 9.82109" fill="none" stroke="black"/>
<path d="M156.972,363.38v 4.91054" fill="none" stroke="black"/>
<path d="M166.043,363.38v 4.91054" fill="none" stroke="black"/>
<path d="M175.114,363.38v 4.91054" fill="none" stroke="black"/>
<path d="M184.185,363.38v 4.91054" fill="none" stroke="black"/>
<path d="M193.256,358.47v 9.82109" fill="none" stroke="black"/>
<path d="M202.327,363.38v 4.91054" fill="none" stroke="black"/>
<path d="M211.398,363.38v 4.91054" fill="none" stroke="black"/>
<path d="M220.469,363.38v 4.91054" fill="none" stroke="black"/>
<path d="M229.539,363.38v 4.91054" fill="none" stroke="black"/>
<path d="M238.61,358.47v 9.82109" fill="none" stroke="black"/>
<path d="M247.681,363.38v 4.91054" fill="none" stroke="black"/>
<path d="M256.752,363.38v 4.91054" fill="none" stroke="black"/>
<path d="M265.823,363.38v 4.91054" fill="none" stroke="black"/>
<path d="M274.894,363.38v 4.91054" fill="none" stroke="black"/>
<path d="M283.965,358.47v 9.82109" fill="none" stroke="black"/>
<path d="M293.035,363.38v 4.91054" fill="none" stroke="black"/>
<path d="M302.106,363.38v 4.91054" fill="none" stroke="black"/>
<path d="M311.177,363.38v 4.91054" fill="none" stroke="black"/>
<path d="M320.248,363.38v 4.91054" fill="none" stroke="black"/>
<path d="M329.319,358.47v 9.82109" fill="none" stroke="black"/>
<path d="M338.39,363.38v 4.91054" fill="none" stroke="black"/>
<path d="M347.461,363.38v 4.91054" fill="none" stroke="black"/>
<path d="M356.531,363.38v 4.91054" fill="none" stroke="black"/>
<path d="M365.602,363.38v 4.91054" fill="none" stroke="black"/>
<path d="M374.673,358.47v 9.82109" fill="none" stroke="black"/>
<path d="M383.744,363.38v 4.91054" fill="none" stroke="black"/>
<path d="M392.815,363.38v 4.91054" fill="none" stroke="black"/>
<path d="M401.886,363.38v 4.91054" fill="none" stroke="black"/>
<path d="M410.957,363.38v 4.91054" fill="none" stroke="black"/>
<path d="M420.028,358.47v 9.82109" fill="none" stroke="black"/>
<path d="M429.098,363.38v 4.91054" fill="none" stroke="black"/>
<path d="M438.169,363.38v 4.91054" fill="none" stroke="black"/>
<path d="M447.24,363.38v 4.91054" fill="none" stroke="black"/>
<path d="M456.311,363.38v 4.91054" fill="none" stroke="black"/>
<path d="M465.382,358.47v 9.82109" fill="none" stroke="black"/>
<path d="M474.453,363.38v 4.91054" fill="none" stroke="black"/>
<path d="M483.524,363.38v 4.91054" fill="none" stroke="black"/>
<path d="M492.594,363.38v 4.91054" fill="none" stroke="black"/>
<path d="M501.665,363.38v 4.91054" fill="none" stroke="black"/>
<path d="M510.736,358.47v 9.82109" fill="none" stroke="black"/>
<text xml:space="preserve" x="53.0724" y="381.505" fill="black" font-size="13.6398" font-family="Helvetica">0</text>
<text xml:space="preserve" x="99.2508" y="381.505" fill="black" font-size="13.6398" font-family="Helvetica">1</text>
<text xml:space="preserve" x="144.008" y="381.505" fill="black" font-size="13.6398" font-family="Helvetica">2</text>
<text xml:space="preserve" x="189.476" y="381.505" fill="black" font-size="13.6398" font-family="Helvetica">3</text>
<text xml:space="preserve" x="234.944" y="381.505" fill="black" font-size="13.6398" font-family="Helvetica">4</text>
<text xml:space="preserve" x="280.412" y="381.505" fill="black" font-size="13.6398" font-family="Helvetica">5</text>
<text xml:space="preserve" x="325.17" y="381.505" fill="black" font-size="13.6398" font-family="Helvetica">6</text>
<text xml:space="preserve" x="370.638" y="381.505" fill="black" font-size="13.6398" font-family="Helvetica">7</text>
<text xml:space="preserve" x="416.106" y="381.505" fill="black" font-size="13.6398" font-family="Helvetica">8</text>
<text xml:space="preserve" x="461.574" y="381.505" fill="black" font-size="13.6398" font-family="Helvetica">9</text>
<text xml:space="preserve" x="502.779" y="381.505" fill="black" font-size="13.6398" font-family="Helvetica">10</text>
<text xml:space="preserve" x="485.729" y="396.424" fill="black" font-size="13.6398" font-family="Helvetica"> Cut</text>
<path d="M57.1929,368.291v -327.37" fill="none" stroke="black"/>
<path d="M63.9961,364.332h -6.80315" fill="none" stroke="black"/>
<path d="M63.9961,356.173h -6.80315" fill="none" stroke="black"/>
<path d="M63.9961,349.507h -6.80315" fill="none" stroke="black"/>
<path d="M63.9961,343.871h -6.80315" fill="none" stroke="black"/>
<path d="M63.9961,338.989h -6.80315" fill="none" stroke="black"/>
<path d="M63.9961,334.682h -6.80315" fill="none" stroke="black"/>
<path d="M70.7992,330.83h -13.6063" fill="none" stroke="black"/>
<text xml:space="preserve" x="47.3889" y="331.064" fill="black" font-size="9.25989" font-family="Helvetica">4</text>
<text xml:space="preserve" x="32.4697" y="336.747" fill="black" font-size="13.6398" font-family="Helvetica">10</text>
<path d="M63.9961,305.487h -6.80315" fill="none" stroke="black"/>
<path d="M63.9961,290.662h -6.80315" fill="none" stroke="black"/>
<path d="M63.9961,280.144h -6.80315" fill="none" stroke="black"/>
<path d="M63.9961,271.985h -6.80315" fill="none" stroke="black"/>
<path d="M63.9961,265.319h -6.80315" fill="none" stroke="black"/>
<path d="M63.9961,259.683h -6.80315" fill="none" stroke="black"/>
<path d="M63.9961,254.8h -6.80315" fill="none" stroke="black"/>
<path d="M63.9961,250.494h -6.80315" fill="none" stroke="black"/>
<path d="M70.7992,246.642h -13.6063" fill="none" stroke="black"/>
<text xml:space="preserve" x="47.3889" y="246.522" fill="black" font-size="9.25989" font-family="Helvetica">5</text>
<text xml:space="preserve" x="32.4697" y="252.916" fill="black" font-size="13.6398" font-family="Helvetica">10</text>
<path d="M63.9961,221.299h -6.80315" fill="none" stroke="black"/>
<path d="M63.9961,206.474h -6.80315" fill="none" stroke="black"/>
<path d="M63.9961,195.955h -6.80315" fill="none" stroke="black"/>
<path d="M63.9961,187.797h -6.80315" fill="none" stroke="black"/>
<path d="M63.9961,181.131h -6.80315" fill="none" stroke="black"/>
<path d="M63.9961,175.494h -6.80315" fill="none" stroke="black"/>
<path d="M63.9961,170.612h -6.80315" fill="none" stroke="black"/>
<path d="M63.9961,166.306h -6.80315" fill="none" stroke="black"/>
<path d="M70.7992,162.453h -13.6063" fill="none" stroke="black"/>
<text xml:space="preserve" x="47.3889" y="161.98" fill="black" font-size="9.25989" font-family="Helvetica">6</text>
<text xml:space="preserve" x="32.4697" y="168.374" fill="black" font-size="13.6398" font-family="Helvetica">10</text>
<path d="M63.9961,137.11h -6.80315" fill="none" stroke="black"/>
<path d="M63.9961,122.285h -6.80315" fill="none" stroke="black"/>
<path d="M63.9961,111.767h -6.80315" fill="none" stroke="black"/>
<path d="M63.9961,103.608h -6.80315" fill="none" stroke="black"/>
<path d="M63.9961,96.9423h -6.80315" fill="none" stroke="black"/>
<path d="M63.9961,91.3061h -6.80315" fill="none" stroke="black"/>
<path d="M63.9961,86.4239h -6.80315" fill="none" stroke="black"/>
<path d="M63.9961,82.1175h -6.80315" fill="none" stroke="black"/>
<path d="M70.7992,78.2652h -13.6063" fill="none" stroke="black"/>
<text xml:space="preserve" x="47.3889" y="78.8586" fill="black" font-size="9.25989" font-family="Helvetica">7</text>
<text xml:space="preserve" x="32.4697" y="84.5421" fill="black" font-size="13.6398" font-family="Helvetica">10</text>
<path d="M63.9961,52.922h -6.80315" fill="none" stroke="black"/>
<g transform="rotate(-90,21.8131,85.2525)">
<text xml:space="preserve" x="21.8131" y="85.2525" fill="black" font-size="13.6398" font-family="Helvetica"> Events</text>
</g>
<text xml:space="preserve" x="254.126" y="19.8923" fill="black" font-size="18.0511" font-family="Helvetica">Cutflow</text>
<rect x="442.705" y="26.5988" width="113.386" height="65.4739" fill="white"/>
<path d="M442.705,92.0727h 113.386" fill="none" stroke="black"/>
<path d="M556.091,92.0727v -65.4739" fill="none" stroke="black"/>
<path d="M556.091,26.5988h -113.386" fill="none" stroke="black"/>
<path d="M442.705,26.5988v 65.4739" fill="none" stroke="black"/>
<text xml:space="preserve" x="475.072" y="39.7845" fill="black" font-size="14.3156" font-family="Helvetica">Cutflow</text>
<path d="M442.705,42.9673h 113.386" fill="none" stroke="black"/>
<text xml:space="preserve" x="448.076" y="54.7037" fill="black" font-size="9.04234" font-family="Helvetica">Entries </text>
<text xml:space="preserve" x="488.571" y="54.7037" fill="black" font-size="9.04234" font-family="Helvetica">   4.099646e+07</text>
<text xml:space="preserve" x="448.076" y="71.0438" fill="black" font-size="9.04234" font-family="Helvetica">Mean  </text>
<text xml:space="preserve" x="524.092" y="71.0438" fill="black" font-size="9.04234" font-family="Helvetica">  1.934</text>
<text xml:space="preserve" x="448.076" y="87.3838" fill="black" font-size="9.04234" font-family="Helvetica">Std Dev   </text>
<text xml:space="preserve" x="521.961" y="87.3838" fill="black" font-size="9.04234" font-family="Helvetica"> 0.8184</text>
<text xml:space="preserve" x="254.126" y="19.8923" fill="black" font-size="18.0511" font-family="Helvetica">Cutflow</text></svg>
