<?xml version="1.0" standalone="no"?>
<svg width="567.429" height="409.712" viewBox="0 0 567.429 409.712" xmlns="http://www.w3.org/2000/svg" shape-rendering="crispEdges">
<title>
hist_jet_pt.svg
</title>
<desc>
Creator: ROOT Version 6.22/02
CreationDate: Fri Oct 16 22:52:27 2020</desc>
<defs>
</defs>
<rect x="0.5" y="0" width="566.929" height="409.212" fill="white"/>
<rect x="57.1929" y="40.9212" width="453.543" height="327.37" fill="white"/>
<rect x="57.1929" y="40.9212" width="453.543" height="327.37" fill="none" stroke="black"/>
<path d="M57.1929,368.291h 9.07087v -311.058h 9.07087v 8.82417h 9.07087v 14.4336h 9.07087v 13.3413h 9.07087v 12.6923h 9.07087v 12.2188h 9.07087v 10.7914h 9.07087v 10.4884h 9.07087v 10.3055h 9.07087v 9.72273h 9.07087v 7.50383h 9.07087v 9.08674h
 9.07087v 6.82548h 9.07087v 7.12415h 9.07087v 8.52996h 9.07087v 6.24135h 9.07087v 4.20897h 9.07087v 6.97246h 9.07087v 15.029h 9.07087v -0.945418h 9.07087v 6.88272h 9.07087v 7.75099h 9.07087v 4.48932h 9.07087v 3.6902h 9.07087v 12.1098h 9.07087v
 -1.76093h 9.07087v 2.68915h 9.07087v 18.6547h 9.07087v 4.26378h 9.07087v -4.26378h 9.07087v 12.3918h 9.07087v 11.9961h 9.07087v -8.5879h 9.07087v 49.6662h 9.07087v -17.6914h 9.07087v 35.3829h 9.07087v -35.3829h 9.07087v -28.0403h 9.07087v 4.65346h
 9.07087v 41.0783h 18.1417v -28.0403h 9.07087v 45.7317h 9.07087v -17.6914h 9.07087v -28.0403h 18.1417v 28.0403h 9.07087v 17.6914h 18.1417z" fill="#00ffff"/>
<path d="M57.1929,368.291h 9.07087v -311.058h 9.07087v 8.82417h 9.07087v 14.4336h 9.07087v 13.3413h 9.07087v 12.6923h 9.07087v 12.2188h 9.07087v 10.7914h 9.07087v 10.4884h 9.07087v 10.3055h 9.07087v 9.72273h 9.07087v 7.50383h 9.07087v 9.08674h
 9.07087v 6.82548h 9.07087v 7.12415h 9.07087v 8.52996h 9.07087v 6.24135h 9.07087v 4.20897h 9.07087v 6.97246h 9.07087v 15.029h 9.07087v -0.945418h 9.07087v 6.88272h 9.07087v 7.75099h 9.07087v 4.48932h 9.07087v 3.6902h 9.07087v 12.1098h 9.07087v
 -1.76093h 9.07087v 2.68915h 9.07087v 18.6547h 9.07087v 4.26378h 9.07087v -4.26378h 9.07087v 12.3918h 9.07087v 11.9961h 9.07087v -8.5879h 9.07087v 49.6662h 9.07087v -17.6914h 9.07087v 35.3829h 9.07087v -35.3829h 9.07087v -28.0403h 9.07087v 4.65346h
 9.07087v 41.0783h 18.1417v -28.0403h 9.07087v 45.7317h 9.07087v -17.6914h 9.07087v -28.0403h 18.1417v 28.0403h 9.07087v 17.6914h 18.1417" fill="none" stroke="#000099"/>
<path d="M57.1929,368.291h 453.543" fill="none" stroke="black"/>
<path d="M57.1929,358.47v 9.82109" fill="none" stroke="black"/>
<path d="M66.2638,363.38v 4.91054" fill="none" stroke="black"/>
<path d="M75.3346,363.38v 4.91054" fill="none" stroke="black"/>
<path d="M84.4055,363.38v 4.91054" fill="none" stroke="black"/>
<path d="M93.4764,363.38v 4.91054" fill="none" stroke="black"/>
<path d="M102.547,358.47v 9.82109" fill="none" stroke="black"/>
<path d="M111.618,363.38v 4.91054" fill="none" stroke="black"/>
<path d="M120.689,363.38v 4.91054" fill="none" stroke="black"/>
<path d="M129.76,363.38v 4.91054" fill="none" stroke="black"/>
<path d="M138.831,363.38v 4.91054" fill="none" stroke="black"/>
<path d="M147.902,358.47v 9.82109" fill="none" stroke="black"/>
<path d="M156.972,363.38v 4.91054" fill="none" stroke="black"/>
<path d="M166.043,363.38v 4.91054" fill="none" stroke="black"/>
<path d="M175.114,363.38v 4.91054" fill="none" stroke="black"/>
<path d="M184.185,363.38v 4.91054" fill="none" stroke="black"/>
<path d="M193.256,358.47v 9.82109" fill="none" stroke="black"/>
<path d="M202.327,363.38v 4.91054" fill="none" stroke="black"/>
<path d="M211.398,363.38v 4.91054" fill="none" stroke="black"/>
<path d="M220.469,363.38v 4.91054" fill="none" stroke="black"/>
<path d="M229.539,363.38v 4.91054" fill="none" stroke="black"/>
<path d="M238.61,358.47v 9.82109" fill="none" stroke="black"/>
<path d="M247.681,363.38v 4.91054" fill="none" stroke="black"/>
<path d="M256.752,363.38v 4.91054" fill="none" stroke="black"/>
<path d="M265.823,363.38v 4.91054" fill="none" stroke="black"/>
<path d="M274.894,363.38v 4.91054" fill="none" stroke="black"/>
<path d="M283.965,358.47v 9.82109" fill="none" stroke="black"/>
<path d="M293.035,363.38v 4.91054" fill="none" stroke="black"/>
<path d="M302.106,363.38v 4.91054" fill="none" stroke="black"/>
<path d="M311.177,363.38v 4.91054" fill="none" stroke="black"/>
<path d="M320.248,363.38v 4.91054" fill="none" stroke="black"/>
<path d="M329.319,358.47v 9.82109" fill="none" stroke="black"/>
<path d="M338.39,363.38v 4.91054" fill="none" stroke="black"/>
<path d="M347.461,363.38v 4.91054" fill="none" stroke="black"/>
<path d="M356.531,363.38v 4.91054" fill="none" stroke="black"/>
<path d="M365.602,363.38v 4.91054" fill="none" stroke="black"/>
<path d="M374.673,358.47v 9.82109" fill="none" stroke="black"/>
<path d="M383.744,363.38v 4.91054" fill="none" stroke="black"/>
<path d="M392.815,363.38v 4.91054" fill="none" stroke="black"/>
<path d="M401.886,363.38v 4.91054" fill="none" stroke="black"/>
<path d="M410.957,363.38v 4.91054" fill="none" stroke="black"/>
<path d="M420.028,358.47v 9.82109" fill="none" stroke="black"/>
<path d="M429.098,363.38v 4.91054" fill="none" stroke="black"/>
<path d="M438.169,363.38v 4.91054" fill="none" stroke="black"/>
<path d="M447.24,363.38v 4.91054" fill="none" stroke="black"/>
<path d="M456.311,363.38v 4.91054" fill="none" stroke="black"/>
<path d="M465.382,358.47v 9.82109" fill="none" stroke="black"/>
<path d="M474.453,363.38v 4.91054" fill="none" stroke="black"/>
<path d="M483.524,363.38v 4.91054" fill="none" stroke="black"/>
<path d="M492.594,363.38v 4.91054" fill="none" stroke="black"/>
<path d="M501.665,363.38v 4.91054" fill="none" stroke="black"/>
<path d="M510.736,358.47v 9.82109" fill="none" stroke="black"/>
<text xml:space="preserve" x="53.0724" y="381.505" fill="black" font-size="13.6398" font-family="Helvetica">0</text>
<text xml:space="preserve" x="90.7256" y="381.505" fill="black" font-size="13.6398" font-family="Helvetica">100</text>
<text xml:space="preserve" x="136.194" y="381.505" fill="black" font-size="13.6398" font-family="Helvetica">200</text>
<text xml:space="preserve" x="181.662" y="381.505" fill="black" font-size="13.6398" font-family="Helvetica">300</text>
<text xml:space="preserve" x="227.13" y="381.505" fill="black" font-size="13.6398" font-family="Helvetica">400</text>
<text xml:space="preserve" x="272.598" y="381.505" fill="black" font-size="13.6398" font-family="Helvetica">500</text>
<text xml:space="preserve" x="317.355" y="381.505" fill="black" font-size="13.6398" font-family="Helvetica">600</text>
<text xml:space="preserve" x="362.823" y="381.505" fill="black" font-size="13.6398" font-family="Helvetica">700</text>
<text xml:space="preserve" x="408.291" y="381.505" fill="black" font-size="13.6398" font-family="Helvetica">800</text>
<text xml:space="preserve" x="453.759" y="381.505" fill="black" font-size="13.6398" font-family="Helvetica">900</text>
<text xml:space="preserve" x="495.675" y="381.505" fill="black" font-size="13.6398" font-family="Helvetica">1000</text>
<text xml:space="preserve" x="452.338" y="395.003" fill="black" font-size="13.6398" font-family="Helvetica"> pT (GeV)</text>
<path d="M57.1929,368.291v -327.37" fill="none" stroke="black"/>
<path d="M63.9961,368.291h -6.80315" fill="none" stroke="black"/>
<path d="M63.9961,363.637h -6.80315" fill="none" stroke="black"/>
<path d="M63.9961,359.703h -6.80315" fill="none" stroke="black"/>
<path d="M63.9961,356.295h -6.80315" fill="none" stroke="black"/>
<path d="M63.9961,353.288h -6.80315" fill="none" stroke="black"/>
<path d="M70.7992,350.599h -13.6063" fill="none" stroke="black"/>
<text xml:space="preserve" x="47.3889" y="355.929" fill="black" font-size="13.6398" font-family="Helvetica">1</text>
<path d="M63.9961,332.908h -6.80315" fill="none" stroke="black"/>
<path d="M63.9961,322.559h -6.80315" fill="none" stroke="black"/>
<path d="M63.9961,315.216h -6.80315" fill="none" stroke="black"/>
<path d="M63.9961,309.521h -6.80315" fill="none" stroke="black"/>
<path d="M63.9961,304.868h -6.80315" fill="none" stroke="black"/>
<path d="M63.9961,300.933h -6.80315" fill="none" stroke="black"/>
<path d="M63.9961,297.525h -6.80315" fill="none" stroke="black"/>
<path d="M63.9961,294.519h -6.80315" fill="none" stroke="black"/>
<path d="M70.7992,291.83h -13.6063" fill="none" stroke="black"/>
<text xml:space="preserve" x="37.4427" y="296.252" fill="black" font-size="13.6398" font-family="Helvetica">10</text>
<path d="M63.9961,274.138h -6.80315" fill="none" stroke="black"/>
<path d="M63.9961,263.789h -6.80315" fill="none" stroke="black"/>
<path d="M63.9961,256.447h -6.80315" fill="none" stroke="black"/>
<path d="M63.9961,250.751h -6.80315" fill="none" stroke="black"/>
<path d="M63.9961,246.098h -6.80315" fill="none" stroke="black"/>
<path d="M63.9961,242.163h -6.80315" fill="none" stroke="black"/>
<path d="M63.9961,238.755h -6.80315" fill="none" stroke="black"/>
<path d="M63.9961,235.749h -6.80315" fill="none" stroke="black"/>
<path d="M70.7992,233.06h -13.6063" fill="none" stroke="black"/>
<text xml:space="preserve" x="47.3889" y="233.734" fill="black" font-size="9.25989" font-family="Helvetica">2</text>
<text xml:space="preserve" x="32.4697" y="239.417" fill="black" font-size="13.6398" font-family="Helvetica">10</text>
<path d="M63.9961,215.368h -6.80315" fill="none" stroke="black"/>
<path d="M63.9961,205.02h -6.80315" fill="none" stroke="black"/>
<path d="M63.9961,197.677h -6.80315" fill="none" stroke="black"/>
<path d="M63.9961,191.982h -6.80315" fill="none" stroke="black"/>
<path d="M63.9961,187.328h -6.80315" fill="none" stroke="black"/>
<path d="M63.9961,183.394h -6.80315" fill="none" stroke="black"/>
<path d="M63.9961,179.986h -6.80315" fill="none" stroke="black"/>
<path d="M63.9961,176.979h -6.80315" fill="none" stroke="black"/>
<path d="M70.7992,174.29h -13.6063" fill="none" stroke="black"/>
<text xml:space="preserve" x="47.3889" y="174.057" fill="black" font-size="9.25989" font-family="Helvetica">3</text>
<text xml:space="preserve" x="32.4697" y="180.451" fill="black" font-size="13.6398" font-family="Helvetica">10</text>
<path d="M63.9961,156.599h -6.80315" fill="none" stroke="black"/>
<path d="M63.9961,146.25h -6.80315" fill="none" stroke="black"/>
<path d="M63.9961,138.907h -6.80315" fill="none" stroke="black"/>
<path d="M63.9961,133.212h -6.80315" fill="none" stroke="black"/>
<path d="M63.9961,128.559h -6.80315" fill="none" stroke="black"/>
<path d="M63.9961,124.624h -6.80315" fill="none" stroke="black"/>
<path d="M63.9961,121.216h -6.80315" fill="none" stroke="black"/>
<path d="M63.9961,118.21h -6.80315" fill="none" stroke="black"/>
<path d="M70.7992,115.521h -13.6063" fill="none" stroke="black"/>
<text xml:space="preserve" x="47.3889" y="115.801" fill="black" font-size="9.25989" font-family="Helvetica">4</text>
<text xml:space="preserve" x="32.4697" y="121.485" fill="black" font-size="13.6398" font-family="Helvetica">10</text>
<path d="M63.9961,97.8291h -6.80315" fill="none" stroke="black"/>
<path d="M63.9961,87.4803h -6.80315" fill="none" stroke="black"/>
<path d="M63.9961,80.1377h -6.80315" fill="none" stroke="black"/>
<path d="M63.9961,74.4423h -6.80315" fill="none" stroke="black"/>
<path d="M63.9961,69.7888h -6.80315" fill="none" stroke="black"/>
<path d="M63.9961,65.8544h -6.80315" fill="none" stroke="black"/>
<path d="M63.9961,62.4462h -6.80315" fill="none" stroke="black"/>
<path d="M63.9961,59.44h -6.80315" fill="none" stroke="black"/>
<path d="M70.7992,56.7509h -13.6063" fill="none" stroke="black"/>
<text xml:space="preserve" x="47.3889" y="56.1246" fill="black" font-size="9.25989" font-family="Helvetica">5</text>
<text xml:space="preserve" x="32.4697" y="62.5185" fill="black" font-size="13.6398" font-family="Helvetica">10</text>
<g transform="rotate(-90,21.8131,85.2525)">
<text xml:space="preserve" x="21.8131" y="85.2525" fill="black" font-size="13.6398" font-family="Helvetica"> Events</text>
</g>
<text xml:space="preserve" x="251.284" y="19.8923" fill="black" font-size="19.7796" font-family="Helvetica">Jets pT</text>
<rect x="442.705" y="26.5988" width="113.386" height="65.4739" fill="white"/>
<path d="M442.705,92.0727h 113.386" fill="none" stroke="black"/>
<path d="M556.091,92.0727v -65.4739" fill="none" stroke="black"/>
<path d="M556.091,26.5988h -113.386" fill="none" stroke="black"/>
<path d="M442.705,26.5988v 65.4739" fill="none" stroke="black"/>
<text xml:space="preserve" x="475.783" y="38.3636" fill="black" font-size="14.3156" font-family="Helvetica">Jets pT</text>
<path d="M442.705,42.9673h 113.386" fill="none" stroke="black"/>
<text xml:space="preserve" x="448.076" y="56.1246" fill="black" font-size="12.0579" font-family="Helvetica">Entries </text>
<text xml:space="preserve" x="507.042" y="56.1246" fill="black" font-size="12.0579" font-family="Helvetica"> 272557</text>
<text xml:space="preserve" x="448.076" y="72.4646" fill="black" font-size="12.0579" font-family="Helvetica">Mean  </text>
<text xml:space="preserve" x="513.436" y="72.4646" fill="black" font-size="12.0579" font-family="Helvetica">  65.73</text>
<text xml:space="preserve" x="448.076" y="88.8047" fill="black" font-size="12.0579" font-family="Helvetica">Std Dev   </text>
<text xml:space="preserve" x="513.436" y="88.8047" fill="black" font-size="12.0579" font-family="Helvetica">  50.27</text>
<text xml:space="preserve" x="251.284" y="19.8923" fill="black" font-size="19.7796" font-family="Helvetica">Jets pT</text></svg>
