<?xml version="1.0" standalone="no"?>
<svg width="567.429" height="409.712" viewBox="0 0 567.429 409.712" xmlns="http://www.w3.org/2000/svg" shape-rendering="crispEdges">
<title>
hist_njets_mc.svg
</title>
<desc>
Creator: ROOT Version 6.22/02
CreationDate: Sun Oct 25 11:10:27 2020</desc>
<defs>
</defs>
<rect x="0.5" y="0" width="566.929" height="409.212" fill="white"/>
<rect x="57.1929" y="40.9212" width="453.543" height="327.37" fill="white"/>
<rect x="57.1929" y="40.9212" width="453.543" height="327.37" fill="none" stroke="black"/>
<path d="M238.61,71.887h 19.8354" fill="none" stroke="#000099"/>
<path d="M264.129,71.887h 19.8354" fill="none" stroke="#000099"/>
<g fill="#ff0000">
<polygon points=" 261.287, 69.0453 264.129, 74.7288 258.446, 74.7288"/>
</g>
<path d="M283.965,105.477h 19.8354" fill="none" stroke="#000099"/>
<path d="M309.483,105.477h 19.8354" fill="none" stroke="#000099"/>
<g fill="#ff0000">
<polygon points=" 306.642, 102.635 309.483, 108.319 303.8, 108.319"/>
</g>
<path d="M329.319,151.012h 19.8354" fill="none" stroke="#000099"/>
<path d="M354.838,151.012h 19.8354" fill="none" stroke="#000099"/>
<g fill="#ff0000">
<polygon points=" 351.996, 148.17 354.838, 153.854 349.154, 153.854"/>
</g>
<path d="M374.673,206.094h 19.8354" fill="none" stroke="#000099"/>
<path d="M400.192,206.094h 19.8354" fill="none" stroke="#000099"/>
<g fill="#ff0000">
<polygon points=" 397.35, 203.252 400.192, 208.935 394.509, 208.935"/>
</g>
<path d="M420.028,267.403h 19.8354" fill="none" stroke="#000099"/>
<path d="M445.546,267.403h 19.8354" fill="none" stroke="#000099"/>
<g fill="#ff0000">
<polygon points=" 442.705, 264.561 445.546, 270.245 439.863, 270.245"/>
</g>
<path d="M465.382,333.176h 19.8354" fill="none" stroke="#000099"/>
<path d="M490.901,333.176h 19.8354" fill="none" stroke="#000099"/>
<g fill="#ff0000">
<polygon points=" 488.059, 330.334 490.901, 336.017 485.217, 336.017"/>
</g>
<path d="M57.1929,368.291h 453.543" fill="none" stroke="black"/>
<path d="M57.1929,358.47v 9.82109" fill="none" stroke="black"/>
<path d="M66.2638,363.38v 4.91054" fill="none" stroke="black"/>
<path d="M75.3346,363.38v 4.91054" fill="none" stroke="black"/>
<path d="M84.4055,363.38v 4.91054" fill="none" stroke="black"/>
<path d="M93.4764,363.38v 4.91054" fill="none" stroke="black"/>
<path d="M102.547,358.47v 9.82109" fill="none" stroke="black"/>
<path d="M111.618,363.38v 4.91054" fill="none" stroke="black"/>
<path d="M120.689,363.38v 4.91054" fill="none" stroke="black"/>
<path d="M129.76,363.38v 4.91054" fill="none" stroke="black"/>
<path d="M138.831,363.38v 4.91054" fill="none" stroke="black"/>
<path d="M147.902,358.47v 9.82109" fill="none" stroke="black"/>
<path d="M156.972,363.38v 4.91054" fill="none" stroke="black"/>
<path d="M166.043,363.38v 4.91054" fill="none" stroke="black"/>
<path d="M175.114,363.38v 4.91054" fill="none" stroke="black"/>
<path d="M184.185,363.38v 4.91054" fill="none" stroke="black"/>
<path d="M193.256,358.47v 9.82109" fill="none" stroke="black"/>
<path d="M202.327,363.38v 4.91054" fill="none" stroke="black"/>
<path d="M211.398,363.38v 4.91054" fill="none" stroke="black"/>
<path d="M220.469,363.38v 4.91054" fill="none" stroke="black"/>
<path d="M229.539,363.38v 4.91054" fill="none" stroke="black"/>
<path d="M238.61,358.47v 9.82109" fill="none" stroke="black"/>
<path d="M247.681,363.38v 4.91054" fill="none" stroke="black"/>
<path d="M256.752,363.38v 4.91054" fill="none" stroke="black"/>
<path d="M265.823,363.38v 4.91054" fill="none" stroke="black"/>
<path d="M274.894,363.38v 4.91054" fill="none" stroke="black"/>
<path d="M283.965,358.47v 9.82109" fill="none" stroke="black"/>
<path d="M293.035,363.38v 4.91054" fill="none" stroke="black"/>
<path d="M302.106,363.38v 4.91054" fill="none" stroke="black"/>
<path d="M311.177,363.38v 4.91054" fill="none" stroke="black"/>
<path d="M320.248,363.38v 4.91054" fill="none" stroke="black"/>
<path d="M329.319,358.47v 9.82109" fill="none" stroke="black"/>
<path d="M338.39,363.38v 4.91054" fill="none" stroke="black"/>
<path d="M347.461,363.38v 4.91054" fill="none" stroke="black"/>
<path d="M356.531,363.38v 4.91054" fill="none" stroke="black"/>
<path d="M365.602,363.38v 4.91054" fill="none" stroke="black"/>
<path d="M374.673,358.47v 9.82109" fill="none" stroke="black"/>
<path d="M383.744,363.38v 4.91054" fill="none" stroke="black"/>
<path d="M392.815,363.38v 4.91054" fill="none" stroke="black"/>
<path d="M401.886,363.38v 4.91054" fill="none" stroke="black"/>
<path d="M410.957,363.38v 4.91054" fill="none" stroke="black"/>
<path d="M420.028,358.47v 9.82109" fill="none" stroke="black"/>
<path d="M429.098,363.38v 4.91054" fill="none" stroke="black"/>
<path d="M438.169,363.38v 4.91054" fill="none" stroke="black"/>
<path d="M447.24,363.38v 4.91054" fill="none" stroke="black"/>
<path d="M456.311,363.38v 4.91054" fill="none" stroke="black"/>
<path d="M465.382,358.47v 9.82109" fill="none" stroke="black"/>
<path d="M474.453,363.38v 4.91054" fill="none" stroke="black"/>
<path d="M483.524,363.38v 4.91054" fill="none" stroke="black"/>
<path d="M492.594,363.38v 4.91054" fill="none" stroke="black"/>
<path d="M501.665,363.38v 4.91054" fill="none" stroke="black"/>
<path d="M510.736,358.47v 9.82109" fill="none" stroke="black"/>
<text xml:space="preserve" x="53.0724" y="381.505" fill="black" font-size="13.6398" font-family="Helvetica">0</text>
<text xml:space="preserve" x="99.2508" y="381.505" fill="black" font-size="13.6398" font-family="Helvetica">1</text>
<text xml:space="preserve" x="144.008" y="381.505" fill="black" font-size="13.6398" font-family="Helvetica">2</text>
<text xml:space="preserve" x="189.476" y="381.505" fill="black" font-size="13.6398" font-family="Helvetica">3</text>
<text xml:space="preserve" x="234.944" y="381.505" fill="black" font-size="13.6398" font-family="Helvetica">4</text>
<text xml:space="preserve" x="280.412" y="381.505" fill="black" font-size="13.6398" font-family="Helvetica">5</text>
<text xml:space="preserve" x="325.17" y="381.505" fill="black" font-size="13.6398" font-family="Helvetica">6</text>
<text xml:space="preserve" x="370.638" y="381.505" fill="black" font-size="13.6398" font-family="Helvetica">7</text>
<text xml:space="preserve" x="416.106" y="381.505" fill="black" font-size="13.6398" font-family="Helvetica">8</text>
<text xml:space="preserve" x="461.574" y="381.505" fill="black" font-size="13.6398" font-family="Helvetica">9</text>
<text xml:space="preserve" x="502.779" y="381.505" fill="black" font-size="13.6398" font-family="Helvetica">10</text>
<text xml:space="preserve" x="422.5" y="394.293" fill="black" font-size="13.6398" font-family="Helvetica"> Jet multiplicity</text>
<path d="M57.1929,368.291v -327.37" fill="none" stroke="black"/>
<path d="M63.9961,365.517h -6.80315" fill="none" stroke="black"/>
<path d="M63.9961,351.626h -6.80315" fill="none" stroke="black"/>
<path d="M63.9961,340.85h -6.80315" fill="none" stroke="black"/>
<path d="M63.9961,332.046h -6.80315" fill="none" stroke="black"/>
<path d="M63.9961,324.603h -6.80315" fill="none" stroke="black"/>
<path d="M63.9961,318.155h -6.80315" fill="none" stroke="black"/>
<path d="M63.9961,312.467h -6.80315" fill="none" stroke="black"/>
<path d="M70.7992,307.379h -13.6063" fill="none" stroke="black"/>
<text xml:space="preserve" x="47.3889" y="307.619" fill="black" font-size="9.25989" font-family="Helvetica">2</text>
<text xml:space="preserve" x="32.4697" y="313.303" fill="black" font-size="13.6398" font-family="Helvetica">10</text>
<path d="M63.9961,273.908h -6.80315" fill="none" stroke="black"/>
<path d="M63.9961,254.329h -6.80315" fill="none" stroke="black"/>
<path d="M63.9961,240.437h -6.80315" fill="none" stroke="black"/>
<path d="M63.9961,229.662h -6.80315" fill="none" stroke="black"/>
<path d="M63.9961,220.858h -6.80315" fill="none" stroke="black"/>
<path d="M63.9961,213.414h -6.80315" fill="none" stroke="black"/>
<path d="M63.9961,206.966h -6.80315" fill="none" stroke="black"/>
<path d="M63.9961,201.279h -6.80315" fill="none" stroke="black"/>
<path d="M70.7992,196.191h -13.6063" fill="none" stroke="black"/>
<text xml:space="preserve" x="47.3889" y="196.081" fill="black" font-size="9.25989" font-family="Helvetica">3</text>
<text xml:space="preserve" x="32.4697" y="202.475" fill="black" font-size="13.6398" font-family="Helvetica">10</text>
<path d="M63.9961,162.72h -6.80315" fill="none" stroke="black"/>
<path d="M63.9961,143.141h -6.80315" fill="none" stroke="black"/>
<path d="M63.9961,129.249h -6.80315" fill="none" stroke="black"/>
<path d="M63.9961,118.474h -6.80315" fill="none" stroke="black"/>
<path d="M63.9961,109.67h -6.80315" fill="none" stroke="black"/>
<path d="M63.9961,102.226h -6.80315" fill="none" stroke="black"/>
<path d="M63.9961,95.7781h -6.80315" fill="none" stroke="black"/>
<path d="M63.9961,90.0905h -6.80315" fill="none" stroke="black"/>
<path d="M70.7992,85.0028h -13.6063" fill="none" stroke="black"/>
<text xml:space="preserve" x="47.3889" y="85.2525" fill="black" font-size="9.25989" font-family="Helvetica">4</text>
<text xml:space="preserve" x="32.4697" y="90.936" fill="black" font-size="13.6398" font-family="Helvetica">10</text>
<path d="M63.9961,51.5319h -6.80315" fill="none" stroke="black"/>
<g transform="rotate(-90,21.8131,85.2525)">
<text xml:space="preserve" x="21.8131" y="85.2525" fill="black" font-size="13.6398" font-family="Helvetica"> Events</text>
</g>
<text xml:space="preserve" x="259.81" y="19.8923" fill="black" font-size="19.7796" font-family="Helvetica">n-jets</text>
<rect x="442.705" y="26.5988" width="113.386" height="65.4739" fill="white"/>
<path d="M442.705,92.0727h 113.386" fill="none" stroke="black"/>
<path d="M556.091,92.0727v -65.4739" fill="none" stroke="black"/>
<path d="M556.091,26.5988h -113.386" fill="none" stroke="black"/>
<path d="M442.705,26.5988v 65.4739" fill="none" stroke="black"/>
<text xml:space="preserve" x="453.049" y="38.3636" fill="black" font-size="14.3156" font-family="Helvetica">Number of jets</text>
<path d="M442.705,42.9673h 113.386" fill="none" stroke="black"/>
<text xml:space="preserve" x="448.076" y="56.1246" fill="black" font-size="12.0579" font-family="Helvetica">Entries </text>
<text xml:space="preserve" x="507.042" y="56.1246" fill="black" font-size="12.0579" font-family="Helvetica"> 623267</text>
<text xml:space="preserve" x="448.076" y="72.4646" fill="black" font-size="12.0579" font-family="Helvetica">Mean  </text>
<text xml:space="preserve" x="513.436" y="72.4646" fill="black" font-size="12.0579" font-family="Helvetica">  4.656</text>
<text xml:space="preserve" x="448.076" y="88.8047" fill="black" font-size="12.0579" font-family="Helvetica">Std Dev   </text>
<text xml:space="preserve" x="510.594" y="88.8047" fill="black" font-size="12.0579" font-family="Helvetica"> 0.9066</text>
<text xml:space="preserve" x="259.81" y="19.8923" fill="black" font-size="19.7796" font-family="Helvetica">n-jets</text></svg>
