<?xml version="1.0" standalone="no"?>
<svg width="567.429" height="409.712" viewBox="0 0 567.429 409.712" xmlns="http://www.w3.org/2000/svg" shape-rendering="crispEdges">
<title>
hist_jet_MV1.svg
</title>
<desc>
Creator: ROOT Version 6.22/02
CreationDate: Sun Oct 25 10:58:58 2020</desc>
<defs>
</defs>
<rect x="0.5" y="0" width="566.929" height="409.212" fill="white"/>
<rect x="57.1929" y="40.9212" width="453.543" height="327.37" fill="white"/>
<rect x="57.1929" y="40.9212" width="453.543" height="327.37" fill="none" stroke="black"/>
<path d="M57.1929,368.291v -48.3822h 9.07087v -0.374954h 9.07087v -49.8987h 9.07087v -12.2452h 9.07087v 14.9872h 9.07087v 5.27775h 9.07087v 3.29819h 9.07087v 2.10184h 9.07087v 6.22947h 9.07087v 2.03364h 9.07087v 3.49709h 9.07087v -1.03951h 9.07087v
 2.93993h 9.07087v 6.69941h 9.07087v -2.67881h 9.07087v 6.8233h 9.07087v 5.97875h 9.07087v -2.44199h 9.07087v 0.640171h 9.07087v 6.50586h 9.07087v 1.85508h 9.07087v 3.51388h 9.07087v -0.602225h 9.07087v 7.03803h 9.07087v -7.8304h 9.07087v 6.25661h
 9.07087v -0.660303h 9.07087v -5.20161h 9.07087v 9.29408h 9.07087v -3.43216h 9.07087v -3.01274h 9.07087v -1.03541h 9.07087v 1.24496h 9.07087v -1.03951h 9.07087v 2.10001h 9.07087v -1.27006h 9.07087v -3.83039h 9.07087v -0.963208h 9.07087v -3.68526h
 9.07087v -1.05695h 9.07087v -3.21316h 9.07087v -5.44864h 9.07087v -3.43403h 9.07087v -0.96069h 9.07087v -13.4787h 9.07087v -10.1981h 9.07087v -11.4008h 9.07087v -21.3075h 9.07087v -39.2336h 9.07087v -132.781h 9.07087v 293.822z" fill="#00ffff"/>
<path d="M57.1929,319.909h 9.07087v -0.374954h 9.07087v -49.8987h 9.07087v -12.2452h 9.07087v 14.9872h 9.07087v 5.27775h 9.07087v 3.29819h 9.07087v 2.10184h 9.07087v 6.22947h 9.07087v 2.03364h 9.07087v 3.49709h 9.07087v -1.03951h 9.07087v 2.93993h
 9.07087v 6.69941h 9.07087v -2.67881h 9.07087v 6.8233h 9.07087v 5.97875h 9.07087v -2.44199h 9.07087v 0.640171h 9.07087v 6.50586h 9.07087v 1.85508h 9.07087v 3.51388h 9.07087v -0.602225h 9.07087v 7.03803h 9.07087v -7.8304h 9.07087v 6.25661h 9.07087v
 -0.660303h 9.07087v -5.20161h 9.07087v 9.29408h 9.07087v -3.43216h 9.07087v -3.01274h 9.07087v -1.03541h 9.07087v 1.24496h 9.07087v -1.03951h 9.07087v 2.10001h 9.07087v -1.27006h 9.07087v -3.83039h 9.07087v -0.963208h 9.07087v -3.68526h 9.07087v
 -1.05695h 9.07087v -3.21316h 9.07087v -5.44864h 9.07087v -3.43403h 9.07087v -0.96069h 9.07087v -13.4787h 9.07087v -10.1981h 9.07087v -11.4008h 9.07087v -21.3075h 9.07087v -39.2336h 9.07087v -132.781h 9.07087" fill="none" stroke="#000099"/>
<path d="M57.1929,368.291h 453.543" fill="none" stroke="black"/>
<path d="M57.1929,358.47v 9.82109" fill="none" stroke="black"/>
<path d="M66.2638,363.38v 4.91054" fill="none" stroke="black"/>
<path d="M75.3346,363.38v 4.91054" fill="none" stroke="black"/>
<path d="M84.4055,363.38v 4.91054" fill="none" stroke="black"/>
<path d="M93.4764,363.38v 4.91054" fill="none" stroke="black"/>
<path d="M102.547,358.47v 9.82109" fill="none" stroke="black"/>
<path d="M111.618,363.38v 4.91054" fill="none" stroke="black"/>
<path d="M120.689,363.38v 4.91054" fill="none" stroke="black"/>
<path d="M129.76,363.38v 4.91054" fill="none" stroke="black"/>
<path d="M138.831,363.38v 4.91054" fill="none" stroke="black"/>
<path d="M147.902,358.47v 9.82109" fill="none" stroke="black"/>
<path d="M156.972,363.38v 4.91054" fill="none" stroke="black"/>
<path d="M166.043,363.38v 4.91054" fill="none" stroke="black"/>
<path d="M175.114,363.38v 4.91054" fill="none" stroke="black"/>
<path d="M184.185,363.38v 4.91054" fill="none" stroke="black"/>
<path d="M193.256,358.47v 9.82109" fill="none" stroke="black"/>
<path d="M202.327,363.38v 4.91054" fill="none" stroke="black"/>
<path d="M211.398,363.38v 4.91054" fill="none" stroke="black"/>
<path d="M220.469,363.38v 4.91054" fill="none" stroke="black"/>
<path d="M229.539,363.38v 4.91054" fill="none" stroke="black"/>
<path d="M238.61,358.47v 9.82109" fill="none" stroke="black"/>
<path d="M247.681,363.38v 4.91054" fill="none" stroke="black"/>
<path d="M256.752,363.38v 4.91054" fill="none" stroke="black"/>
<path d="M265.823,363.38v 4.91054" fill="none" stroke="black"/>
<path d="M274.894,363.38v 4.91054" fill="none" stroke="black"/>
<path d="M283.965,358.47v 9.82109" fill="none" stroke="black"/>
<path d="M293.035,363.38v 4.91054" fill="none" stroke="black"/>
<path d="M302.106,363.38v 4.91054" fill="none" stroke="black"/>
<path d="M311.177,363.38v 4.91054" fill="none" stroke="black"/>
<path d="M320.248,363.38v 4.91054" fill="none" stroke="black"/>
<path d="M329.319,358.47v 9.82109" fill="none" stroke="black"/>
<path d="M338.39,363.38v 4.91054" fill="none" stroke="black"/>
<path d="M347.461,363.38v 4.91054" fill="none" stroke="black"/>
<path d="M356.531,363.38v 4.91054" fill="none" stroke="black"/>
<path d="M365.602,363.38v 4.91054" fill="none" stroke="black"/>
<path d="M374.673,358.47v 9.82109" fill="none" stroke="black"/>
<path d="M383.744,363.38v 4.91054" fill="none" stroke="black"/>
<path d="M392.815,363.38v 4.91054" fill="none" stroke="black"/>
<path d="M401.886,363.38v 4.91054" fill="none" stroke="black"/>
<path d="M410.957,363.38v 4.91054" fill="none" stroke="black"/>
<path d="M420.028,358.47v 9.82109" fill="none" stroke="black"/>
<path d="M429.098,363.38v 4.91054" fill="none" stroke="black"/>
<path d="M438.169,363.38v 4.91054" fill="none" stroke="black"/>
<path d="M447.24,363.38v 4.91054" fill="none" stroke="black"/>
<path d="M456.311,363.38v 4.91054" fill="none" stroke="black"/>
<path d="M465.382,358.47v 9.82109" fill="none" stroke="black"/>
<path d="M474.453,363.38v 4.91054" fill="none" stroke="black"/>
<path d="M483.524,363.38v 4.91054" fill="none" stroke="black"/>
<path d="M492.594,363.38v 4.91054" fill="none" stroke="black"/>
<path d="M501.665,363.38v 4.91054" fill="none" stroke="black"/>
<path d="M510.736,358.47v 9.82109" fill="none" stroke="black"/>
<text xml:space="preserve" x="47.3889" y="381.505" fill="black" font-size="13.6398" font-family="Helvetica">0.5</text>
<text xml:space="preserve" x="88.5943" y="381.505" fill="black" font-size="13.6398" font-family="Helvetica">0.55</text>
<text xml:space="preserve" x="138.325" y="381.505" fill="black" font-size="13.6398" font-family="Helvetica">0.6</text>
<text xml:space="preserve" x="179.53" y="381.505" fill="black" font-size="13.6398" font-family="Helvetica">0.65</text>
<text xml:space="preserve" x="229.261" y="381.505" fill="black" font-size="13.6398" font-family="Helvetica">0.7</text>
<text xml:space="preserve" x="270.466" y="381.505" fill="black" font-size="13.6398" font-family="Helvetica">0.75</text>
<text xml:space="preserve" x="319.486" y="381.505" fill="black" font-size="13.6398" font-family="Helvetica">0.8</text>
<text xml:space="preserve" x="360.692" y="381.505" fill="black" font-size="13.6398" font-family="Helvetica">0.85</text>
<text xml:space="preserve" x="410.422" y="381.505" fill="black" font-size="13.6398" font-family="Helvetica">0.9</text>
<text xml:space="preserve" x="451.628" y="381.505" fill="black" font-size="13.6398" font-family="Helvetica">0.95</text>
<text xml:space="preserve" x="507.752" y="381.505" fill="black" font-size="13.6398" font-family="Helvetica">1</text>
<text xml:space="preserve" x="481.466" y="396.424" fill="black" font-size="13.6398" font-family="Helvetica"> MV1</text>
<path d="M57.1929,368.291v -327.37" fill="none" stroke="black"/>
<path d="M63.9961,337.384h -6.80315" fill="none" stroke="black"/>
<path d="M63.9961,316.099h -6.80315" fill="none" stroke="black"/>
<path d="M63.9961,300.998h -6.80315" fill="none" stroke="black"/>
<path d="M63.9961,289.284h -6.80315" fill="none" stroke="black"/>
<path d="M63.9961,279.714h -6.80315" fill="none" stroke="black"/>
<path d="M63.9961,271.622h -6.80315" fill="none" stroke="black"/>
<path d="M63.9961,264.612h -6.80315" fill="none" stroke="black"/>
<path d="M63.9961,258.429h -6.80315" fill="none" stroke="black"/>
<path d="M70.7992,252.899h -13.6063" fill="none" stroke="black"/>
<text xml:space="preserve" x="47.3889" y="252.205" fill="black" font-size="9.25989" font-family="Helvetica">3</text>
<text xml:space="preserve" x="32.4697" y="258.599" fill="black" font-size="13.6398" font-family="Helvetica">10</text>
<path d="M63.9961,216.513h -6.80315" fill="none" stroke="black"/>
<path d="M63.9961,195.229h -6.80315" fill="none" stroke="black"/>
<path d="M63.9961,180.127h -6.80315" fill="none" stroke="black"/>
<path d="M63.9961,168.414h -6.80315" fill="none" stroke="black"/>
<path d="M63.9961,158.843h -6.80315" fill="none" stroke="black"/>
<path d="M63.9961,150.751h -6.80315" fill="none" stroke="black"/>
<path d="M63.9961,143.742h -6.80315" fill="none" stroke="black"/>
<path d="M63.9961,137.559h -6.80315" fill="none" stroke="black"/>
<path d="M70.7992,132.028h -13.6063" fill="none" stroke="black"/>
<text xml:space="preserve" x="47.3889" y="132.141" fill="black" font-size="9.25989" font-family="Helvetica">4</text>
<text xml:space="preserve" x="32.4697" y="137.825" fill="black" font-size="13.6398" font-family="Helvetica">10</text>
<path d="M63.9961,95.6426h -6.80315" fill="none" stroke="black"/>
<path d="M63.9961,74.3583h -6.80315" fill="none" stroke="black"/>
<path d="M63.9961,59.2569h -6.80315" fill="none" stroke="black"/>
<path d="M63.9961,47.5434h -6.80315" fill="none" stroke="black"/>
<g transform="rotate(-90,21.8131,85.2525)">
<text xml:space="preserve" x="21.8131" y="85.2525" fill="black" font-size="13.6398" font-family="Helvetica"> Events</text>
</g>
<text xml:space="preserve" x="248.443" y="19.8923" fill="black" font-size="18.0511" font-family="Helvetica">Jets MV1</text>
<rect x="442.705" y="26.5988" width="113.386" height="65.4739" fill="white"/>
<path d="M442.705,92.0727h 113.386" fill="none" stroke="black"/>
<path d="M556.091,92.0727v -65.4739" fill="none" stroke="black"/>
<path d="M556.091,26.5988h -113.386" fill="none" stroke="black"/>
<path d="M442.705,26.5988v 65.4739" fill="none" stroke="black"/>
<text xml:space="preserve" x="470.81" y="39.7845" fill="black" font-size="14.3156" font-family="Helvetica">Jets MV1</text>
<path d="M442.705,42.9673h 113.386" fill="none" stroke="black"/>
<text xml:space="preserve" x="448.076" y="56.1246" fill="black" font-size="12.0579" font-family="Helvetica">Entries </text>
<text xml:space="preserve" x="507.042" y="56.1246" fill="black" font-size="12.0579" font-family="Helvetica"> 272557</text>
<text xml:space="preserve" x="448.076" y="72.4646" fill="black" font-size="12.0579" font-family="Helvetica">Mean  </text>
<text xml:space="preserve" x="510.594" y="72.4646" fill="black" font-size="12.0579" font-family="Helvetica"> 0.8965</text>
<text xml:space="preserve" x="448.076" y="88.8047" fill="black" font-size="12.0579" font-family="Helvetica">Std Dev   </text>
<text xml:space="preserve" x="512.015" y="88.8047" fill="black" font-size="12.0579" font-family="Helvetica"> 0.1591</text>
<text xml:space="preserve" x="248.443" y="19.8923" fill="black" font-size="18.0511" font-family="Helvetica">Jets MV1</text></svg>
