<?xml version="1.0" standalone="no"?>
<svg width="567.429" height="409.712" viewBox="0 0 567.429 409.712" xmlns="http://www.w3.org/2000/svg" shape-rendering="crispEdges">
<title>
hist_mTW.svg
</title>
<desc>
Creator: ROOT Version 6.22/02
CreationDate: Sun Oct 25 10:58:58 2020</desc>
<defs>
</defs>
<rect x="0.5" y="0" width="566.929" height="409.212" fill="white"/>
<rect x="57.1929" y="40.9212" width="453.543" height="327.37" fill="white"/>
<rect x="57.1929" y="40.9212" width="453.543" height="327.37" fill="none" stroke="black"/>
<path d="M57.1929,368.291v -119.597h 9.07087v -19.3567h 9.07087v 12.4436h 9.07087v 1.38262h 9.07087v 5.53048h 9.07087v -6.22179h 9.07087v -9.67833h 9.07087v 7.6044h 9.07087v -2.76524h 9.07087v -18.6654h 9.07087v -22.8132h 9.07087v -16.5914h 9.07087v
 11.061h 9.07087v -17.974h 9.07087v -39.4046h 9.07087v -38.7133h 9.07087v 15.9001h 9.07087v -52.5395h 9.07087v -1.38262h 9.07087v 17.2827h 9.07087v -1.38262h 9.07087v 4.83917h 9.07087v 37.3307h 9.07087v 36.6394h 9.07087v 17.974h 9.07087v 58.07h
 9.07087v 24.8871h 9.07087v 6.91309h 9.07087v 31.1089h 9.07087v -1.38262h 9.07087v 24.1958h 9.07087v 11.7523h 9.07087v 1.38262h 9.07087v 7.6044h 9.07087v 4.14786h 9.07087v 9.67833h 9.07087v -1.38262h 9.07087v 3.45655h 9.07087v 8.98702h 9.07087v
 -6.91309h 9.07087v 6.22179h 9.07087v -1.38262h 9.07087v 4.83917h 9.07087v -4.83917h 9.07087v 6.22179h 9.07087v -2.76524h 18.1417v 4.14786h 9.07087v -2.76524h 9.07087v 2.76524h 9.07087v 4.14786z" fill="#00ffff"/>
<path d="M57.1929,248.694h 9.07087v -19.3567h 9.07087v 12.4436h 9.07087v 1.38262h 9.07087v 5.53048h 9.07087v -6.22179h 9.07087v -9.67833h 9.07087v 7.6044h 9.07087v -2.76524h 9.07087v -18.6654h 9.07087v -22.8132h 9.07087v -16.5914h 9.07087v 11.061h
 9.07087v -17.974h 9.07087v -39.4046h 9.07087v -38.7133h 9.07087v 15.9001h 9.07087v -52.5395h 9.07087v -1.38262h 9.07087v 17.2827h 9.07087v -1.38262h 9.07087v 4.83917h 9.07087v 37.3307h 9.07087v 36.6394h 9.07087v 17.974h 9.07087v 58.07h 9.07087v
 24.8871h 9.07087v 6.91309h 9.07087v 31.1089h 9.07087v -1.38262h 9.07087v 24.1958h 9.07087v 11.7523h 9.07087v 1.38262h 9.07087v 7.6044h 9.07087v 4.14786h 9.07087v 9.67833h 9.07087v -1.38262h 9.07087v 3.45655h 9.07087v 8.98702h 9.07087v -6.91309h
 9.07087v 6.22179h 9.07087v -1.38262h 9.07087v 4.83917h 9.07087v -4.83917h 9.07087v 6.22179h 9.07087v -2.76524h 18.1417v 4.14786h 9.07087v -2.76524h 9.07087v 2.76524h 9.07087" fill="none" stroke="#000099"/>
<path d="M57.1929,368.291h 453.543" fill="none" stroke="black"/>
<path d="M57.1929,358.47v 9.82109" fill="none" stroke="black"/>
<path d="M68.5315,363.38v 4.91054" fill="none" stroke="black"/>
<path d="M79.8701,363.38v 4.91054" fill="none" stroke="black"/>
<path d="M91.2087,363.38v 4.91054" fill="none" stroke="black"/>
<path d="M102.547,358.47v 9.82109" fill="none" stroke="black"/>
<path d="M113.886,363.38v 4.91054" fill="none" stroke="black"/>
<path d="M125.224,363.38v 4.91054" fill="none" stroke="black"/>
<path d="M136.563,363.38v 4.91054" fill="none" stroke="black"/>
<path d="M147.902,358.47v 9.82109" fill="none" stroke="black"/>
<path d="M159.24,363.38v 4.91054" fill="none" stroke="black"/>
<path d="M170.579,363.38v 4.91054" fill="none" stroke="black"/>
<path d="M181.917,363.38v 4.91054" fill="none" stroke="black"/>
<path d="M193.256,358.47v 9.82109" fill="none" stroke="black"/>
<path d="M204.594,363.38v 4.91054" fill="none" stroke="black"/>
<path d="M215.933,363.38v 4.91054" fill="none" stroke="black"/>
<path d="M227.272,363.38v 4.91054" fill="none" stroke="black"/>
<path d="M238.61,358.47v 9.82109" fill="none" stroke="black"/>
<path d="M249.949,363.38v 4.91054" fill="none" stroke="black"/>
<path d="M261.287,363.38v 4.91054" fill="none" stroke="black"/>
<path d="M272.626,363.38v 4.91054" fill="none" stroke="black"/>
<path d="M283.965,358.47v 9.82109" fill="none" stroke="black"/>
<path d="M295.303,363.38v 4.91054" fill="none" stroke="black"/>
<path d="M306.642,363.38v 4.91054" fill="none" stroke="black"/>
<path d="M317.98,363.38v 4.91054" fill="none" stroke="black"/>
<path d="M329.319,358.47v 9.82109" fill="none" stroke="black"/>
<path d="M340.657,363.38v 4.91054" fill="none" stroke="black"/>
<path d="M351.996,363.38v 4.91054" fill="none" stroke="black"/>
<path d="M363.335,363.38v 4.91054" fill="none" stroke="black"/>
<path d="M374.673,358.47v 9.82109" fill="none" stroke="black"/>
<path d="M386.012,363.38v 4.91054" fill="none" stroke="black"/>
<path d="M397.35,363.38v 4.91054" fill="none" stroke="black"/>
<path d="M408.689,363.38v 4.91054" fill="none" stroke="black"/>
<path d="M420.028,358.47v 9.82109" fill="none" stroke="black"/>
<path d="M431.366,363.38v 4.91054" fill="none" stroke="black"/>
<path d="M442.705,363.38v 4.91054" fill="none" stroke="black"/>
<path d="M454.043,363.38v 4.91054" fill="none" stroke="black"/>
<path d="M465.382,358.47v 9.82109" fill="none" stroke="black"/>
<path d="M476.72,363.38v 4.91054" fill="none" stroke="black"/>
<path d="M488.059,363.38v 4.91054" fill="none" stroke="black"/>
<path d="M499.398,363.38v 4.91054" fill="none" stroke="black"/>
<path d="M510.736,358.47v 9.82109" fill="none" stroke="black"/>
<text xml:space="preserve" x="53.0724" y="381.505" fill="black" font-size="13.6398" font-family="Helvetica">0</text>
<text xml:space="preserve" x="94.2777" y="381.505" fill="black" font-size="13.6398" font-family="Helvetica">20</text>
<text xml:space="preserve" x="139.746" y="381.505" fill="black" font-size="13.6398" font-family="Helvetica">40</text>
<text xml:space="preserve" x="185.214" y="381.505" fill="black" font-size="13.6398" font-family="Helvetica">60</text>
<text xml:space="preserve" x="230.682" y="381.505" fill="black" font-size="13.6398" font-family="Helvetica">80</text>
<text xml:space="preserve" x="272.598" y="381.505" fill="black" font-size="13.6398" font-family="Helvetica">100</text>
<text xml:space="preserve" x="317.355" y="381.505" fill="black" font-size="13.6398" font-family="Helvetica">120</text>
<text xml:space="preserve" x="362.823" y="381.505" fill="black" font-size="13.6398" font-family="Helvetica">140</text>
<text xml:space="preserve" x="408.291" y="381.505" fill="black" font-size="13.6398" font-family="Helvetica">160</text>
<text xml:space="preserve" x="453.759" y="381.505" fill="black" font-size="13.6398" font-family="Helvetica">180</text>
<text xml:space="preserve" x="499.227" y="381.505" fill="black" font-size="13.6398" font-family="Helvetica">200</text>
<text xml:space="preserve" x="435.288" y="395.003" fill="black" font-size="13.6398" font-family="Helvetica"> mTW (GeV)</text>
<path d="M57.1929,368.291v -327.37" fill="none" stroke="black"/>
<path d="M70.7992,368.291h -13.6063" fill="none" stroke="black"/>
<path d="M63.9961,361.378h -6.80315" fill="none" stroke="black"/>
<path d="M63.9961,354.465h -6.80315" fill="none" stroke="black"/>
<path d="M63.9961,347.552h -6.80315" fill="none" stroke="black"/>
<path d="M63.9961,340.638h -6.80315" fill="none" stroke="black"/>
<path d="M70.7992,333.725h -13.6063" fill="none" stroke="black"/>
<path d="M63.9961,326.812h -6.80315" fill="none" stroke="black"/>
<path d="M63.9961,319.899h -6.80315" fill="none" stroke="black"/>
<path d="M63.9961,312.986h -6.80315" fill="none" stroke="black"/>
<path d="M63.9961,306.073h -6.80315" fill="none" stroke="black"/>
<path d="M70.7992,299.16h -13.6063" fill="none" stroke="black"/>
<path d="M63.9961,292.247h -6.80315" fill="none" stroke="black"/>
<path d="M63.9961,285.334h -6.80315" fill="none" stroke="black"/>
<path d="M63.9961,278.421h -6.80315" fill="none" stroke="black"/>
<path d="M63.9961,271.507h -6.80315" fill="none" stroke="black"/>
<path d="M70.7992,264.594h -13.6063" fill="none" stroke="black"/>
<path d="M63.9961,257.681h -6.80315" fill="none" stroke="black"/>
<path d="M63.9961,250.768h -6.80315" fill="none" stroke="black"/>
<path d="M63.9961,243.855h -6.80315" fill="none" stroke="black"/>
<path d="M63.9961,236.942h -6.80315" fill="none" stroke="black"/>
<path d="M70.7992,230.029h -13.6063" fill="none" stroke="black"/>
<path d="M63.9961,223.116h -6.80315" fill="none" stroke="black"/>
<path d="M63.9961,216.203h -6.80315" fill="none" stroke="black"/>
<path d="M63.9961,209.29h -6.80315" fill="none" stroke="black"/>
<path d="M63.9961,202.377h -6.80315" fill="none" stroke="black"/>
<path d="M70.7992,195.463h -13.6063" fill="none" stroke="black"/>
<path d="M63.9961,188.55h -6.80315" fill="none" stroke="black"/>
<path d="M63.9961,181.637h -6.80315" fill="none" stroke="black"/>
<path d="M63.9961,174.724h -6.80315" fill="none" stroke="black"/>
<path d="M63.9961,167.811h -6.80315" fill="none" stroke="black"/>
<path d="M70.7992,160.898h -13.6063" fill="none" stroke="black"/>
<path d="M63.9961,153.985h -6.80315" fill="none" stroke="black"/>
<path d="M63.9961,147.072h -6.80315" fill="none" stroke="black"/>
<path d="M63.9961,140.159h -6.80315" fill="none" stroke="black"/>
<path d="M63.9961,133.246h -6.80315" fill="none" stroke="black"/>
<path d="M70.7992,126.332h -13.6063" fill="none" stroke="black"/>
<path d="M63.9961,119.419h -6.80315" fill="none" stroke="black"/>
<path d="M63.9961,112.506h -6.80315" fill="none" stroke="black"/>
<path d="M63.9961,105.593h -6.80315" fill="none" stroke="black"/>
<path d="M63.9961,98.6801h -6.80315" fill="none" stroke="black"/>
<path d="M70.7992,91.767h -13.6063" fill="none" stroke="black"/>
<path d="M63.9961,84.8539h -6.80315" fill="none" stroke="black"/>
<path d="M63.9961,77.9408h -6.80315" fill="none" stroke="black"/>
<path d="M63.9961,71.0277h -6.80315" fill="none" stroke="black"/>
<path d="M63.9961,64.1146h -6.80315" fill="none" stroke="black"/>
<path d="M70.7992,57.2015h -13.6063" fill="none" stroke="black"/>
<path d="M70.7992,57.2015h -13.6063" fill="none" stroke="black"/>
<path d="M63.9961,50.2884h -6.80315" fill="none" stroke="black"/>
<path d="M63.9961,43.3754h -6.80315" fill="none" stroke="black"/>
<text xml:space="preserve" x="46.6784" y="372.98" fill="black" font-size="13.6398" font-family="Helvetica">0</text>
<text xml:space="preserve" x="38.8636" y="338.168" fill="black" font-size="13.6398" font-family="Helvetica">50</text>
<text xml:space="preserve" x="31.7593" y="304.067" fill="black" font-size="13.6398" font-family="Helvetica">100</text>
<text xml:space="preserve" x="31.7593" y="269.256" fill="black" font-size="13.6398" font-family="Helvetica">150</text>
<text xml:space="preserve" x="31.7593" y="234.444" fill="black" font-size="13.6398" font-family="Helvetica">200</text>
<text xml:space="preserve" x="31.7593" y="200.343" fill="black" font-size="13.6398" font-family="Helvetica">250</text>
<text xml:space="preserve" x="31.7593" y="165.532" fill="black" font-size="13.6398" font-family="Helvetica">300</text>
<text xml:space="preserve" x="31.7593" y="130.721" fill="black" font-size="13.6398" font-family="Helvetica">350</text>
<text xml:space="preserve" x="31.7593" y="96.6195" fill="black" font-size="13.6398" font-family="Helvetica">400</text>
<text xml:space="preserve" x="31.7593" y="61.8081" fill="black" font-size="13.6398" font-family="Helvetica">450</text>
<g transform="rotate(-90,19.6818,85.2525)">
<text xml:space="preserve" x="19.6818" y="85.2525" fill="black" font-size="13.6398" font-family="Helvetica"> Events</text>
</g>
<text xml:space="preserve" x="262.651" y="19.8923" fill="black" font-size="18.0511" font-family="Helvetica">mTW</text>
<rect x="442.705" y="26.5988" width="113.386" height="65.4739" fill="white"/>
<path d="M442.705,92.0727h 113.386" fill="none" stroke="black"/>
<path d="M556.091,92.0727v -65.4739" fill="none" stroke="black"/>
<path d="M556.091,26.5988h -113.386" fill="none" stroke="black"/>
<path d="M442.705,26.5988v 65.4739" fill="none" stroke="black"/>
<text xml:space="preserve" x="482.177" y="39.7845" fill="black" font-size="14.3156" font-family="Helvetica">mTW</text>
<path d="M442.705,42.9673h 113.386" fill="none" stroke="black"/>
<text xml:space="preserve" x="448.076" y="56.1246" fill="black" font-size="12.5746" font-family="Helvetica">Entries </text>
<text xml:space="preserve" x="520.54" y="56.1246" fill="black" font-size="12.5746" font-family="Helvetica"> 8556</text>
<text xml:space="preserve" x="448.076" y="72.4646" fill="black" font-size="12.5746" font-family="Helvetica">Mean  </text>
<text xml:space="preserve" x="515.567" y="72.4646" fill="black" font-size="12.5746" font-family="Helvetica">  68.11</text>
<text xml:space="preserve" x="448.076" y="88.8047" fill="black" font-size="12.5746" font-family="Helvetica">Std Dev   </text>
<text xml:space="preserve" x="516.988" y="88.8047" fill="black" font-size="12.5746" font-family="Helvetica">   35.2</text>
<text xml:space="preserve" x="262.651" y="19.8923" fill="black" font-size="18.0511" font-family="Helvetica">mTW</text></svg>
