<?xml version="1.0" standalone="no"?>
<svg width="567.429" height="409.712" viewBox="0 0 567.429 409.712" xmlns="http://www.w3.org/2000/svg" shape-rendering="crispEdges">
<title>
Matched_track.svg
</title>
<desc>
Creator: ROOT Version 6.22/02
CreationDate: Tue Oct  6 04:57:31 2020</desc>
<defs>
</defs>
<rect x="0.5" y="0" width="566.929" height="409.212" fill="white"/>
<rect x="57.1929" y="40.9212" width="453.543" height="327.37" fill="white"/>
<rect x="57.1929" y="40.9212" width="453.543" height="327.37" fill="none" stroke="black"/>
<path d="M68.5315,286.861v -34.3496" fill="none" stroke="#000099"/>
<path d="M68.5315,246.827v -13.4044" fill="none" stroke="#000099"/>
<path d="M57.1929,249.669h 8.49683" fill="none" stroke="#000099"/>
<path d="M71.3733,249.669h 8.49683" fill="none" stroke="#000099"/>
<g fill="#ff0000">
<circle cx="68.5315" cy="249.669" r="2.84175"/>
</g>
<path d="M91.2087,286.737v -19.3616" fill="none" stroke="#000099"/>
<path d="M91.2087,261.692v -9.85934" fill="none" stroke="#000099"/>
<path d="M79.8701,264.533h 8.49683" fill="none" stroke="#000099"/>
<path d="M94.0504,264.533h 8.49683" fill="none" stroke="#000099"/>
<g fill="#ff0000">
<circle cx="91.2087" cy="264.533" r="2.84175"/>
</g>
<path d="M113.886,198.14v -12.1125" fill="none" stroke="#000099"/>
<path d="M113.886,180.344v -7.14142" fill="none" stroke="#000099"/>
<path d="M102.547,183.186h 8.49683" fill="none" stroke="#000099"/>
<path d="M116.728,183.186h 8.49683" fill="none" stroke="#000099"/>
<g fill="#ff0000">
<circle cx="113.886" cy="183.186" r="2.84175"/>
</g>
<path d="M136.563,157.301v -6.48905" fill="none" stroke="#000099"/>
<path d="M136.563,145.129v -4.28971" fill="none" stroke="#000099"/>
<path d="M125.224,147.97h 8.49683" fill="none" stroke="#000099"/>
<path d="M139.405,147.97h 8.49683" fill="none" stroke="#000099"/>
<g fill="#ff0000">
<circle cx="136.563" cy="147.97" r="2.84175"/>
</g>
<path d="M147.902,62.2079h 8.49683" fill="none" stroke="#000099"/>
<path d="M162.082,62.2079h 8.49683" fill="none" stroke="#000099"/>
<g fill="#ff0000">
<circle cx="159.24" cy="62.2079" r="2.84175"/>
</g>
<path d="M170.579,62.1966h 8.49683" fill="none" stroke="#000099"/>
<path d="M184.759,62.1966h 8.49683" fill="none" stroke="#000099"/>
<g fill="#ff0000">
<circle cx="181.917" cy="62.1966" r="2.84175"/>
</g>
<path d="M193.256,72.9897h 8.49683" fill="none" stroke="#000099"/>
<path d="M207.436,72.9897h 8.49683" fill="none" stroke="#000099"/>
<g fill="#ff0000">
<circle cx="204.594" cy="72.9897" r="2.84175"/>
</g>
<path d="M215.933,83.1019h 8.49683" fill="none" stroke="#000099"/>
<path d="M230.113,83.1019h 8.49683" fill="none" stroke="#000099"/>
<g fill="#ff0000">
<circle cx="227.272" cy="83.1019" r="2.84175"/>
</g>
<path d="M249.949,107.179v -0.228978" fill="none" stroke="#000099"/>
<path d="M238.61,104.108h 8.49683" fill="none" stroke="#000099"/>
<path d="M252.791,104.108h 8.49683" fill="none" stroke="#000099"/>
<g fill="#ff0000">
<circle cx="249.949" cy="104.108" r="2.84175"/>
</g>
<path d="M272.626,129.913v -0.768888" fill="none" stroke="#000099"/>
<path d="M272.626,123.461v -0.385634" fill="none" stroke="#000099"/>
<path d="M261.287,126.302h 8.49683" fill="none" stroke="#000099"/>
<path d="M275.468,126.302h 8.49683" fill="none" stroke="#000099"/>
<g fill="#ff0000">
<circle cx="272.626" cy="126.302" r="2.84175"/>
</g>
<path d="M295.303,150.781v -1.79806" fill="none" stroke="#000099"/>
<path d="M295.303,143.3v -1.18343" fill="none" stroke="#000099"/>
<path d="M283.965,146.142h 8.49683" fill="none" stroke="#000099"/>
<path d="M298.145,146.142h 8.49683" fill="none" stroke="#000099"/>
<g fill="#ff0000">
<circle cx="295.303" cy="146.142" r="2.84175"/>
</g>
<path d="M317.98,175.93v -1.63116" fill="none" stroke="#000099"/>
<path d="M317.98,168.616v -1.05727" fill="none" stroke="#000099"/>
<path d="M306.642,171.457h 8.49683" fill="none" stroke="#000099"/>
<path d="M320.822,171.457h 8.49683" fill="none" stroke="#000099"/>
<g fill="#ff0000">
<circle cx="317.98" cy="171.457" r="2.84175"/>
</g>
<path d="M340.657,200.645v -2.42939" fill="none" stroke="#000099"/>
<path d="M340.657,192.532v -1.64987" fill="none" stroke="#000099"/>
<path d="M329.319,195.373h 8.49683" fill="none" stroke="#000099"/>
<path d="M343.499,195.373h 8.49683" fill="none" stroke="#000099"/>
<g fill="#ff0000">
<circle cx="340.657" cy="195.373" r="2.84175"/>
</g>
<path d="M363.335,221.471v -4.21776" fill="none" stroke="#000099"/>
<path d="M363.335,211.57v -2.88474" fill="none" stroke="#000099"/>
<path d="M351.996,214.411h 8.49683" fill="none" stroke="#000099"/>
<path d="M366.176,214.411h 8.49683" fill="none" stroke="#000099"/>
<g fill="#ff0000">
<circle cx="363.335" cy="214.411" r="2.84175"/>
</g>
<path d="M386.012,244.915v -6.12988" fill="none" stroke="#000099"/>
<path d="M386.012,233.101v -4.07862" fill="none" stroke="#000099"/>
<path d="M374.673,235.943h 8.49683" fill="none" stroke="#000099"/>
<path d="M388.854,235.943h 8.49683" fill="none" stroke="#000099"/>
<g fill="#ff0000">
<circle cx="386.012" cy="235.943" r="2.84175"/>
</g>
<path d="M408.689,257.711v -6.99159" fill="none" stroke="#000099"/>
<path d="M408.689,245.036v -4.57854" fill="none" stroke="#000099"/>
<path d="M397.35,247.877h 8.49683" fill="none" stroke="#000099"/>
<path d="M411.531,247.877h 8.49683" fill="none" stroke="#000099"/>
<g fill="#ff0000">
<circle cx="408.689" cy="247.877" r="2.84175"/>
</g>
<path d="M431.366,283.831v -10.38" fill="none" stroke="#000099"/>
<path d="M431.366,267.768v -6.34536" fill="none" stroke="#000099"/>
<path d="M420.028,270.61h 8.49683" fill="none" stroke="#000099"/>
<path d="M434.208,270.61h 8.49683" fill="none" stroke="#000099"/>
<g fill="#ff0000">
<circle cx="431.366" cy="270.61" r="2.84175"/>
</g>
<path d="M454.043,281.955v -11.3893" fill="none" stroke="#000099"/>
<path d="M454.043,264.882v -6.81713" fill="none" stroke="#000099"/>
<path d="M442.705,267.724h 8.49683" fill="none" stroke="#000099"/>
<path d="M456.885,267.724h 8.49683" fill="none" stroke="#000099"/>
<g fill="#ff0000">
<circle cx="454.043" cy="267.724" r="2.84175"/>
</g>
<path d="M476.72,314.802v -16.1124" fill="none" stroke="#000099"/>
<path d="M476.72,293.006v -8.75013" fill="none" stroke="#000099"/>
<path d="M465.382,295.848h 8.49683" fill="none" stroke="#000099"/>
<path d="M479.562,295.848h 8.49683" fill="none" stroke="#000099"/>
<g fill="#ff0000">
<circle cx="476.72" cy="295.848" r="2.84175"/>
</g>
<path d="M499.398,347.193v -23.0881" fill="none" stroke="#000099"/>
<path d="M499.398,318.422v -10.9536" fill="none" stroke="#000099"/>
<path d="M488.059,321.264h 8.49683" fill="none" stroke="#000099"/>
<path d="M502.239,321.264h 8.49683" fill="none" stroke="#000099"/>
<g fill="#ff0000">
<circle cx="499.398" cy="321.264" r="2.84175"/>
</g>
<path d="M57.1929,368.291h 453.543" fill="none" stroke="black"/>
<path d="M57.1929,358.47v 9.82109" fill="none" stroke="black"/>
<path d="M66.2638,363.38v 4.91054" fill="none" stroke="black"/>
<path d="M75.3346,363.38v 4.91054" fill="none" stroke="black"/>
<path d="M84.4055,363.38v 4.91054" fill="none" stroke="black"/>
<path d="M93.4764,363.38v 4.91054" fill="none" stroke="black"/>
<path d="M102.547,358.47v 9.82109" fill="none" stroke="black"/>
<path d="M111.618,363.38v 4.91054" fill="none" stroke="black"/>
<path d="M120.689,363.38v 4.91054" fill="none" stroke="black"/>
<path d="M129.76,363.38v 4.91054" fill="none" stroke="black"/>
<path d="M138.831,363.38v 4.91054" fill="none" stroke="black"/>
<path d="M147.902,358.47v 9.82109" fill="none" stroke="black"/>
<path d="M156.972,363.38v 4.91054" fill="none" stroke="black"/>
<path d="M166.043,363.38v 4.91054" fill="none" stroke="black"/>
<path d="M175.114,363.38v 4.91054" fill="none" stroke="black"/>
<path d="M184.185,363.38v 4.91054" fill="none" stroke="black"/>
<path d="M193.256,358.47v 9.82109" fill="none" stroke="black"/>
<path d="M202.327,363.38v 4.91054" fill="none" stroke="black"/>
<path d="M211.398,363.38v 4.91054" fill="none" stroke="black"/>
<path d="M220.469,363.38v 4.91054" fill="none" stroke="black"/>
<path d="M229.539,363.38v 4.91054" fill="none" stroke="black"/>
<path d="M238.61,358.47v 9.82109" fill="none" stroke="black"/>
<path d="M247.681,363.38v 4.91054" fill="none" stroke="black"/>
<path d="M256.752,363.38v 4.91054" fill="none" stroke="black"/>
<path d="M265.823,363.38v 4.91054" fill="none" stroke="black"/>
<path d="M274.894,363.38v 4.91054" fill="none" stroke="black"/>
<path d="M283.965,358.47v 9.82109" fill="none" stroke="black"/>
<path d="M293.035,363.38v 4.91054" fill="none" stroke="black"/>
<path d="M302.106,363.38v 4.91054" fill="none" stroke="black"/>
<path d="M311.177,363.38v 4.91054" fill="none" stroke="black"/>
<path d="M320.248,363.38v 4.91054" fill="none" stroke="black"/>
<path d="M329.319,358.47v 9.82109" fill="none" stroke="black"/>
<path d="M338.39,363.38v 4.91054" fill="none" stroke="black"/>
<path d="M347.461,363.38v 4.91054" fill="none" stroke="black"/>
<path d="M356.531,363.38v 4.91054" fill="none" stroke="black"/>
<path d="M365.602,363.38v 4.91054" fill="none" stroke="black"/>
<path d="M374.673,358.47v 9.82109" fill="none" stroke="black"/>
<path d="M383.744,363.38v 4.91054" fill="none" stroke="black"/>
<path d="M392.815,363.38v 4.91054" fill="none" stroke="black"/>
<path d="M401.886,363.38v 4.91054" fill="none" stroke="black"/>
<path d="M410.957,363.38v 4.91054" fill="none" stroke="black"/>
<path d="M420.028,358.47v 9.82109" fill="none" stroke="black"/>
<path d="M429.098,363.38v 4.91054" fill="none" stroke="black"/>
<path d="M438.169,363.38v 4.91054" fill="none" stroke="black"/>
<path d="M447.24,363.38v 4.91054" fill="none" stroke="black"/>
<path d="M456.311,363.38v 4.91054" fill="none" stroke="black"/>
<path d="M465.382,358.47v 9.82109" fill="none" stroke="black"/>
<path d="M474.453,363.38v 4.91054" fill="none" stroke="black"/>
<path d="M483.524,363.38v 4.91054" fill="none" stroke="black"/>
<path d="M492.594,363.38v 4.91054" fill="none" stroke="black"/>
<path d="M501.665,363.38v 4.91054" fill="none" stroke="black"/>
<path d="M510.736,358.47v 9.82109" fill="none" stroke="black"/>
<text xml:space="preserve" x="53.0724" y="381.505" fill="black" font-size="13.6398" font-family="Helvetica">0</text>
<text xml:space="preserve" x="92.8569" y="381.505" fill="black" font-size="13.6398" font-family="Helvetica">0.5</text>
<text xml:space="preserve" x="144.719" y="381.505" fill="black" font-size="13.6398" font-family="Helvetica">1</text>
<text xml:space="preserve" x="183.793" y="381.505" fill="black" font-size="13.6398" font-family="Helvetica">1.5</text>
<text xml:space="preserve" x="234.944" y="381.505" fill="black" font-size="13.6398" font-family="Helvetica">2</text>
<text xml:space="preserve" x="274.729" y="381.505" fill="black" font-size="13.6398" font-family="Helvetica">2.5</text>
<text xml:space="preserve" x="325.17" y="381.505" fill="black" font-size="13.6398" font-family="Helvetica">3</text>
<text xml:space="preserve" x="364.954" y="381.505" fill="black" font-size="13.6398" font-family="Helvetica">3.5</text>
<text xml:space="preserve" x="416.106" y="381.505" fill="black" font-size="13.6398" font-family="Helvetica">4</text>
<text xml:space="preserve" x="455.89" y="381.505" fill="black" font-size="13.6398" font-family="Helvetica">4.5</text>
<text xml:space="preserve" x="507.042" y="381.505" fill="black" font-size="13.6398" font-family="Helvetica">5</text>
<text xml:space="preserve" x="431.025" y="394.293" fill="black" font-size="13.6398" font-family="Helvetica"> pTjet/pTtruth</text>
<path d="M57.1929,368.291v -327.37" fill="none" stroke="black"/>
<path d="M63.9961,363.388h -6.80315" fill="none" stroke="black"/>
<path d="M63.9961,356.596h -6.80315" fill="none" stroke="black"/>
<path d="M63.9961,351.047h -6.80315" fill="none" stroke="black"/>
<path d="M63.9961,346.355h -6.80315" fill="none" stroke="black"/>
<path d="M63.9961,342.291h -6.80315" fill="none" stroke="black"/>
<path d="M63.9961,338.706h -6.80315" fill="none" stroke="black"/>
<path d="M70.7992,335.499h -13.6063" fill="none" stroke="black"/>
<text xml:space="preserve" x="47.3889" y="336.037" fill="black" font-size="9.25989" font-family="Helvetica">4</text>
<text xml:space="preserve" x="32.4697" y="341.72" fill="black" font-size="13.6398" font-family="Helvetica">10</text>
<path d="M63.9961,314.401h -6.80315" fill="none" stroke="black"/>
<path d="M63.9961,302.06h -6.80315" fill="none" stroke="black"/>
<path d="M63.9961,293.304h -6.80315" fill="none" stroke="black"/>
<path d="M63.9961,286.512h -6.80315" fill="none" stroke="black"/>
<path d="M63.9961,280.963h -6.80315" fill="none" stroke="black"/>
<path d="M63.9961,276.271h -6.80315" fill="none" stroke="black"/>
<path d="M63.9961,272.207h -6.80315" fill="none" stroke="black"/>
<path d="M63.9961,268.622h -6.80315" fill="none" stroke="black"/>
<path d="M70.7992,265.415h -13.6063" fill="none" stroke="black"/>
<text xml:space="preserve" x="47.3889" y="264.993" fill="black" font-size="9.25989" font-family="Helvetica">5</text>
<text xml:space="preserve" x="32.4697" y="271.387" fill="black" font-size="13.6398" font-family="Helvetica">10</text>
<path d="M63.9961,244.317h -6.80315" fill="none" stroke="black"/>
<path d="M63.9961,231.976h -6.80315" fill="none" stroke="black"/>
<path d="M63.9961,223.22h -6.80315" fill="none" stroke="black"/>
<path d="M63.9961,216.428h -6.80315" fill="none" stroke="black"/>
<path d="M63.9961,210.879h -6.80315" fill="none" stroke="black"/>
<path d="M63.9961,206.187h -6.80315" fill="none" stroke="black"/>
<path d="M63.9961,202.123h -6.80315" fill="none" stroke="black"/>
<path d="M63.9961,198.538h -6.80315" fill="none" stroke="black"/>
<path d="M70.7992,195.331h -13.6063" fill="none" stroke="black"/>
<text xml:space="preserve" x="47.3889" y="194.66" fill="black" font-size="9.25989" font-family="Helvetica">6</text>
<text xml:space="preserve" x="32.4697" y="201.054" fill="black" font-size="13.6398" font-family="Helvetica">10</text>
<path d="M63.9961,174.233h -6.80315" fill="none" stroke="black"/>
<path d="M63.9961,161.892h -6.80315" fill="none" stroke="black"/>
<path d="M63.9961,153.136h -6.80315" fill="none" stroke="black"/>
<path d="M63.9961,146.344h -6.80315" fill="none" stroke="black"/>
<path d="M63.9961,140.795h -6.80315" fill="none" stroke="black"/>
<path d="M63.9961,136.103h -6.80315" fill="none" stroke="black"/>
<path d="M63.9961,132.038h -6.80315" fill="none" stroke="black"/>
<path d="M63.9961,128.454h -6.80315" fill="none" stroke="black"/>
<path d="M70.7992,125.247h -13.6063" fill="none" stroke="black"/>
<text xml:space="preserve" x="47.3889" y="125.747" fill="black" font-size="9.25989" font-family="Helvetica">7</text>
<text xml:space="preserve" x="32.4697" y="131.431" fill="black" font-size="13.6398" font-family="Helvetica">10</text>
<path d="M63.9961,104.149h -6.80315" fill="none" stroke="black"/>
<path d="M63.9961,91.8081h -6.80315" fill="none" stroke="black"/>
<path d="M63.9961,83.0518h -6.80315" fill="none" stroke="black"/>
<path d="M63.9961,76.26h -6.80315" fill="none" stroke="black"/>
<path d="M63.9961,70.7107h -6.80315" fill="none" stroke="black"/>
<path d="M63.9961,66.0188h -6.80315" fill="none" stroke="black"/>
<path d="M63.9961,61.9544h -6.80315" fill="none" stroke="black"/>
<path d="M63.9961,58.3695h -6.80315" fill="none" stroke="black"/>
<path d="M70.7992,55.1626h -13.6063" fill="none" stroke="black"/>
<text xml:space="preserve" x="47.3889" y="54.7037" fill="black" font-size="9.25989" font-family="Helvetica">8</text>
<text xml:space="preserve" x="32.4697" y="61.0976" fill="black" font-size="13.6398" font-family="Helvetica">10</text>
<g transform="rotate(-90,21.8131,85.2525)">
<text xml:space="preserve" x="21.8131" y="85.2525" fill="black" font-size="13.6398" font-family="Helvetica"> Events</text>
</g>
<text xml:space="preserve" x="217.894" y="19.8923" fill="black" font-size="18.0511" font-family="Helvetica">Matched Delta R</text>
<rect x="442.705" y="26.5988" width="113.386" height="65.4739" fill="white"/>
<path d="M442.705,92.0727h 113.386" fill="none" stroke="black"/>
<path d="M556.091,92.0727v -65.4739" fill="none" stroke="black"/>
<path d="M556.091,26.5988h -113.386" fill="none" stroke="black"/>
<path d="M442.705,26.5988v 65.4739" fill="none" stroke="black"/>
<text xml:space="preserve" x="445.944" y="36.2323" fill="black" font-size="7.33906" font-family="Helvetica">Matched Delta R [track] &gt; 20 GeV</text>
<path d="M442.705,42.9673h 113.386" fill="none" stroke="black"/>
<text xml:space="preserve" x="448.076" y="56.1246" fill="black" font-size="12.3106" font-family="Helvetica">Entries </text>
<text xml:space="preserve" x="513.436" y="56.1246" fill="black" font-size="12.3106" font-family="Helvetica"> 58304</text>
<text xml:space="preserve" x="448.076" y="72.4646" fill="black" font-size="12.3106" font-family="Helvetica">Mean  </text>
<text xml:space="preserve" x="513.436" y="72.4646" fill="black" font-size="12.3106" font-family="Helvetica">  1.539</text>
<text xml:space="preserve" x="448.076" y="88.8047" fill="black" font-size="12.3106" font-family="Helvetica">Std Dev   </text>
<text xml:space="preserve" x="510.594" y="88.8047" fill="black" font-size="12.3106" font-family="Helvetica"> 0.4269</text>
<path d="M113.886,368.291v -5.00851" fill="none" stroke="#000099"/>
<path d="M113.886,357.599v -4.14556" fill="none" stroke="#000099"/>
<path d="M102.547,360.441h 8.49683" fill="none" stroke="#000099"/>
<path d="M116.728,360.441h 8.49683" fill="none" stroke="#000099"/>
<g fill="#0000ff">
<rect x="111.044" y="357.599" width="5.6835" height="5.6835"/>
</g>
<path d="M136.563,327.213v -2.30598" fill="none" stroke="#000099"/>
<path d="M136.563,319.223v -1.56001" fill="none" stroke="#000099"/>
<path d="M125.224,322.065h 8.49683" fill="none" stroke="#000099"/>
<path d="M139.405,322.065h 8.49683" fill="none" stroke="#000099"/>
<g fill="#0000ff">
<rect x="133.721" y="319.223" width="5.6835" height="5.6835"/>
</g>
<path d="M147.902,242.984h 8.49683" fill="none" stroke="#000099"/>
<path d="M162.082,242.984h 8.49683" fill="none" stroke="#000099"/>
<g fill="#0000ff">
<rect x="156.398" y="240.143" width="5.6835" height="5.6835"/>
</g>
<path d="M170.579,223.859h 8.49683" fill="none" stroke="#000099"/>
<path d="M184.759,223.859h 8.49683" fill="none" stroke="#000099"/>
<g fill="#0000ff">
<rect x="179.076" y="221.017" width="5.6835" height="5.6835"/>
</g>
<path d="M193.256,227.749h 8.49683" fill="none" stroke="#000099"/>
<path d="M207.436,227.749h 8.49683" fill="none" stroke="#000099"/>
<g fill="#0000ff">
<rect x="201.753" y="224.907" width="5.6835" height="5.6835"/>
</g>
<path d="M215.933,240.388h 8.49683" fill="none" stroke="#000099"/>
<path d="M230.113,240.388h 8.49683" fill="none" stroke="#000099"/>
<g fill="#0000ff">
<rect x="224.43" y="237.547" width="5.6835" height="5.6835"/>
</g>
<path d="M238.61,255.207h 8.49683" fill="none" stroke="#000099"/>
<path d="M252.791,255.207h 8.49683" fill="none" stroke="#000099"/>
<g fill="#0000ff">
<rect x="247.107" y="252.365" width="5.6835" height="5.6835"/>
</g>
<path d="M261.287,267.078h 8.49683" fill="none" stroke="#000099"/>
<path d="M275.468,267.078h 8.49683" fill="none" stroke="#000099"/>
<g fill="#0000ff">
<rect x="269.784" y="264.237" width="5.6835" height="5.6835"/>
</g>
<path d="M295.303,299.903v -0.805875" fill="none" stroke="#000099"/>
<path d="M295.303,293.414v -0.415147" fill="none" stroke="#000099"/>
<path d="M283.965,296.256h 8.49683" fill="none" stroke="#000099"/>
<path d="M298.145,296.256h 8.49683" fill="none" stroke="#000099"/>
<g fill="#0000ff">
<rect x="292.461" y="293.414" width="5.6835" height="5.6835"/>
</g>
<path d="M317.98,300.381v -1.02158" fill="none" stroke="#000099"/>
<path d="M317.98,293.676v -0.585988" fill="none" stroke="#000099"/>
<path d="M306.642,296.518h 8.49683" fill="none" stroke="#000099"/>
<path d="M320.822,296.518h 8.49683" fill="none" stroke="#000099"/>
<g fill="#0000ff">
<rect x="315.139" y="293.676" width="5.6835" height="5.6835"/>
</g>
<path d="M340.657,323.043v -5.60841" fill="none" stroke="#000099"/>
<path d="M340.657,311.751v -3.76497" fill="none" stroke="#000099"/>
<path d="M329.319,314.593h 8.49683" fill="none" stroke="#000099"/>
<path d="M343.499,314.593h 8.49683" fill="none" stroke="#000099"/>
<g fill="#0000ff">
<rect x="337.816" y="311.751" width="5.6835" height="5.6835"/>
</g>
<path d="M363.335,335.527v -4.8963" fill="none" stroke="#000099"/>
<path d="M363.335,324.947v -3.32244" fill="none" stroke="#000099"/>
<path d="M351.996,327.789h 8.49683" fill="none" stroke="#000099"/>
<path d="M366.176,327.789h 8.49683" fill="none" stroke="#000099"/>
<g fill="#0000ff">
<rect x="360.493" y="324.947" width="5.6835" height="5.6835"/>
</g>
<path d="M386.012,342.716v -4.90909" fill="none" stroke="#000099"/>
<path d="M386.012,332.124v -3.33054" fill="none" stroke="#000099"/>
<path d="M374.673,334.965h 8.49683" fill="none" stroke="#000099"/>
<path d="M388.854,334.965h 8.49683" fill="none" stroke="#000099"/>
<g fill="#0000ff">
<rect x="383.17" y="332.124" width="5.6835" height="5.6835"/>
</g>
<path d="M454.043,368.291v -4.49455" fill="none" stroke="#000099"/>
<path d="M454.043,358.113v -11.0647" fill="none" stroke="#000099"/>
<path d="M442.705,360.954h 8.49683" fill="none" stroke="#000099"/>
<path d="M456.885,360.954h 8.49683" fill="none" stroke="#000099"/>
<g fill="#0000ff">
<rect x="451.202" y="358.113" width="5.6835" height="5.6835"/>
</g>
<text xml:space="preserve" x="217.894" y="19.8923" fill="black" font-size="18.0511" font-family="Helvetica">Matched Delta R</text></svg>
