<?xml version="1.0" standalone="no"?>
<svg width="567.429" height="409.712" viewBox="0 0 567.429 409.712" xmlns="http://www.w3.org/2000/svg" shape-rendering="crispEdges">
<title>
prof_truth_npv.svg
</title>
<desc>
Creator: ROOT Version 6.22/02
CreationDate: Tue Oct  6 04:56:30 2020</desc>
<defs>
</defs>
<rect x="0.5" y="0" width="566.929" height="409.212" fill="white"/>
<rect x="57.1929" y="40.9212" width="453.543" height="327.37" fill="white"/>
<rect x="57.1929" y="40.9212" width="453.543" height="327.37" fill="none" stroke="black"/>
<path d="M98.0118,72.5169v -1.18375" fill="none" stroke="#000099"/>
<path d="M98.0118,71.3332v -1.18375" fill="none" stroke="#000099"/>
<path d="M93.4764,71.3332h 4.53543" fill="none" stroke="#000099"/>
<path d="M98.0118,71.3332h 4.53543" fill="none" stroke="#000099"/>
<g stroke="black" stroke-width="1" fill="none">
<line x1="97.0118" y1="71.3332" x2="98.0118" y2="71.3332"/>
</g>
<path d="M107.083,71.5644v -1.44176" fill="none" stroke="#000099"/>
<path d="M107.083,70.1226v -1.44176" fill="none" stroke="#000099"/>
<path d="M102.547,70.1226h 4.53543" fill="none" stroke="#000099"/>
<path d="M107.083,70.1226h 4.53543" fill="none" stroke="#000099"/>
<g stroke="black" stroke-width="1" fill="none">
<line x1="106.083" y1="70.1226" x2="107.083" y2="70.1226"/>
</g>
<path d="M116.154,71.5904v -1.6735" fill="none" stroke="#000099"/>
<path d="M116.154,69.9169v -1.6735" fill="none" stroke="#000099"/>
<path d="M111.618,69.9169h 4.53543" fill="none" stroke="#000099"/>
<path d="M116.154,69.9169h 4.53543" fill="none" stroke="#000099"/>
<g stroke="black" stroke-width="1" fill="none">
<line x1="115.154" y1="69.9169" x2="116.154" y2="69.9169"/>
</g>
<path d="M125.224,69.079v -2.16446" fill="none" stroke="#000099"/>
<path d="M125.224,66.9146v -2.16446" fill="none" stroke="#000099"/>
<path d="M120.689,66.9146h 4.53543" fill="none" stroke="#000099"/>
<path d="M125.224,66.9146h 4.53543" fill="none" stroke="#000099"/>
<g stroke="black" stroke-width="1" fill="none">
<line x1="124.224" y1="66.9146" x2="125.224" y2="66.9146"/>
</g>
<path d="M134.295,72.4071v -2.37677" fill="none" stroke="#000099"/>
<path d="M134.295,70.0303v -2.37677" fill="none" stroke="#000099"/>
<path d="M129.76,70.0303h 4.53543" fill="none" stroke="#000099"/>
<path d="M134.295,70.0303h 4.53543" fill="none" stroke="#000099"/>
<g stroke="black" stroke-width="1" fill="none">
<line x1="133.295" y1="70.0303" x2="134.295" y2="70.0303"/>
</g>
<path d="M143.366,68.895v -2.77928" fill="none" stroke="#000099"/>
<path d="M143.366,66.1157v -2.77928" fill="none" stroke="#000099"/>
<path d="M138.831,66.1157h 4.53543" fill="none" stroke="#000099"/>
<path d="M143.366,66.1157h 4.53543" fill="none" stroke="#000099"/>
<g stroke="black" stroke-width="1" fill="none">
<line x1="142.366" y1="66.1157" x2="143.366" y2="66.1157"/>
</g>
<path d="M152.437,77.4395v -3.0418" fill="none" stroke="#000099"/>
<path d="M152.437,74.3977v -3.0418" fill="none" stroke="#000099"/>
<path d="M147.902,74.3977h 4.53543" fill="none" stroke="#000099"/>
<path d="M152.437,74.3977h 4.53543" fill="none" stroke="#000099"/>
<g stroke="black" stroke-width="1" fill="none">
<line x1="151.437" y1="74.3977" x2="152.437" y2="74.3977"/>
</g>
<path d="M161.508,72.9494v -3.62986" fill="none" stroke="#000099"/>
<path d="M161.508,69.3196v -3.62986" fill="none" stroke="#000099"/>
<path d="M156.972,69.3196h 4.53543" fill="none" stroke="#000099"/>
<path d="M161.508,69.3196h 4.53543" fill="none" stroke="#000099"/>
<g stroke="black" stroke-width="1" fill="none">
<line x1="160.508" y1="69.3196" x2="161.508" y2="69.3196"/>
</g>
<path d="M170.579,72.6548v -4.0715" fill="none" stroke="#000099"/>
<path d="M170.579,68.5833v -4.0715" fill="none" stroke="#000099"/>
<path d="M166.043,68.5833h 4.53543" fill="none" stroke="#000099"/>
<path d="M170.579,68.5833h 4.53543" fill="none" stroke="#000099"/>
<g stroke="black" stroke-width="1" fill="none">
<line x1="169.579" y1="68.5833" x2="170.579" y2="68.5833"/>
</g>
<path d="M179.65,75.1826v -4.19474" fill="none" stroke="#000099"/>
<path d="M179.65,70.9879v -4.19474" fill="none" stroke="#000099"/>
<path d="M175.114,70.9879h 4.53543" fill="none" stroke="#000099"/>
<path d="M179.65,70.9879h 4.53543" fill="none" stroke="#000099"/>
<g stroke="black" stroke-width="1" fill="none">
<line x1="178.65" y1="70.9879" x2="179.65" y2="70.9879"/>
</g>
<path d="M188.72,68.3423v -4.83372" fill="none" stroke="#000099"/>
<path d="M188.72,63.5086v -4.83372" fill="none" stroke="#000099"/>
<path d="M184.185,63.5086h 4.53543" fill="none" stroke="#000099"/>
<path d="M188.72,63.5086h 4.53543" fill="none" stroke="#000099"/>
<g stroke="black" stroke-width="1" fill="none">
<line x1="187.72" y1="63.5086" x2="188.72" y2="63.5086"/>
</g>
<path d="M197.791,76.9172v -5.24853" fill="none" stroke="#000099"/>
<path d="M197.791,71.6687v -5.24853" fill="none" stroke="#000099"/>
<path d="M193.256,71.6687h 4.53543" fill="none" stroke="#000099"/>
<path d="M197.791,71.6687h 4.53543" fill="none" stroke="#000099"/>
<g stroke="black" stroke-width="1" fill="none">
<line x1="196.791" y1="71.6687" x2="197.791" y2="71.6687"/>
</g>
<path d="M206.862,93.8402v -5.38397" fill="none" stroke="#000099"/>
<path d="M206.862,88.4562v -5.38397" fill="none" stroke="#000099"/>
<path d="M202.327,88.4562h 4.53543" fill="none" stroke="#000099"/>
<path d="M206.862,88.4562h 4.53543" fill="none" stroke="#000099"/>
<g stroke="black" stroke-width="1" fill="none">
<line x1="205.862" y1="88.4562" x2="206.862" y2="88.4562"/>
</g>
<path d="M215.933,78.4909v -5.45976" fill="none" stroke="#000099"/>
<path d="M215.933,73.0312v -5.45976" fill="none" stroke="#000099"/>
<path d="M211.398,73.0312h 4.53543" fill="none" stroke="#000099"/>
<path d="M215.933,73.0312h 4.53543" fill="none" stroke="#000099"/>
<g stroke="black" stroke-width="1" fill="none">
<line x1="214.933" y1="73.0312" x2="215.933" y2="73.0312"/>
</g>
<path d="M225.004,76.5538v -5.41788" fill="none" stroke="#000099"/>
<path d="M225.004,71.1359v -5.41788" fill="none" stroke="#000099"/>
<path d="M220.469,71.1359h 4.53543" fill="none" stroke="#000099"/>
<path d="M225.004,71.1359h 4.53543" fill="none" stroke="#000099"/>
<g stroke="black" stroke-width="1" fill="none">
<line x1="224.004" y1="71.1359" x2="225.004" y2="71.1359"/>
</g>
<path d="M234.075,71.7419v -5.18462" fill="none" stroke="#000099"/>
<path d="M234.075,66.5573v -5.18462" fill="none" stroke="#000099"/>
<path d="M229.539,66.5573h 4.53543" fill="none" stroke="#000099"/>
<path d="M234.075,66.5573h 4.53543" fill="none" stroke="#000099"/>
<g stroke="black" stroke-width="1" fill="none">
<line x1="233.075" y1="66.5573" x2="234.075" y2="66.5573"/>
</g>
<path d="M243.146,76.3215v -4.27607" fill="none" stroke="#000099"/>
<path d="M243.146,72.0454v -4.27607" fill="none" stroke="#000099"/>
<path d="M238.61,72.0454h 4.53543" fill="none" stroke="#000099"/>
<path d="M243.146,72.0454h 4.53543" fill="none" stroke="#000099"/>
<g stroke="black" stroke-width="1" fill="none">
<line x1="242.146" y1="72.0454" x2="243.146" y2="72.0454"/>
</g>
<path d="M252.217,73.1318v -4.81769" fill="none" stroke="#000099"/>
<path d="M252.217,68.3141v -4.81769" fill="none" stroke="#000099"/>
<path d="M247.681,68.3141h 4.53543" fill="none" stroke="#000099"/>
<path d="M252.217,68.3141h 4.53543" fill="none" stroke="#000099"/>
<g stroke="black" stroke-width="1" fill="none">
<line x1="251.217" y1="68.3141" x2="252.217" y2="68.3141"/>
</g>
<path d="M261.287,72.8985v -4.32889" fill="none" stroke="#000099"/>
<path d="M261.287,68.5696v -4.32889" fill="none" stroke="#000099"/>
<path d="M256.752,68.5696h 4.53543" fill="none" stroke="#000099"/>
<path d="M261.287,68.5696h 4.53543" fill="none" stroke="#000099"/>
<g stroke="black" stroke-width="1" fill="none">
<line x1="260.287" y1="68.5696" x2="261.287" y2="68.5696"/>
</g>
<path d="M270.358,66.011v -4.75038" fill="none" stroke="#000099"/>
<path d="M270.358,61.2606v -4.75038" fill="none" stroke="#000099"/>
<path d="M265.823,61.2606h 4.53543" fill="none" stroke="#000099"/>
<path d="M270.358,61.2606h 4.53543" fill="none" stroke="#000099"/>
<g stroke="black" stroke-width="1" fill="none">
<line x1="269.358" y1="61.2606" x2="270.358" y2="61.2606"/>
</g>
<path d="M279.429,77.3934v -4.57676" fill="none" stroke="#000099"/>
<path d="M279.429,72.8167v -4.57676" fill="none" stroke="#000099"/>
<path d="M274.894,72.8167h 4.53543" fill="none" stroke="#000099"/>
<path d="M279.429,72.8167h 4.53543" fill="none" stroke="#000099"/>
<g stroke="black" stroke-width="1" fill="none">
<line x1="278.429" y1="72.8167" x2="279.429" y2="72.8167"/>
</g>
<path d="M288.5,86.0047v -4.60502" fill="none" stroke="#000099"/>
<path d="M288.5,81.3997v -4.60502" fill="none" stroke="#000099"/>
<path d="M283.965,81.3997h 4.53543" fill="none" stroke="#000099"/>
<path d="M288.5,81.3997h 4.53543" fill="none" stroke="#000099"/>
<g stroke="black" stroke-width="1" fill="none">
<line x1="287.5" y1="81.3997" x2="288.5" y2="81.3997"/>
</g>
<path d="M297.571,73.9296v -4.91054" fill="none" stroke="#000099"/>
<path d="M297.571,69.0191v -4.91054" fill="none" stroke="#000099"/>
<path d="M293.035,69.0191h 4.53543" fill="none" stroke="#000099"/>
<path d="M297.571,69.0191h 4.53543" fill="none" stroke="#000099"/>
<g stroke="black" stroke-width="1" fill="none">
<line x1="296.571" y1="69.0191" x2="297.571" y2="69.0191"/>
</g>
<path d="M306.642,73.5895v -4.8846" fill="none" stroke="#000099"/>
<path d="M306.642,68.7049v -4.8846" fill="none" stroke="#000099"/>
<path d="M302.106,68.7049h 4.53543" fill="none" stroke="#000099"/>
<path d="M306.642,68.7049h 4.53543" fill="none" stroke="#000099"/>
<g stroke="black" stroke-width="1" fill="none">
<line x1="305.642" y1="68.7049" x2="306.642" y2="68.7049"/>
</g>
<path d="M315.713,86.0212v -5.07615" fill="none" stroke="#000099"/>
<path d="M315.713,80.9451v -5.07615" fill="none" stroke="#000099"/>
<path d="M311.177,80.9451h 4.53543" fill="none" stroke="#000099"/>
<path d="M315.713,80.9451h 4.53543" fill="none" stroke="#000099"/>
<g stroke="black" stroke-width="1" fill="none">
<line x1="314.713" y1="80.9451" x2="315.713" y2="80.9451"/>
</g>
<path d="M324.783,79.3114v -4.60101" fill="none" stroke="#000099"/>
<path d="M324.783,74.7104v -4.60101" fill="none" stroke="#000099"/>
<path d="M320.248,74.7104h 4.53543" fill="none" stroke="#000099"/>
<path d="M324.783,74.7104h 4.53543" fill="none" stroke="#000099"/>
<g stroke="black" stroke-width="1" fill="none">
<line x1="323.783" y1="74.7104" x2="324.783" y2="74.7104"/>
</g>
<path d="M333.854,83.5212v -4.6219" fill="none" stroke="#000099"/>
<path d="M333.854,78.8993v -4.6219" fill="none" stroke="#000099"/>
<path d="M329.319,78.8993h 4.53543" fill="none" stroke="#000099"/>
<path d="M333.854,78.8993h 4.53543" fill="none" stroke="#000099"/>
<g stroke="black" stroke-width="1" fill="none">
<line x1="332.854" y1="78.8993" x2="333.854" y2="78.8993"/>
</g>
<path d="M342.925,75.1276v -4.42333" fill="none" stroke="#000099"/>
<path d="M342.925,70.7043v -4.42333" fill="none" stroke="#000099"/>
<path d="M338.39,70.7043h 4.53543" fill="none" stroke="#000099"/>
<path d="M342.925,70.7043h 4.53543" fill="none" stroke="#000099"/>
<g stroke="black" stroke-width="1" fill="none">
<line x1="341.925" y1="70.7043" x2="342.925" y2="70.7043"/>
</g>
<path d="M351.996,76.6816v -4.8056" fill="none" stroke="#000099"/>
<path d="M351.996,71.876v -4.8056" fill="none" stroke="#000099"/>
<path d="M347.461,71.876h 4.53543" fill="none" stroke="#000099"/>
<path d="M351.996,71.876h 4.53543" fill="none" stroke="#000099"/>
<g stroke="black" stroke-width="1" fill="none">
<line x1="350.996" y1="71.876" x2="351.996" y2="71.876"/>
</g>
<path d="M361.067,80.1494v -4.79923" fill="none" stroke="#000099"/>
<path d="M361.067,75.3502v -4.79923" fill="none" stroke="#000099"/>
<path d="M356.531,75.3502h 4.53543" fill="none" stroke="#000099"/>
<path d="M361.067,75.3502h 4.53543" fill="none" stroke="#000099"/>
<g stroke="black" stroke-width="1" fill="none">
<line x1="360.067" y1="75.3502" x2="361.067" y2="75.3502"/>
</g>
<path d="M370.138,72.7216v -4.39742" fill="none" stroke="#000099"/>
<path d="M370.138,68.3242v -4.39742" fill="none" stroke="#000099"/>
<path d="M365.602,68.3242h 4.53543" fill="none" stroke="#000099"/>
<path d="M370.138,68.3242h 4.53543" fill="none" stroke="#000099"/>
<g stroke="black" stroke-width="1" fill="none">
<line x1="369.138" y1="68.3242" x2="370.138" y2="68.3242"/>
</g>
<path d="M379.209,76.6867v -4.56895" fill="none" stroke="#000099"/>
<path d="M379.209,72.1177v -4.56895" fill="none" stroke="#000099"/>
<path d="M374.673,72.1177h 4.53543" fill="none" stroke="#000099"/>
<path d="M379.209,72.1177h 4.53543" fill="none" stroke="#000099"/>
<g stroke="black" stroke-width="1" fill="none">
<line x1="378.209" y1="72.1177" x2="379.209" y2="72.1177"/>
</g>
<path d="M388.28,82.9025v -4.47866" fill="none" stroke="#000099"/>
<path d="M388.28,78.4238v -4.47866" fill="none" stroke="#000099"/>
<path d="M383.744,78.4238h 4.53543" fill="none" stroke="#000099"/>
<path d="M388.28,78.4238h 4.53543" fill="none" stroke="#000099"/>
<g stroke="black" stroke-width="1" fill="none">
<line x1="387.28" y1="78.4238" x2="388.28" y2="78.4238"/>
</g>
<path d="M397.35,82.5195v -4.33205" fill="none" stroke="#000099"/>
<path d="M397.35,78.1875v -4.33205" fill="none" stroke="#000099"/>
<path d="M392.815,78.1875h 4.53543" fill="none" stroke="#000099"/>
<path d="M397.35,78.1875h 4.53543" fill="none" stroke="#000099"/>
<g stroke="black" stroke-width="1" fill="none">
<line x1="396.35" y1="78.1875" x2="397.35" y2="78.1875"/>
</g>
<path d="M406.421,81.4611v -4.40386" fill="none" stroke="#000099"/>
<path d="M406.421,77.0573v -4.40386" fill="none" stroke="#000099"/>
<path d="M401.886,77.0573h 4.53543" fill="none" stroke="#000099"/>
<path d="M406.421,77.0573h 4.53543" fill="none" stroke="#000099"/>
<g stroke="black" stroke-width="1" fill="none">
<line x1="405.421" y1="77.0573" x2="406.421" y2="77.0573"/>
</g>
<path d="M415.492,87.0134v -4.06799" fill="none" stroke="#000099"/>
<path d="M415.492,82.9454v -4.06799" fill="none" stroke="#000099"/>
<path d="M410.957,82.9454h 4.53543" fill="none" stroke="#000099"/>
<path d="M415.492,82.9454h 4.53543" fill="none" stroke="#000099"/>
<g stroke="black" stroke-width="1" fill="none">
<line x1="414.492" y1="82.9454" x2="415.492" y2="82.9454"/>
</g>
<path d="M424.563,81.534v -4.84159" fill="none" stroke="#000099"/>
<path d="M424.563,76.6924v -4.84159" fill="none" stroke="#000099"/>
<path d="M420.028,76.6924h 4.53543" fill="none" stroke="#000099"/>
<path d="M424.563,76.6924h 4.53543" fill="none" stroke="#000099"/>
<g stroke="black" stroke-width="1" fill="none">
<line x1="423.563" y1="76.6924" x2="424.563" y2="76.6924"/>
</g>
<path d="M433.634,83.9121v -4.91954" fill="none" stroke="#000099"/>
<path d="M433.634,78.9926v -4.91954" fill="none" stroke="#000099"/>
<path d="M429.098,78.9926h 4.53543" fill="none" stroke="#000099"/>
<path d="M433.634,78.9926h 4.53543" fill="none" stroke="#000099"/>
<g stroke="black" stroke-width="1" fill="none">
<line x1="432.634" y1="78.9926" x2="433.634" y2="78.9926"/>
</g>
<path d="M442.705,80.5988v -4.4558" fill="none" stroke="#000099"/>
<path d="M442.705,76.143v -4.4558" fill="none" stroke="#000099"/>
<path d="M438.169,76.143h 4.53543" fill="none" stroke="#000099"/>
<path d="M442.705,76.143h 4.53543" fill="none" stroke="#000099"/>
<g stroke="black" stroke-width="1" fill="none">
<line x1="441.705" y1="76.143" x2="442.705" y2="76.143"/>
</g>
<path d="M451.776,79.7498v -4.89402" fill="none" stroke="#000099"/>
<path d="M451.776,74.8557v -4.89402" fill="none" stroke="#000099"/>
<path d="M447.24,74.8557h 4.53543" fill="none" stroke="#000099"/>
<path d="M451.776,74.8557h 4.53543" fill="none" stroke="#000099"/>
<g stroke="black" stroke-width="1" fill="none">
<line x1="450.776" y1="74.8557" x2="451.776" y2="74.8557"/>
</g>
<path d="M460.846,80.9873v -4.69299" fill="none" stroke="#000099"/>
<path d="M460.846,76.2943v -4.69299" fill="none" stroke="#000099"/>
<path d="M456.311,76.2943h 4.53543" fill="none" stroke="#000099"/>
<path d="M460.846,76.2943h 4.53543" fill="none" stroke="#000099"/>
<g stroke="black" stroke-width="1" fill="none">
<line x1="459.846" y1="76.2943" x2="460.846" y2="76.2943"/>
</g>
<path d="M469.917,73.9923v -4.33034" fill="none" stroke="#000099"/>
<path d="M469.917,69.6619v -4.33034" fill="none" stroke="#000099"/>
<path d="M465.382,69.6619h 4.53543" fill="none" stroke="#000099"/>
<path d="M469.917,69.6619h 4.53543" fill="none" stroke="#000099"/>
<g stroke="black" stroke-width="1" fill="none">
<line x1="468.917" y1="69.6619" x2="469.917" y2="69.6619"/>
</g>
<path d="M478.988,80.9883v -4.7199" fill="none" stroke="#000099"/>
<path d="M478.988,76.2684v -4.7199" fill="none" stroke="#000099"/>
<path d="M474.453,76.2684h 4.53543" fill="none" stroke="#000099"/>
<path d="M478.988,76.2684h 4.53543" fill="none" stroke="#000099"/>
<g stroke="black" stroke-width="1" fill="none">
<line x1="477.988" y1="76.2684" x2="478.988" y2="76.2684"/>
</g>
<path d="M488.059,81.245v -4.7635" fill="none" stroke="#000099"/>
<path d="M488.059,76.4815v -4.7635" fill="none" stroke="#000099"/>
<path d="M483.524,76.4815h 4.53543" fill="none" stroke="#000099"/>
<path d="M488.059,76.4815h 4.53543" fill="none" stroke="#000099"/>
<g stroke="black" stroke-width="1" fill="none">
<line x1="487.059" y1="76.4815" x2="488.059" y2="76.4815"/>
</g>
<path d="M497.13,80.4981v -4.74691" fill="none" stroke="#000099"/>
<path d="M497.13,75.7512v -4.74691" fill="none" stroke="#000099"/>
<path d="M492.594,75.7512h 4.53543" fill="none" stroke="#000099"/>
<path d="M497.13,75.7512h 4.53543" fill="none" stroke="#000099"/>
<g stroke="black" stroke-width="1" fill="none">
<line x1="496.13" y1="75.7512" x2="497.13" y2="75.7512"/>
</g>
<path d="M506.201,81.1001v -4.53305" fill="none" stroke="#000099"/>
<path d="M506.201,76.567v -4.53305" fill="none" stroke="#000099"/>
<path d="M501.665,76.567h 4.53543" fill="none" stroke="#000099"/>
<path d="M506.201,76.567h 4.53543" fill="none" stroke="#000099"/>
<g stroke="black" stroke-width="1" fill="none">
<line x1="505.201" y1="76.567" x2="506.201" y2="76.567"/>
</g>
<path d="M57.1929,368.291h 453.543" fill="none" stroke="black"/>
<path d="M94.2169,358.47v 9.82109" fill="none" stroke="black"/>
<path d="M103.473,363.38v 4.91054" fill="none" stroke="black"/>
<path d="M112.729,363.38v 4.91054" fill="none" stroke="black"/>
<path d="M121.985,363.38v 4.91054" fill="none" stroke="black"/>
<path d="M131.241,363.38v 4.91054" fill="none" stroke="black"/>
<path d="M140.497,358.47v 9.82109" fill="none" stroke="black"/>
<path d="M149.753,363.38v 4.91054" fill="none" stroke="black"/>
<path d="M159.009,363.38v 4.91054" fill="none" stroke="black"/>
<path d="M168.265,363.38v 4.91054" fill="none" stroke="black"/>
<path d="M177.521,363.38v 4.91054" fill="none" stroke="black"/>
<path d="M186.777,358.47v 9.82109" fill="none" stroke="black"/>
<path d="M196.033,363.38v 4.91054" fill="none" stroke="black"/>
<path d="M205.289,363.38v 4.91054" fill="none" stroke="black"/>
<path d="M214.545,363.38v 4.91054" fill="none" stroke="black"/>
<path d="M223.801,363.38v 4.91054" fill="none" stroke="black"/>
<path d="M233.057,358.47v 9.82109" fill="none" stroke="black"/>
<path d="M242.313,363.38v 4.91054" fill="none" stroke="black"/>
<path d="M251.569,363.38v 4.91054" fill="none" stroke="black"/>
<path d="M260.825,363.38v 4.91054" fill="none" stroke="black"/>
<path d="M270.081,363.38v 4.91054" fill="none" stroke="black"/>
<path d="M279.337,358.47v 9.82109" fill="none" stroke="black"/>
<path d="M288.593,363.38v 4.91054" fill="none" stroke="black"/>
<path d="M297.849,363.38v 4.91054" fill="none" stroke="black"/>
<path d="M307.105,363.38v 4.91054" fill="none" stroke="black"/>
<path d="M316.361,363.38v 4.91054" fill="none" stroke="black"/>
<path d="M325.617,358.47v 9.82109" fill="none" stroke="black"/>
<path d="M334.872,363.38v 4.91054" fill="none" stroke="black"/>
<path d="M344.128,363.38v 4.91054" fill="none" stroke="black"/>
<path d="M353.384,363.38v 4.91054" fill="none" stroke="black"/>
<path d="M362.64,363.38v 4.91054" fill="none" stroke="black"/>
<path d="M371.896,358.47v 9.82109" fill="none" stroke="black"/>
<path d="M381.152,363.38v 4.91054" fill="none" stroke="black"/>
<path d="M390.408,363.38v 4.91054" fill="none" stroke="black"/>
<path d="M399.664,363.38v 4.91054" fill="none" stroke="black"/>
<path d="M408.92,363.38v 4.91054" fill="none" stroke="black"/>
<path d="M418.176,358.47v 9.82109" fill="none" stroke="black"/>
<path d="M427.432,363.38v 4.91054" fill="none" stroke="black"/>
<path d="M436.688,363.38v 4.91054" fill="none" stroke="black"/>
<path d="M445.944,363.38v 4.91054" fill="none" stroke="black"/>
<path d="M455.2,363.38v 4.91054" fill="none" stroke="black"/>
<path d="M464.456,358.47v 9.82109" fill="none" stroke="black"/>
<path d="M473.712,363.38v 4.91054" fill="none" stroke="black"/>
<path d="M482.968,363.38v 4.91054" fill="none" stroke="black"/>
<path d="M492.224,363.38v 4.91054" fill="none" stroke="black"/>
<path d="M501.48,363.38v 4.91054" fill="none" stroke="black"/>
<path d="M510.736,358.47v 9.82109" fill="none" stroke="black"/>
<path d="M94.2169,358.47v 9.82109" fill="none" stroke="black"/>
<path d="M84.9609,363.38v 4.91054" fill="none" stroke="black"/>
<path d="M75.7049,363.38v 4.91054" fill="none" stroke="black"/>
<path d="M66.4489,363.38v 4.91054" fill="none" stroke="black"/>
<path d="M510.736,358.47v 9.82109" fill="none" stroke="black"/>
<text xml:space="preserve" x="90.0151" y="381.505" fill="black" font-size="13.6398" font-family="Helvetica">5</text>
<text xml:space="preserve" x="132.641" y="381.505" fill="black" font-size="13.6398" font-family="Helvetica">10</text>
<text xml:space="preserve" x="178.82" y="381.505" fill="black" font-size="13.6398" font-family="Helvetica">15</text>
<text xml:space="preserve" x="224.998" y="381.505" fill="black" font-size="13.6398" font-family="Helvetica">20</text>
<text xml:space="preserve" x="271.177" y="381.505" fill="black" font-size="13.6398" font-family="Helvetica">25</text>
<text xml:space="preserve" x="317.355" y="381.505" fill="black" font-size="13.6398" font-family="Helvetica">30</text>
<text xml:space="preserve" x="363.534" y="381.505" fill="black" font-size="13.6398" font-family="Helvetica">35</text>
<text xml:space="preserve" x="409.712" y="381.505" fill="black" font-size="13.6398" font-family="Helvetica">40</text>
<text xml:space="preserve" x="456.601" y="381.505" fill="black" font-size="13.6398" font-family="Helvetica">45</text>
<text xml:space="preserve" x="502.779" y="381.505" fill="black" font-size="13.6398" font-family="Helvetica">50</text>
<text xml:space="preserve" x="482.887" y="396.424" fill="black" font-size="13.6398" font-family="Helvetica">NPV</text>
<path d="M57.1929,368.291v -327.37" fill="none" stroke="black"/>
<path d="M70.7992,368.291h -13.6063" fill="none" stroke="black"/>
<path d="M63.9961,361.249h -6.80315" fill="none" stroke="black"/>
<path d="M63.9961,354.207h -6.80315" fill="none" stroke="black"/>
<path d="M63.9961,347.165h -6.80315" fill="none" stroke="black"/>
<path d="M70.7992,340.123h -13.6063" fill="none" stroke="black"/>
<path d="M63.9961,333.081h -6.80315" fill="none" stroke="black"/>
<path d="M63.9961,326.04h -6.80315" fill="none" stroke="black"/>
<path d="M63.9961,318.998h -6.80315" fill="none" stroke="black"/>
<path d="M70.7992,311.956h -13.6063" fill="none" stroke="black"/>
<path d="M63.9961,304.914h -6.80315" fill="none" stroke="black"/>
<path d="M63.9961,297.872h -6.80315" fill="none" stroke="black"/>
<path d="M63.9961,290.83h -6.80315" fill="none" stroke="black"/>
<path d="M70.7992,283.788h -13.6063" fill="none" stroke="black"/>
<path d="M63.9961,276.747h -6.80315" fill="none" stroke="black"/>
<path d="M63.9961,269.705h -6.80315" fill="none" stroke="black"/>
<path d="M63.9961,262.663h -6.80315" fill="none" stroke="black"/>
<path d="M70.7992,255.621h -13.6063" fill="none" stroke="black"/>
<path d="M63.9961,248.579h -6.80315" fill="none" stroke="black"/>
<path d="M63.9961,241.537h -6.80315" fill="none" stroke="black"/>
<path d="M63.9961,234.495h -6.80315" fill="none" stroke="black"/>
<path d="M70.7992,227.453h -13.6063" fill="none" stroke="black"/>
<path d="M63.9961,220.412h -6.80315" fill="none" stroke="black"/>
<path d="M63.9961,213.37h -6.80315" fill="none" stroke="black"/>
<path d="M63.9961,206.328h -6.80315" fill="none" stroke="black"/>
<path d="M70.7992,199.286h -13.6063" fill="none" stroke="black"/>
<path d="M63.9961,192.244h -6.80315" fill="none" stroke="black"/>
<path d="M63.9961,185.202h -6.80315" fill="none" stroke="black"/>
<path d="M63.9961,178.16h -6.80315" fill="none" stroke="black"/>
<path d="M70.7992,171.118h -13.6063" fill="none" stroke="black"/>
<path d="M63.9961,164.077h -6.80315" fill="none" stroke="black"/>
<path d="M63.9961,157.035h -6.80315" fill="none" stroke="black"/>
<path d="M63.9961,149.993h -6.80315" fill="none" stroke="black"/>
<path d="M70.7992,142.951h -13.6063" fill="none" stroke="black"/>
<path d="M63.9961,135.909h -6.80315" fill="none" stroke="black"/>
<path d="M63.9961,128.867h -6.80315" fill="none" stroke="black"/>
<path d="M63.9961,121.825h -6.80315" fill="none" stroke="black"/>
<path d="M70.7992,114.784h -13.6063" fill="none" stroke="black"/>
<path d="M63.9961,107.742h -6.80315" fill="none" stroke="black"/>
<path d="M63.9961,100.7h -6.80315" fill="none" stroke="black"/>
<path d="M63.9961,93.6579h -6.80315" fill="none" stroke="black"/>
<path d="M70.7992,86.616h -13.6063" fill="none" stroke="black"/>
<path d="M63.9961,79.5742h -6.80315" fill="none" stroke="black"/>
<path d="M63.9961,72.5323h -6.80315" fill="none" stroke="black"/>
<path d="M63.9961,65.4904h -6.80315" fill="none" stroke="black"/>
<path d="M70.7992,58.4486h -13.6063" fill="none" stroke="black"/>
<path d="M70.7992,58.4486h -13.6063" fill="none" stroke="black"/>
<path d="M63.9961,51.4067h -6.80315" fill="none" stroke="black"/>
<path d="M63.9961,44.3648h -6.80315" fill="none" stroke="black"/>
<text xml:space="preserve" x="46.6784" y="372.98" fill="black" font-size="13.6398" font-family="Helvetica">0</text>
<text xml:space="preserve" x="46.6784" y="345.273" fill="black" font-size="13.6398" font-family="Helvetica">2</text>
<text xml:space="preserve" x="46.6784" y="317.566" fill="black" font-size="13.6398" font-family="Helvetica">4</text>
<text xml:space="preserve" x="46.6784" y="288.438" fill="black" font-size="13.6398" font-family="Helvetica">6</text>
<text xml:space="preserve" x="46.6784" y="260.02" fill="black" font-size="13.6398" font-family="Helvetica">8</text>
<text xml:space="preserve" x="38.8636" y="232.313" fill="black" font-size="13.6398" font-family="Helvetica">10</text>
<text xml:space="preserve" x="38.8636" y="204.606" fill="black" font-size="13.6398" font-family="Helvetica">12</text>
<text xml:space="preserve" x="38.8636" y="176.189" fill="black" font-size="13.6398" font-family="Helvetica">14</text>
<text xml:space="preserve" x="38.8636" y="147.771" fill="black" font-size="13.6398" font-family="Helvetica">16</text>
<text xml:space="preserve" x="38.8636" y="119.354" fill="black" font-size="13.6398" font-family="Helvetica">18</text>
<text xml:space="preserve" x="38.8636" y="90.936" fill="black" font-size="13.6398" font-family="Helvetica">20</text>
<text xml:space="preserve" x="38.8636" y="63.9394" fill="black" font-size="13.6398" font-family="Helvetica">22</text>
<g transform="rotate(-90,25.3653,78.1481)">
<text xml:space="preserve" x="25.3653" y="78.1481" fill="black" font-size="13.6398" font-family="Helvetica"> jet pT</text>
</g>
<rect x="442.705" y="26.5988" width="113.386" height="98.2109" fill="white"/>
<path d="M442.705,124.81h 113.386" fill="none" stroke="black"/>
<path d="M556.091,124.81v -98.2109" fill="none" stroke="black"/>
<path d="M556.091,26.5988h -113.386" fill="none" stroke="black"/>
<path d="M442.705,26.5988v 98.2109" fill="none" stroke="black"/>
<text xml:space="preserve" x="447.365" y="36.9428" fill="black" font-size="8.84442" font-family="Helvetica">Profile Truth-jet pT vs. NPV</text>
<path d="M442.705,42.9673h 113.386" fill="none" stroke="black"/>
<text xml:space="preserve" x="448.076" y="55.4141" fill="black" font-size="11.8754" font-family="Helvetica">Entries </text>
<text xml:space="preserve" x="504.911" y="55.4141" fill="black" font-size="11.8754" font-family="Helvetica"> 1029231</text>
<text xml:space="preserve" x="448.076" y="71.7542" fill="black" font-size="11.8754" font-family="Helvetica">Mean  </text>
<text xml:space="preserve" x="515.567" y="71.7542" fill="black" font-size="11.8754" font-family="Helvetica">  11.29</text>
<text xml:space="preserve" x="448.076" y="87.3838" fill="black" font-size="11.8754" font-family="Helvetica">Mean y </text>
<text xml:space="preserve" x="515.567" y="88.0943" fill="black" font-size="11.8754" font-family="Helvetica">  21.15</text>
<text xml:space="preserve" x="448.076" y="104.434" fill="black" font-size="11.8754" font-family="Helvetica">Std Dev   </text>
<text xml:space="preserve" x="515.567" y="104.434" fill="black" font-size="11.8754" font-family="Helvetica">  7.812</text>
<text xml:space="preserve" x="448.076" y="120.064" fill="black" font-size="11.8754" font-family="Helvetica">Std Dev y </text>
<text xml:space="preserve" x="517.698" y="120.774" fill="black" font-size="11.8754" font-family="Helvetica">  6.491</text></svg>
