<?xml version="1.0" standalone="no"?>
<svg width="567.429" height="409.712" viewBox="0 0 567.429 409.712" xmlns="http://www.w3.org/2000/svg" shape-rendering="crispEdges">
<title>
prof_reco_mu.svg
</title>
<desc>
Creator: ROOT Version 6.22/02
CreationDate: Tue Oct  6 04:56:30 2020</desc>
<defs>
</defs>
<rect x="0.5" y="0" width="566.929" height="409.212" fill="white"/>
<rect x="57.1929" y="40.9212" width="453.543" height="327.37" fill="white"/>
<rect x="57.1929" y="40.9212" width="453.543" height="327.37" fill="none" stroke="black"/>
<path d="M188.72,150.909v -1.30046" fill="none" stroke="#000099"/>
<path d="M188.72,149.608v -1.30046" fill="none" stroke="#000099"/>
<path d="M184.185,149.608h 4.53543" fill="none" stroke="#000099"/>
<path d="M188.72,149.608h 4.53543" fill="none" stroke="#000099"/>
<g stroke="black" stroke-width="1" fill="none">
<line x1="187.72" y1="149.608" x2="188.72" y2="149.608"/>
</g>
<path d="M197.791,146.05v -1.19" fill="none" stroke="#000099"/>
<path d="M197.791,144.86v -1.19" fill="none" stroke="#000099"/>
<path d="M193.256,144.86h 4.53543" fill="none" stroke="#000099"/>
<path d="M197.791,144.86h 4.53543" fill="none" stroke="#000099"/>
<g stroke="black" stroke-width="1" fill="none">
<line x1="196.791" y1="144.86" x2="197.791" y2="144.86"/>
</g>
<path d="M206.862,143.581v -1.30861" fill="none" stroke="#000099"/>
<path d="M206.862,142.272v -1.30861" fill="none" stroke="#000099"/>
<path d="M202.327,142.272h 4.53543" fill="none" stroke="#000099"/>
<path d="M206.862,142.272h 4.53543" fill="none" stroke="#000099"/>
<g stroke="black" stroke-width="1" fill="none">
<line x1="205.862" y1="142.272" x2="206.862" y2="142.272"/>
</g>
<path d="M215.933,143.394v -1.37367" fill="none" stroke="#000099"/>
<path d="M215.933,142.02v -1.37367" fill="none" stroke="#000099"/>
<path d="M211.398,142.02h 4.53543" fill="none" stroke="#000099"/>
<path d="M215.933,142.02h 4.53543" fill="none" stroke="#000099"/>
<g stroke="black" stroke-width="1" fill="none">
<line x1="214.933" y1="142.02" x2="215.933" y2="142.02"/>
</g>
<path d="M225.004,143.241v -1.45045" fill="none" stroke="#000099"/>
<path d="M225.004,141.79v -1.45045" fill="none" stroke="#000099"/>
<path d="M220.469,141.79h 4.53543" fill="none" stroke="#000099"/>
<path d="M225.004,141.79h 4.53543" fill="none" stroke="#000099"/>
<g stroke="black" stroke-width="1" fill="none">
<line x1="224.004" y1="141.79" x2="225.004" y2="141.79"/>
</g>
<path d="M234.075,143.989v -1.56783" fill="none" stroke="#000099"/>
<path d="M234.075,142.422v -1.56783" fill="none" stroke="#000099"/>
<path d="M229.539,142.422h 4.53543" fill="none" stroke="#000099"/>
<path d="M234.075,142.422h 4.53543" fill="none" stroke="#000099"/>
<g stroke="black" stroke-width="1" fill="none">
<line x1="233.075" y1="142.422" x2="234.075" y2="142.422"/>
</g>
<path d="M243.146,140.155v -1.6892" fill="none" stroke="#000099"/>
<path d="M243.146,138.465v -1.6892" fill="none" stroke="#000099"/>
<path d="M238.61,138.465h 4.53543" fill="none" stroke="#000099"/>
<path d="M243.146,138.465h 4.53543" fill="none" stroke="#000099"/>
<g stroke="black" stroke-width="1" fill="none">
<line x1="242.146" y1="138.465" x2="243.146" y2="138.465"/>
</g>
<path d="M252.217,138.048v -1.81053" fill="none" stroke="#000099"/>
<path d="M252.217,136.238v -1.81053" fill="none" stroke="#000099"/>
<path d="M247.681,136.238h 4.53543" fill="none" stroke="#000099"/>
<path d="M252.217,136.238h 4.53543" fill="none" stroke="#000099"/>
<g stroke="black" stroke-width="1" fill="none">
<line x1="251.217" y1="136.238" x2="252.217" y2="136.238"/>
</g>
<path d="M261.287,135.731v -1.90639" fill="none" stroke="#000099"/>
<path d="M261.287,133.824v -1.90639" fill="none" stroke="#000099"/>
<path d="M256.752,133.824h 4.53543" fill="none" stroke="#000099"/>
<path d="M261.287,133.824h 4.53543" fill="none" stroke="#000099"/>
<g stroke="black" stroke-width="1" fill="none">
<line x1="260.287" y1="133.824" x2="261.287" y2="133.824"/>
</g>
<path d="M270.358,137.666v -2.11163" fill="none" stroke="#000099"/>
<path d="M270.358,135.554v -2.11163" fill="none" stroke="#000099"/>
<path d="M265.823,135.554h 4.53543" fill="none" stroke="#000099"/>
<path d="M270.358,135.554h 4.53543" fill="none" stroke="#000099"/>
<g stroke="black" stroke-width="1" fill="none">
<line x1="269.358" y1="135.554" x2="270.358" y2="135.554"/>
</g>
<path d="M279.429,133.964v -2.41279" fill="none" stroke="#000099"/>
<path d="M279.429,131.551v -2.41279" fill="none" stroke="#000099"/>
<path d="M274.894,131.551h 4.53543" fill="none" stroke="#000099"/>
<path d="M279.429,131.551h 4.53543" fill="none" stroke="#000099"/>
<g stroke="black" stroke-width="1" fill="none">
<line x1="278.429" y1="131.551" x2="279.429" y2="131.551"/>
</g>
<path d="M288.5,128.868v -2.33465" fill="none" stroke="#000099"/>
<path d="M288.5,126.533v -2.33465" fill="none" stroke="#000099"/>
<path d="M283.965,126.533h 4.53543" fill="none" stroke="#000099"/>
<path d="M288.5,126.533h 4.53543" fill="none" stroke="#000099"/>
<g stroke="black" stroke-width="1" fill="none">
<line x1="287.5" y1="126.533" x2="288.5" y2="126.533"/>
</g>
<path d="M297.571,131.407v -2.65262" fill="none" stroke="#000099"/>
<path d="M297.571,128.754v -2.65262" fill="none" stroke="#000099"/>
<path d="M293.035,128.754h 4.53543" fill="none" stroke="#000099"/>
<path d="M297.571,128.754h 4.53543" fill="none" stroke="#000099"/>
<g stroke="black" stroke-width="1" fill="none">
<line x1="296.571" y1="128.754" x2="297.571" y2="128.754"/>
</g>
<path d="M306.642,126.566v -2.7347" fill="none" stroke="#000099"/>
<path d="M306.642,123.831v -2.7347" fill="none" stroke="#000099"/>
<path d="M302.106,123.831h 4.53543" fill="none" stroke="#000099"/>
<path d="M306.642,123.831h 4.53543" fill="none" stroke="#000099"/>
<g stroke="black" stroke-width="1" fill="none">
<line x1="305.642" y1="123.831" x2="306.642" y2="123.831"/>
</g>
<path d="M315.713,120.774v -2.91713" fill="none" stroke="#000099"/>
<path d="M315.713,117.856v -2.91713" fill="none" stroke="#000099"/>
<path d="M311.177,117.856h 4.53543" fill="none" stroke="#000099"/>
<path d="M315.713,117.856h 4.53543" fill="none" stroke="#000099"/>
<g stroke="black" stroke-width="1" fill="none">
<line x1="314.713" y1="117.856" x2="315.713" y2="117.856"/>
</g>
<path d="M324.783,128.528v -3.45787" fill="none" stroke="#000099"/>
<path d="M324.783,125.07v -3.45787" fill="none" stroke="#000099"/>
<path d="M320.248,125.07h 4.53543" fill="none" stroke="#000099"/>
<path d="M324.783,125.07h 4.53543" fill="none" stroke="#000099"/>
<g stroke="black" stroke-width="1" fill="none">
<line x1="323.783" y1="125.07" x2="324.783" y2="125.07"/>
</g>
<path d="M333.854,124.009v -3.44196" fill="none" stroke="#000099"/>
<path d="M333.854,120.567v -3.44196" fill="none" stroke="#000099"/>
<path d="M329.319,120.567h 4.53543" fill="none" stroke="#000099"/>
<path d="M333.854,120.567h 4.53543" fill="none" stroke="#000099"/>
<g stroke="black" stroke-width="1" fill="none">
<line x1="332.854" y1="120.567" x2="333.854" y2="120.567"/>
</g>
<path d="M342.925,124.868v -4.21156" fill="none" stroke="#000099"/>
<path d="M342.925,120.657v -4.21156" fill="none" stroke="#000099"/>
<path d="M338.39,120.657h 4.53543" fill="none" stroke="#000099"/>
<path d="M342.925,120.657h 4.53543" fill="none" stroke="#000099"/>
<g stroke="black" stroke-width="1" fill="none">
<line x1="341.925" y1="120.657" x2="342.925" y2="120.657"/>
</g>
<path d="M351.996,116.053v -4.28672" fill="none" stroke="#000099"/>
<path d="M351.996,111.766v -4.28672" fill="none" stroke="#000099"/>
<path d="M347.461,111.766h 4.53543" fill="none" stroke="#000099"/>
<path d="M351.996,111.766h 4.53543" fill="none" stroke="#000099"/>
<g stroke="black" stroke-width="1" fill="none">
<line x1="350.996" y1="111.766" x2="351.996" y2="111.766"/>
</g>
<path d="M361.067,119.279v -4.36709" fill="none" stroke="#000099"/>
<path d="M361.067,114.912v -4.36709" fill="none" stroke="#000099"/>
<path d="M356.531,114.912h 4.53543" fill="none" stroke="#000099"/>
<path d="M361.067,114.912h 4.53543" fill="none" stroke="#000099"/>
<g stroke="black" stroke-width="1" fill="none">
<line x1="360.067" y1="114.912" x2="361.067" y2="114.912"/>
</g>
<path d="M370.138,118.585v -5.48752" fill="none" stroke="#000099"/>
<path d="M370.138,113.098v -5.48752" fill="none" stroke="#000099"/>
<path d="M365.602,113.098h 4.53543" fill="none" stroke="#000099"/>
<path d="M370.138,113.098h 4.53543" fill="none" stroke="#000099"/>
<g stroke="black" stroke-width="1" fill="none">
<line x1="369.138" y1="113.098" x2="370.138" y2="113.098"/>
</g>
<path d="M379.209,121.637v -5.35109" fill="none" stroke="#000099"/>
<path d="M379.209,116.286v -5.35109" fill="none" stroke="#000099"/>
<path d="M374.673,116.286h 4.53543" fill="none" stroke="#000099"/>
<path d="M379.209,116.286h 4.53543" fill="none" stroke="#000099"/>
<g stroke="black" stroke-width="1" fill="none">
<line x1="378.209" y1="116.286" x2="379.209" y2="116.286"/>
</g>
<path d="M388.28,127.573v -6.67434" fill="none" stroke="#000099"/>
<path d="M388.28,120.898v -6.67434" fill="none" stroke="#000099"/>
<path d="M383.744,120.898h 4.53543" fill="none" stroke="#000099"/>
<path d="M388.28,120.898h 4.53543" fill="none" stroke="#000099"/>
<g stroke="black" stroke-width="1" fill="none">
<line x1="387.28" y1="120.898" x2="388.28" y2="120.898"/>
</g>
<path d="M397.35,113.175v -7.58466" fill="none" stroke="#000099"/>
<path d="M397.35,105.59v -7.58466" fill="none" stroke="#000099"/>
<path d="M392.815,105.59h 4.53543" fill="none" stroke="#000099"/>
<path d="M397.35,105.59h 4.53543" fill="none" stroke="#000099"/>
<g stroke="black" stroke-width="1" fill="none">
<line x1="396.35" y1="105.59" x2="397.35" y2="105.59"/>
</g>
<path d="M406.421,120.337v -6.13962" fill="none" stroke="#000099"/>
<path d="M406.421,114.198v -6.13962" fill="none" stroke="#000099"/>
<path d="M401.886,114.198h 4.53543" fill="none" stroke="#000099"/>
<path d="M406.421,114.198h 4.53543" fill="none" stroke="#000099"/>
<g stroke="black" stroke-width="1" fill="none">
<line x1="405.421" y1="114.198" x2="406.421" y2="114.198"/>
</g>
<path d="M415.492,121.078v -8.63679" fill="none" stroke="#000099"/>
<path d="M415.492,112.441v -8.63679" fill="none" stroke="#000099"/>
<path d="M410.957,112.441h 4.53543" fill="none" stroke="#000099"/>
<path d="M415.492,112.441h 4.53543" fill="none" stroke="#000099"/>
<g stroke="black" stroke-width="1" fill="none">
<line x1="414.492" y1="112.441" x2="415.492" y2="112.441"/>
</g>
<path d="M424.563,109.844v -7.56418" fill="none" stroke="#000099"/>
<path d="M424.563,102.28v -7.56418" fill="none" stroke="#000099"/>
<path d="M420.028,102.28h 4.53543" fill="none" stroke="#000099"/>
<path d="M424.563,102.28h 4.53543" fill="none" stroke="#000099"/>
<g stroke="black" stroke-width="1" fill="none">
<line x1="423.563" y1="102.28" x2="424.563" y2="102.28"/>
</g>
<path d="M433.634,121.909v -8.28239" fill="none" stroke="#000099"/>
<path d="M433.634,113.627v -8.28239" fill="none" stroke="#000099"/>
<path d="M429.098,113.627h 4.53543" fill="none" stroke="#000099"/>
<path d="M433.634,113.627h 4.53543" fill="none" stroke="#000099"/>
<g stroke="black" stroke-width="1" fill="none">
<line x1="432.634" y1="113.627" x2="433.634" y2="113.627"/>
</g>
<path d="M442.705,118.369v -8.77929" fill="none" stroke="#000099"/>
<path d="M442.705,109.59v -8.77929" fill="none" stroke="#000099"/>
<path d="M438.169,109.59h 4.53543" fill="none" stroke="#000099"/>
<path d="M442.705,109.59h 4.53543" fill="none" stroke="#000099"/>
<g stroke="black" stroke-width="1" fill="none">
<line x1="441.705" y1="109.59" x2="442.705" y2="109.59"/>
</g>
<path d="M451.776,105.487v -7.63161" fill="none" stroke="#000099"/>
<path d="M451.776,97.8553v -7.63161" fill="none" stroke="#000099"/>
<path d="M447.24,97.8553h 4.53543" fill="none" stroke="#000099"/>
<path d="M451.776,97.8553h 4.53543" fill="none" stroke="#000099"/>
<g stroke="black" stroke-width="1" fill="none">
<line x1="450.776" y1="97.8553" x2="451.776" y2="97.8553"/>
</g>
<path d="M460.846,117.707v -9.78544" fill="none" stroke="#000099"/>
<path d="M460.846,107.921v -9.78544" fill="none" stroke="#000099"/>
<path d="M456.311,107.921h 4.53543" fill="none" stroke="#000099"/>
<path d="M460.846,107.921h 4.53543" fill="none" stroke="#000099"/>
<g stroke="black" stroke-width="1" fill="none">
<line x1="459.846" y1="107.921" x2="460.846" y2="107.921"/>
</g>
<path d="M469.917,134.591v -13.7395" fill="none" stroke="#000099"/>
<path d="M469.917,120.851v -13.7395" fill="none" stroke="#000099"/>
<path d="M465.382,120.851h 4.53543" fill="none" stroke="#000099"/>
<path d="M469.917,120.851h 4.53543" fill="none" stroke="#000099"/>
<g stroke="black" stroke-width="1" fill="none">
<line x1="468.917" y1="120.851" x2="469.917" y2="120.851"/>
</g>
<path d="M478.988,113.605v -12.6016" fill="none" stroke="#000099"/>
<path d="M478.988,101.003v -12.6016" fill="none" stroke="#000099"/>
<path d="M474.453,101.003h 4.53543" fill="none" stroke="#000099"/>
<path d="M478.988,101.003h 4.53543" fill="none" stroke="#000099"/>
<g stroke="black" stroke-width="1" fill="none">
<line x1="477.988" y1="101.003" x2="478.988" y2="101.003"/>
</g>
<path d="M488.059,132.159v -12.3784" fill="none" stroke="#000099"/>
<path d="M488.059,119.78v -12.3784" fill="none" stroke="#000099"/>
<path d="M483.524,119.78h 4.53543" fill="none" stroke="#000099"/>
<path d="M488.059,119.78h 4.53543" fill="none" stroke="#000099"/>
<g stroke="black" stroke-width="1" fill="none">
<line x1="487.059" y1="119.78" x2="488.059" y2="119.78"/>
</g>
<path d="M497.13,125.676v -15.5619" fill="none" stroke="#000099"/>
<path d="M497.13,110.114v -15.5619" fill="none" stroke="#000099"/>
<path d="M492.594,110.114h 4.53543" fill="none" stroke="#000099"/>
<path d="M497.13,110.114h 4.53543" fill="none" stroke="#000099"/>
<g stroke="black" stroke-width="1" fill="none">
<line x1="496.13" y1="110.114" x2="497.13" y2="110.114"/>
</g>
<path d="M506.201,98.2955v -20.8926" fill="none" stroke="#000099"/>
<path d="M506.201,77.4029v -20.8926" fill="none" stroke="#000099"/>
<path d="M501.665,77.4029h 4.53543" fill="none" stroke="#000099"/>
<path d="M506.201,77.4029h 4.53543" fill="none" stroke="#000099"/>
<g stroke="black" stroke-width="1" fill="none">
<line x1="505.201" y1="77.4029" x2="506.201" y2="77.4029"/>
</g>
<path d="M57.1929,368.291h 453.543" fill="none" stroke="black"/>
<path d="M94.2169,358.47v 9.82109" fill="none" stroke="black"/>
<path d="M103.473,363.38v 4.91054" fill="none" stroke="black"/>
<path d="M112.729,363.38v 4.91054" fill="none" stroke="black"/>
<path d="M121.985,363.38v 4.91054" fill="none" stroke="black"/>
<path d="M131.241,363.38v 4.91054" fill="none" stroke="black"/>
<path d="M140.497,358.47v 9.82109" fill="none" stroke="black"/>
<path d="M149.753,363.38v 4.91054" fill="none" stroke="black"/>
<path d="M159.009,363.38v 4.91054" fill="none" stroke="black"/>
<path d="M168.265,363.38v 4.91054" fill="none" stroke="black"/>
<path d="M177.521,363.38v 4.91054" fill="none" stroke="black"/>
<path d="M186.777,358.47v 9.82109" fill="none" stroke="black"/>
<path d="M196.033,363.38v 4.91054" fill="none" stroke="black"/>
<path d="M205.289,363.38v 4.91054" fill="none" stroke="black"/>
<path d="M214.545,363.38v 4.91054" fill="none" stroke="black"/>
<path d="M223.801,363.38v 4.91054" fill="none" stroke="black"/>
<path d="M233.057,358.47v 9.82109" fill="none" stroke="black"/>
<path d="M242.313,363.38v 4.91054" fill="none" stroke="black"/>
<path d="M251.569,363.38v 4.91054" fill="none" stroke="black"/>
<path d="M260.825,363.38v 4.91054" fill="none" stroke="black"/>
<path d="M270.081,363.38v 4.91054" fill="none" stroke="black"/>
<path d="M279.337,358.47v 9.82109" fill="none" stroke="black"/>
<path d="M288.593,363.38v 4.91054" fill="none" stroke="black"/>
<path d="M297.849,363.38v 4.91054" fill="none" stroke="black"/>
<path d="M307.105,363.38v 4.91054" fill="none" stroke="black"/>
<path d="M316.361,363.38v 4.91054" fill="none" stroke="black"/>
<path d="M325.617,358.47v 9.82109" fill="none" stroke="black"/>
<path d="M334.872,363.38v 4.91054" fill="none" stroke="black"/>
<path d="M344.128,363.38v 4.91054" fill="none" stroke="black"/>
<path d="M353.384,363.38v 4.91054" fill="none" stroke="black"/>
<path d="M362.64,363.38v 4.91054" fill="none" stroke="black"/>
<path d="M371.896,358.47v 9.82109" fill="none" stroke="black"/>
<path d="M381.152,363.38v 4.91054" fill="none" stroke="black"/>
<path d="M390.408,363.38v 4.91054" fill="none" stroke="black"/>
<path d="M399.664,363.38v 4.91054" fill="none" stroke="black"/>
<path d="M408.92,363.38v 4.91054" fill="none" stroke="black"/>
<path d="M418.176,358.47v 9.82109" fill="none" stroke="black"/>
<path d="M427.432,363.38v 4.91054" fill="none" stroke="black"/>
<path d="M436.688,363.38v 4.91054" fill="none" stroke="black"/>
<path d="M445.944,363.38v 4.91054" fill="none" stroke="black"/>
<path d="M455.2,363.38v 4.91054" fill="none" stroke="black"/>
<path d="M464.456,358.47v 9.82109" fill="none" stroke="black"/>
<path d="M473.712,363.38v 4.91054" fill="none" stroke="black"/>
<path d="M482.968,363.38v 4.91054" fill="none" stroke="black"/>
<path d="M492.224,363.38v 4.91054" fill="none" stroke="black"/>
<path d="M501.48,363.38v 4.91054" fill="none" stroke="black"/>
<path d="M510.736,358.47v 9.82109" fill="none" stroke="black"/>
<path d="M94.2169,358.47v 9.82109" fill="none" stroke="black"/>
<path d="M84.9609,363.38v 4.91054" fill="none" stroke="black"/>
<path d="M75.7049,363.38v 4.91054" fill="none" stroke="black"/>
<path d="M66.4489,363.38v 4.91054" fill="none" stroke="black"/>
<path d="M510.736,358.47v 9.82109" fill="none" stroke="black"/>
<text xml:space="preserve" x="90.0151" y="381.505" fill="black" font-size="13.6398" font-family="Helvetica">5</text>
<text xml:space="preserve" x="132.641" y="381.505" fill="black" font-size="13.6398" font-family="Helvetica">10</text>
<text xml:space="preserve" x="178.82" y="381.505" fill="black" font-size="13.6398" font-family="Helvetica">15</text>
<text xml:space="preserve" x="224.998" y="381.505" fill="black" font-size="13.6398" font-family="Helvetica">20</text>
<text xml:space="preserve" x="271.177" y="381.505" fill="black" font-size="13.6398" font-family="Helvetica">25</text>
<text xml:space="preserve" x="317.355" y="381.505" fill="black" font-size="13.6398" font-family="Helvetica">30</text>
<text xml:space="preserve" x="363.534" y="381.505" fill="black" font-size="13.6398" font-family="Helvetica">35</text>
<text xml:space="preserve" x="409.712" y="381.505" fill="black" font-size="13.6398" font-family="Helvetica">40</text>
<text xml:space="preserve" x="456.601" y="381.505" fill="black" font-size="13.6398" font-family="Helvetica">45</text>
<text xml:space="preserve" x="502.779" y="381.505" fill="black" font-size="13.6398" font-family="Helvetica">50</text>
<text xml:space="preserve" x="462.995" y="393.582" fill="black" font-size="13.6398" font-family="Helvetica">mu_avg</text>
<path d="M57.1929,368.291v -327.37" fill="none" stroke="black"/>
<path d="M70.7992,368.291h -13.6063" fill="none" stroke="black"/>
<path d="M63.9961,358.192h -6.80315" fill="none" stroke="black"/>
<path d="M63.9961,348.092h -6.80315" fill="none" stroke="black"/>
<path d="M63.9961,337.993h -6.80315" fill="none" stroke="black"/>
<path d="M63.9961,327.894h -6.80315" fill="none" stroke="black"/>
<path d="M70.7992,317.795h -13.6063" fill="none" stroke="black"/>
<path d="M63.9961,307.696h -6.80315" fill="none" stroke="black"/>
<path d="M63.9961,297.597h -6.80315" fill="none" stroke="black"/>
<path d="M63.9961,287.497h -6.80315" fill="none" stroke="black"/>
<path d="M63.9961,277.398h -6.80315" fill="none" stroke="black"/>
<path d="M70.7992,267.299h -13.6063" fill="none" stroke="black"/>
<path d="M63.9961,257.2h -6.80315" fill="none" stroke="black"/>
<path d="M63.9961,247.101h -6.80315" fill="none" stroke="black"/>
<path d="M63.9961,237.002h -6.80315" fill="none" stroke="black"/>
<path d="M63.9961,226.902h -6.80315" fill="none" stroke="black"/>
<path d="M70.7992,216.803h -13.6063" fill="none" stroke="black"/>
<path d="M63.9961,206.704h -6.80315" fill="none" stroke="black"/>
<path d="M63.9961,196.605h -6.80315" fill="none" stroke="black"/>
<path d="M63.9961,186.506h -6.80315" fill="none" stroke="black"/>
<path d="M63.9961,176.406h -6.80315" fill="none" stroke="black"/>
<path d="M70.7992,166.307h -13.6063" fill="none" stroke="black"/>
<path d="M63.9961,156.208h -6.80315" fill="none" stroke="black"/>
<path d="M63.9961,146.109h -6.80315" fill="none" stroke="black"/>
<path d="M63.9961,136.01h -6.80315" fill="none" stroke="black"/>
<path d="M63.9961,125.911h -6.80315" fill="none" stroke="black"/>
<path d="M70.7992,115.811h -13.6063" fill="none" stroke="black"/>
<path d="M63.9961,105.712h -6.80315" fill="none" stroke="black"/>
<path d="M63.9961,95.6131h -6.80315" fill="none" stroke="black"/>
<path d="M63.9961,85.5139h -6.80315" fill="none" stroke="black"/>
<path d="M63.9961,75.4147h -6.80315" fill="none" stroke="black"/>
<path d="M70.7992,65.3155h -13.6063" fill="none" stroke="black"/>
<path d="M70.7992,65.3155h -13.6063" fill="none" stroke="black"/>
<path d="M63.9961,55.2163h -6.80315" fill="none" stroke="black"/>
<path d="M63.9961,45.1172h -6.80315" fill="none" stroke="black"/>
<text xml:space="preserve" x="46.6784" y="372.98" fill="black" font-size="13.6398" font-family="Helvetica">0</text>
<text xml:space="preserve" x="38.8636" y="322.539" fill="black" font-size="13.6398" font-family="Helvetica">10</text>
<text xml:space="preserve" x="38.8636" y="272.098" fill="black" font-size="13.6398" font-family="Helvetica">20</text>
<text xml:space="preserve" x="38.8636" y="221.657" fill="black" font-size="13.6398" font-family="Helvetica">30</text>
<text xml:space="preserve" x="38.8636" y="171.215" fill="black" font-size="13.6398" font-family="Helvetica">40</text>
<text xml:space="preserve" x="38.8636" y="120.774" fill="black" font-size="13.6398" font-family="Helvetica">50</text>
<text xml:space="preserve" x="38.8636" y="69.6229" fill="black" font-size="13.6398" font-family="Helvetica">60</text>
<g transform="rotate(-90,25.3653,78.1481)">
<text xml:space="preserve" x="25.3653" y="78.1481" fill="black" font-size="13.6398" font-family="Helvetica"> jet pT</text>
</g>
<rect x="442.705" y="26.5988" width="113.386" height="98.2109" fill="white"/>
<path d="M442.705,124.81h 113.386" fill="none" stroke="black"/>
<path d="M556.091,124.81v -98.2109" fill="none" stroke="black"/>
<path d="M556.091,26.5988h -113.386" fill="none" stroke="black"/>
<path d="M442.705,26.5988v 98.2109" fill="none" stroke="black"/>
<text xml:space="preserve" x="444.523" y="36.2323" fill="black" font-size="7.17018" font-family="Helvetica">Profile Reco-jet pT vs. mu average</text>
<path d="M442.705,42.9673h 113.386" fill="none" stroke="black"/>
<text xml:space="preserve" x="448.076" y="55.4141" fill="black" font-size="11.6985" font-family="Helvetica">Entries </text>
<text xml:space="preserve" x="503.49" y="55.4141" fill="black" font-size="11.6985" font-family="Helvetica"> 1736560</text>
<text xml:space="preserve" x="448.076" y="71.7542" fill="black" font-size="11.6985" font-family="Helvetica">Mean  </text>
<text xml:space="preserve" x="515.567" y="72.4646" fill="black" font-size="11.6985" font-family="Helvetica">  21.24</text>
<text xml:space="preserve" x="448.076" y="87.3838" fill="black" font-size="11.6985" font-family="Helvetica">Mean y </text>
<text xml:space="preserve" x="515.567" y="88.0943" fill="black" font-size="11.6985" font-family="Helvetica">  45.69</text>
<text xml:space="preserve" x="448.076" y="104.434" fill="black" font-size="11.6985" font-family="Helvetica">Std Dev   </text>
<text xml:space="preserve" x="515.567" y="104.434" fill="black" font-size="11.6985" font-family="Helvetica">  5.725</text>
<text xml:space="preserve" x="448.076" y="120.064" fill="black" font-size="11.6985" font-family="Helvetica">Std Dev y </text>
<text xml:space="preserve" x="515.567" y="121.485" fill="black" font-size="11.6985" font-family="Helvetica">  12.22</text></svg>
