<?xml version="1.0" standalone="no"?>
<svg width="567.429" height="409.712" viewBox="0 0 567.429 409.712" xmlns="http://www.w3.org/2000/svg" shape-rendering="crispEdges">
<title>
reco_R10_m.svg
</title>
<desc>
Creator: ROOT Version 6.22/02
CreationDate: Wed Oct  7 23:37:23 2020</desc>
<defs>
</defs>
<rect x="0.5" y="0" width="566.929" height="409.212" fill="white"/>
<rect x="57.1929" y="40.9212" width="453.543" height="327.37" fill="white"/>
<rect x="57.1929" y="40.9212" width="453.543" height="327.37" fill="none" stroke="black"/>
<path d="M68.5315,103.65v -10.5796" fill="none" stroke="#000099"/>
<path d="M68.5315,87.3867v -2.81989" fill="none" stroke="#000099"/>
<path d="M57.1929,90.2285h 8.49683" fill="none" stroke="#000099"/>
<path d="M71.3733,90.2285h 8.49683" fill="none" stroke="#000099"/>
<g fill="#ff0000">
<circle cx="68.5315" cy="90.2285" r="2.84175"/>
</g>
<path d="M79.8701,48.7881h 8.49683" fill="none" stroke="#000099"/>
<path d="M94.0504,48.7881h 8.49683" fill="none" stroke="#000099"/>
<g fill="#ff0000">
<circle cx="91.2087" cy="48.7881" r="2.84175"/>
</g>
<path d="M113.886,151.768v -4.85284" fill="none" stroke="#000099"/>
<path d="M113.886,141.231v -1.52771" fill="none" stroke="#000099"/>
<path d="M102.547,144.073h 8.49683" fill="none" stroke="#000099"/>
<path d="M116.728,144.073h 8.49683" fill="none" stroke="#000099"/>
<g fill="#ff0000">
<circle cx="113.886" cy="144.073" r="2.84175"/>
</g>
<path d="M125.224,215.617h 8.49683" fill="none" stroke="#000099"/>
<path d="M139.405,215.617h 8.49683" fill="none" stroke="#000099"/>
<g fill="#ff0000">
<circle cx="136.563" cy="215.617" r="2.84175"/>
</g>
<path d="M147.902,241.011h 8.49683" fill="none" stroke="#000099"/>
<path d="M162.082,241.011h 8.49683" fill="none" stroke="#000099"/>
<g fill="#ff0000">
<circle cx="159.24" cy="241.011" r="2.84175"/>
</g>
<path d="M170.579,260.765h 8.49683" fill="none" stroke="#000099"/>
<path d="M184.759,260.765h 8.49683" fill="none" stroke="#000099"/>
<g fill="#ff0000">
<circle cx="181.917" cy="260.765" r="2.84175"/>
</g>
<path d="M193.256,273.52h 8.49683" fill="none" stroke="#000099"/>
<path d="M207.436,273.52h 8.49683" fill="none" stroke="#000099"/>
<g fill="#ff0000">
<circle cx="204.594" cy="273.52" r="2.84175"/>
</g>
<path d="M215.933,293.717h 8.49683" fill="none" stroke="#000099"/>
<path d="M230.113,293.717h 8.49683" fill="none" stroke="#000099"/>
<g fill="#ff0000">
<circle cx="227.272" cy="293.717" r="2.84175"/>
</g>
<path d="M238.61,306.947h 8.49683" fill="none" stroke="#000099"/>
<path d="M252.791,306.947h 8.49683" fill="none" stroke="#000099"/>
<g fill="#ff0000">
<circle cx="249.949" cy="306.947" r="2.84175"/>
</g>
<path d="M272.626,318.687v -0.000273035" fill="none" stroke="#000099"/>
<path d="M261.287,315.845h 8.49683" fill="none" stroke="#000099"/>
<path d="M275.468,315.845h 8.49683" fill="none" stroke="#000099"/>
<g fill="#ff0000">
<circle cx="272.626" cy="315.845" r="2.84175"/>
</g>
<path d="M295.303,336.092v -0.75953" fill="none" stroke="#000099"/>
<path d="M283.965,332.491h 8.49683" fill="none" stroke="#000099"/>
<path d="M298.145,332.491h 8.49683" fill="none" stroke="#000099"/>
<g fill="#ff0000">
<circle cx="295.303" cy="332.491" r="2.84175"/>
</g>
<path d="M317.98,344.859v -2.34809" fill="none" stroke="#000099"/>
<path d="M317.98,336.828v -0.601847" fill="none" stroke="#000099"/>
<path d="M306.642,339.67h 8.49683" fill="none" stroke="#000099"/>
<path d="M320.822,339.67h 8.49683" fill="none" stroke="#000099"/>
<g fill="#ff0000">
<circle cx="317.98" cy="339.67" r="2.84175"/>
</g>
<path d="M340.657,361.098v -13.7032" fill="none" stroke="#000099"/>
<path d="M340.657,341.712v -3.24007" fill="none" stroke="#000099"/>
<path d="M329.319,344.553h 8.49683" fill="none" stroke="#000099"/>
<path d="M343.499,344.553h 8.49683" fill="none" stroke="#000099"/>
<g fill="#ff0000">
<circle cx="340.657" cy="344.553" r="2.84175"/>
</g>
<path d="M57.1929,368.291h 453.543" fill="none" stroke="black"/>
<path d="M57.1929,358.47v 9.82109" fill="none" stroke="black"/>
<path d="M68.5315,363.38v 4.91054" fill="none" stroke="black"/>
<path d="M79.8701,363.38v 4.91054" fill="none" stroke="black"/>
<path d="M91.2087,363.38v 4.91054" fill="none" stroke="black"/>
<path d="M102.547,358.47v 9.82109" fill="none" stroke="black"/>
<path d="M113.886,363.38v 4.91054" fill="none" stroke="black"/>
<path d="M125.224,363.38v 4.91054" fill="none" stroke="black"/>
<path d="M136.563,363.38v 4.91054" fill="none" stroke="black"/>
<path d="M147.902,358.47v 9.82109" fill="none" stroke="black"/>
<path d="M159.24,363.38v 4.91054" fill="none" stroke="black"/>
<path d="M170.579,363.38v 4.91054" fill="none" stroke="black"/>
<path d="M181.917,363.38v 4.91054" fill="none" stroke="black"/>
<path d="M193.256,358.47v 9.82109" fill="none" stroke="black"/>
<path d="M204.594,363.38v 4.91054" fill="none" stroke="black"/>
<path d="M215.933,363.38v 4.91054" fill="none" stroke="black"/>
<path d="M227.272,363.38v 4.91054" fill="none" stroke="black"/>
<path d="M238.61,358.47v 9.82109" fill="none" stroke="black"/>
<path d="M249.949,363.38v 4.91054" fill="none" stroke="black"/>
<path d="M261.287,363.38v 4.91054" fill="none" stroke="black"/>
<path d="M272.626,363.38v 4.91054" fill="none" stroke="black"/>
<path d="M283.965,358.47v 9.82109" fill="none" stroke="black"/>
<path d="M295.303,363.38v 4.91054" fill="none" stroke="black"/>
<path d="M306.642,363.38v 4.91054" fill="none" stroke="black"/>
<path d="M317.98,363.38v 4.91054" fill="none" stroke="black"/>
<path d="M329.319,358.47v 9.82109" fill="none" stroke="black"/>
<path d="M340.657,363.38v 4.91054" fill="none" stroke="black"/>
<path d="M351.996,363.38v 4.91054" fill="none" stroke="black"/>
<path d="M363.335,363.38v 4.91054" fill="none" stroke="black"/>
<path d="M374.673,358.47v 9.82109" fill="none" stroke="black"/>
<path d="M386.012,363.38v 4.91054" fill="none" stroke="black"/>
<path d="M397.35,363.38v 4.91054" fill="none" stroke="black"/>
<path d="M408.689,363.38v 4.91054" fill="none" stroke="black"/>
<path d="M420.028,358.47v 9.82109" fill="none" stroke="black"/>
<path d="M431.366,363.38v 4.91054" fill="none" stroke="black"/>
<path d="M442.705,363.38v 4.91054" fill="none" stroke="black"/>
<path d="M454.043,363.38v 4.91054" fill="none" stroke="black"/>
<path d="M465.382,358.47v 9.82109" fill="none" stroke="black"/>
<path d="M476.72,363.38v 4.91054" fill="none" stroke="black"/>
<path d="M488.059,363.38v 4.91054" fill="none" stroke="black"/>
<path d="M499.398,363.38v 4.91054" fill="none" stroke="black"/>
<path d="M510.736,358.47v 9.82109" fill="none" stroke="black"/>
<text xml:space="preserve" x="53.0724" y="381.505" fill="black" font-size="13.6398" font-family="Helvetica">0</text>
<text xml:space="preserve" x="90.7256" y="381.505" fill="black" font-size="13.6398" font-family="Helvetica">200</text>
<text xml:space="preserve" x="136.194" y="381.505" fill="black" font-size="13.6398" font-family="Helvetica">400</text>
<text xml:space="preserve" x="181.662" y="381.505" fill="black" font-size="13.6398" font-family="Helvetica">600</text>
<text xml:space="preserve" x="227.13" y="381.505" fill="black" font-size="13.6398" font-family="Helvetica">800</text>
<text xml:space="preserve" x="269.045" y="381.505" fill="black" font-size="13.6398" font-family="Helvetica">1000</text>
<text xml:space="preserve" x="313.803" y="381.505" fill="black" font-size="13.6398" font-family="Helvetica">1200</text>
<text xml:space="preserve" x="359.271" y="381.505" fill="black" font-size="13.6398" font-family="Helvetica">1400</text>
<text xml:space="preserve" x="404.739" y="381.505" fill="black" font-size="13.6398" font-family="Helvetica">1600</text>
<text xml:space="preserve" x="450.207" y="381.505" fill="black" font-size="13.6398" font-family="Helvetica">1800</text>
<text xml:space="preserve" x="495.675" y="381.505" fill="black" font-size="13.6398" font-family="Helvetica">2000</text>
<text xml:space="preserve" x="475.072" y="395.714" fill="black" font-size="13.6398" font-family="Helvetica"> Mass</text>
<path d="M57.1929,368.291v -327.37" fill="none" stroke="black"/>
<path d="M63.9961,367.044h -6.80315" fill="none" stroke="black"/>
<path d="M63.9961,364.728h -6.80315" fill="none" stroke="black"/>
<path d="M63.9961,362.837h -6.80315" fill="none" stroke="black"/>
<path d="M63.9961,361.237h -6.80315" fill="none" stroke="black"/>
<path d="M63.9961,359.851h -6.80315" fill="none" stroke="black"/>
<path d="M63.9961,358.629h -6.80315" fill="none" stroke="black"/>
<path d="M70.7992,357.536h -13.6063" fill="none" stroke="black"/>
<text xml:space="preserve" x="47.3889" y="358.061" fill="black" font-size="9.25989" font-family="Helvetica">4</text>
<text xml:space="preserve" x="42.4158" y="358.061" fill="black" font-size="9.25989" font-family="Times">&#8722;</text>
<text xml:space="preserve" x="27.4966" y="363.744" fill="black" font-size="13.6398" font-family="Helvetica">10</text>
<path d="M63.9961,350.343h -6.80315" fill="none" stroke="black"/>
<path d="M63.9961,346.136h -6.80315" fill="none" stroke="black"/>
<path d="M63.9961,343.151h -6.80315" fill="none" stroke="black"/>
<path d="M63.9961,340.835h -6.80315" fill="none" stroke="black"/>
<path d="M63.9961,338.943h -6.80315" fill="none" stroke="black"/>
<path d="M63.9961,337.344h -6.80315" fill="none" stroke="black"/>
<path d="M63.9961,335.958h -6.80315" fill="none" stroke="black"/>
<path d="M63.9961,334.736h -6.80315" fill="none" stroke="black"/>
<path d="M70.7992,333.643h -13.6063" fill="none" stroke="black"/>
<text xml:space="preserve" x="47.3889" y="333.195" fill="black" font-size="9.25989" font-family="Helvetica">3</text>
<text xml:space="preserve" x="42.4158" y="333.195" fill="black" font-size="9.25989" font-family="Times">&#8722;</text>
<text xml:space="preserve" x="27.4966" y="339.589" fill="black" font-size="13.6398" font-family="Helvetica">10</text>
<path d="M63.9961,326.45h -6.80315" fill="none" stroke="black"/>
<path d="M63.9961,322.243h -6.80315" fill="none" stroke="black"/>
<path d="M63.9961,319.258h -6.80315" fill="none" stroke="black"/>
<path d="M63.9961,316.942h -6.80315" fill="none" stroke="black"/>
<path d="M63.9961,315.05h -6.80315" fill="none" stroke="black"/>
<path d="M63.9961,313.451h -6.80315" fill="none" stroke="black"/>
<path d="M63.9961,312.065h -6.80315" fill="none" stroke="black"/>
<path d="M63.9961,310.843h -6.80315" fill="none" stroke="black"/>
<path d="M70.7992,309.75h -13.6063" fill="none" stroke="black"/>
<text xml:space="preserve" x="47.3889" y="309.751" fill="black" font-size="9.25989" font-family="Helvetica">2</text>
<text xml:space="preserve" x="42.4158" y="309.751" fill="black" font-size="9.25989" font-family="Times">&#8722;</text>
<text xml:space="preserve" x="27.4966" y="315.434" fill="black" font-size="13.6398" font-family="Helvetica">10</text>
<path d="M63.9961,302.557h -6.80315" fill="none" stroke="black"/>
<path d="M63.9961,298.35h -6.80315" fill="none" stroke="black"/>
<path d="M63.9961,295.365h -6.80315" fill="none" stroke="black"/>
<path d="M63.9961,293.049h -6.80315" fill="none" stroke="black"/>
<path d="M63.9961,291.157h -6.80315" fill="none" stroke="black"/>
<path d="M63.9961,289.558h -6.80315" fill="none" stroke="black"/>
<path d="M63.9961,288.172h -6.80315" fill="none" stroke="black"/>
<path d="M63.9961,286.95h -6.80315" fill="none" stroke="black"/>
<path d="M70.7992,285.857h -13.6063" fill="none" stroke="black"/>
<text xml:space="preserve" x="48.8097" y="286.306" fill="black" font-size="9.25989" font-family="Helvetica">1</text>
<text xml:space="preserve" x="43.8367" y="286.306" fill="black" font-size="9.25989" font-family="Times">&#8722;</text>
<text xml:space="preserve" x="28.9175" y="291.99" fill="black" font-size="13.6398" font-family="Helvetica">10</text>
<path d="M63.9961,278.664h -6.80315" fill="none" stroke="black"/>
<path d="M63.9961,274.457h -6.80315" fill="none" stroke="black"/>
<path d="M63.9961,271.471h -6.80315" fill="none" stroke="black"/>
<path d="M63.9961,269.156h -6.80315" fill="none" stroke="black"/>
<path d="M63.9961,267.264h -6.80315" fill="none" stroke="black"/>
<path d="M63.9961,265.665h -6.80315" fill="none" stroke="black"/>
<path d="M63.9961,264.279h -6.80315" fill="none" stroke="black"/>
<path d="M63.9961,263.057h -6.80315" fill="none" stroke="black"/>
<path d="M70.7992,261.963h -13.6063" fill="none" stroke="black"/>
<text xml:space="preserve" x="47.3889" y="267.125" fill="black" font-size="13.6398" font-family="Helvetica">1</text>
<path d="M63.9961,254.771h -6.80315" fill="none" stroke="black"/>
<path d="M63.9961,250.564h -6.80315" fill="none" stroke="black"/>
<path d="M63.9961,247.578h -6.80315" fill="none" stroke="black"/>
<path d="M63.9961,245.263h -6.80315" fill="none" stroke="black"/>
<path d="M63.9961,243.371h -6.80315" fill="none" stroke="black"/>
<path d="M63.9961,241.771h -6.80315" fill="none" stroke="black"/>
<path d="M63.9961,240.386h -6.80315" fill="none" stroke="black"/>
<path d="M63.9961,239.164h -6.80315" fill="none" stroke="black"/>
<path d="M70.7992,238.07h -13.6063" fill="none" stroke="black"/>
<text xml:space="preserve" x="37.4427" y="242.97" fill="black" font-size="13.6398" font-family="Helvetica">10</text>
<path d="M63.9961,230.878h -6.80315" fill="none" stroke="black"/>
<path d="M63.9961,226.67h -6.80315" fill="none" stroke="black"/>
<path d="M63.9961,223.685h -6.80315" fill="none" stroke="black"/>
<path d="M63.9961,221.37h -6.80315" fill="none" stroke="black"/>
<path d="M63.9961,219.478h -6.80315" fill="none" stroke="black"/>
<path d="M63.9961,217.878h -6.80315" fill="none" stroke="black"/>
<path d="M63.9961,216.493h -6.80315" fill="none" stroke="black"/>
<path d="M63.9961,215.27h -6.80315" fill="none" stroke="black"/>
<path d="M70.7992,214.177h -13.6063" fill="none" stroke="black"/>
<text xml:space="preserve" x="47.3889" y="214.552" fill="black" font-size="9.25989" font-family="Helvetica">2</text>
<text xml:space="preserve" x="32.4697" y="220.236" fill="black" font-size="13.6398" font-family="Helvetica">10</text>
<path d="M63.9961,206.985h -6.80315" fill="none" stroke="black"/>
<path d="M63.9961,202.777h -6.80315" fill="none" stroke="black"/>
<path d="M63.9961,199.792h -6.80315" fill="none" stroke="black"/>
<path d="M63.9961,197.477h -6.80315" fill="none" stroke="black"/>
<path d="M63.9961,195.585h -6.80315" fill="none" stroke="black"/>
<path d="M63.9961,193.985h -6.80315" fill="none" stroke="black"/>
<path d="M63.9961,192.6h -6.80315" fill="none" stroke="black"/>
<path d="M63.9961,191.377h -6.80315" fill="none" stroke="black"/>
<path d="M70.7992,190.284h -13.6063" fill="none" stroke="black"/>
<text xml:space="preserve" x="47.3889" y="189.687" fill="black" font-size="9.25989" font-family="Helvetica">3</text>
<text xml:space="preserve" x="32.4697" y="196.081" fill="black" font-size="13.6398" font-family="Helvetica">10</text>
<path d="M63.9961,183.092h -6.80315" fill="none" stroke="black"/>
<path d="M63.9961,178.884h -6.80315" fill="none" stroke="black"/>
<path d="M63.9961,175.899h -6.80315" fill="none" stroke="black"/>
<path d="M63.9961,173.584h -6.80315" fill="none" stroke="black"/>
<path d="M63.9961,171.692h -6.80315" fill="none" stroke="black"/>
<path d="M63.9961,170.092h -6.80315" fill="none" stroke="black"/>
<path d="M63.9961,168.706h -6.80315" fill="none" stroke="black"/>
<path d="M63.9961,167.484h -6.80315" fill="none" stroke="black"/>
<path d="M70.7992,166.391h -13.6063" fill="none" stroke="black"/>
<text xml:space="preserve" x="47.3889" y="166.953" fill="black" font-size="9.25989" font-family="Helvetica">4</text>
<text xml:space="preserve" x="32.4697" y="172.636" fill="black" font-size="13.6398" font-family="Helvetica">10</text>
<path d="M63.9961,159.198h -6.80315" fill="none" stroke="black"/>
<path d="M63.9961,154.991h -6.80315" fill="none" stroke="black"/>
<path d="M63.9961,152.006h -6.80315" fill="none" stroke="black"/>
<path d="M63.9961,149.69h -6.80315" fill="none" stroke="black"/>
<path d="M63.9961,147.799h -6.80315" fill="none" stroke="black"/>
<path d="M63.9961,146.199h -6.80315" fill="none" stroke="black"/>
<path d="M63.9961,144.813h -6.80315" fill="none" stroke="black"/>
<path d="M63.9961,143.591h -6.80315" fill="none" stroke="black"/>
<path d="M70.7992,142.498h -13.6063" fill="none" stroke="black"/>
<text xml:space="preserve" x="47.3889" y="142.088" fill="black" font-size="9.25989" font-family="Helvetica">5</text>
<text xml:space="preserve" x="32.4697" y="148.481" fill="black" font-size="13.6398" font-family="Helvetica">10</text>
<path d="M63.9961,135.305h -6.80315" fill="none" stroke="black"/>
<path d="M63.9961,131.098h -6.80315" fill="none" stroke="black"/>
<path d="M63.9961,128.113h -6.80315" fill="none" stroke="black"/>
<path d="M63.9961,125.797h -6.80315" fill="none" stroke="black"/>
<path d="M63.9961,123.905h -6.80315" fill="none" stroke="black"/>
<path d="M63.9961,122.306h -6.80315" fill="none" stroke="black"/>
<path d="M63.9961,120.92h -6.80315" fill="none" stroke="black"/>
<path d="M63.9961,119.698h -6.80315" fill="none" stroke="black"/>
<path d="M70.7992,118.605h -13.6063" fill="none" stroke="black"/>
<text xml:space="preserve" x="47.3889" y="117.933" fill="black" font-size="9.25989" font-family="Helvetica">6</text>
<text xml:space="preserve" x="32.4697" y="124.327" fill="black" font-size="13.6398" font-family="Helvetica">10</text>
<path d="M63.9961,111.412h -6.80315" fill="none" stroke="black"/>
<path d="M63.9961,107.205h -6.80315" fill="none" stroke="black"/>
<path d="M63.9961,104.22h -6.80315" fill="none" stroke="black"/>
<path d="M63.9961,101.904h -6.80315" fill="none" stroke="black"/>
<path d="M63.9961,100.012h -6.80315" fill="none" stroke="black"/>
<path d="M63.9961,98.4127h -6.80315" fill="none" stroke="black"/>
<path d="M63.9961,97.0271h -6.80315" fill="none" stroke="black"/>
<path d="M63.9961,95.8049h -6.80315" fill="none" stroke="black"/>
<path d="M70.7992,94.7116h -13.6063" fill="none" stroke="black"/>
<text xml:space="preserve" x="47.3889" y="95.1986" fill="black" font-size="9.25989" font-family="Helvetica">7</text>
<text xml:space="preserve" x="32.4697" y="100.882" fill="black" font-size="13.6398" font-family="Helvetica">10</text>
<path d="M63.9961,87.5191h -6.80315" fill="none" stroke="black"/>
<path d="M63.9961,83.3117h -6.80315" fill="none" stroke="black"/>
<path d="M63.9961,80.3265h -6.80315" fill="none" stroke="black"/>
<path d="M63.9961,78.011h -6.80315" fill="none" stroke="black"/>
<path d="M63.9961,76.1191h -6.80315" fill="none" stroke="black"/>
<path d="M63.9961,74.5196h -6.80315" fill="none" stroke="black"/>
<path d="M63.9961,73.134h -6.80315" fill="none" stroke="black"/>
<path d="M63.9961,71.9118h -6.80315" fill="none" stroke="black"/>
<path d="M70.7992,70.8185h -13.6063" fill="none" stroke="black"/>
<text xml:space="preserve" x="47.3889" y="70.3333" fill="black" font-size="9.25989" font-family="Helvetica">8</text>
<text xml:space="preserve" x="32.4697" y="76.7272" fill="black" font-size="13.6398" font-family="Helvetica">10</text>
<path d="M63.9961,63.6259h -6.80315" fill="none" stroke="black"/>
<path d="M63.9961,59.4186h -6.80315" fill="none" stroke="black"/>
<path d="M63.9961,56.4334h -6.80315" fill="none" stroke="black"/>
<path d="M63.9961,54.1179h -6.80315" fill="none" stroke="black"/>
<path d="M63.9961,52.226h -6.80315" fill="none" stroke="black"/>
<path d="M63.9961,50.6265h -6.80315" fill="none" stroke="black"/>
<path d="M63.9961,49.2409h -6.80315" fill="none" stroke="black"/>
<path d="M63.9961,48.0187h -6.80315" fill="none" stroke="black"/>
<path d="M70.7992,46.9254h -13.6063" fill="none" stroke="black"/>
<text xml:space="preserve" x="47.3889" y="46.8889" fill="black" font-size="9.25989" font-family="Helvetica">9</text>
<text xml:space="preserve" x="32.4697" y="53.2828" fill="black" font-size="13.6398" font-family="Helvetica">10</text>
<g transform="rotate(-90,17.5505,85.2525)">
<text xml:space="preserve" x="17.5505" y="85.2525" fill="black" font-size="13.6398" font-family="Helvetica"> Events</text>
</g>
<text xml:space="preserve" x="165.322" y="19.8923" fill="black" font-size="19.7796" font-family="Helvetica">Leading jet reco R10 mass</text>
<rect x="442.705" y="26.5988" width="113.386" height="65.4739" fill="white"/>
<path d="M442.705,92.0727h 113.386" fill="none" stroke="black"/>
<path d="M556.091,92.0727v -65.4739" fill="none" stroke="black"/>
<path d="M556.091,26.5988h -113.386" fill="none" stroke="black"/>
<path d="M442.705,26.5988v 65.4739" fill="none" stroke="black"/>
<text xml:space="preserve" x="448.076" y="36.9428" fill="black" font-size="9.0087" font-family="Helvetica">Leading jet reco R10 mass</text>
<path d="M442.705,42.9673h 113.386" fill="none" stroke="black"/>
<text xml:space="preserve" x="448.076" y="56.1246" fill="black" font-size="12.3106" font-family="Helvetica">Entries </text>
<text xml:space="preserve" x="513.436" y="56.1246" fill="black" font-size="12.3106" font-family="Helvetica"> 84084</text>
<text xml:space="preserve" x="448.076" y="72.4646" fill="black" font-size="12.3106" font-family="Helvetica">Mean  </text>
<text xml:space="preserve" x="513.436" y="72.4646" fill="black" font-size="12.3106" font-family="Helvetica">  125.5</text>
<text xml:space="preserve" x="448.076" y="88.8047" fill="black" font-size="12.3106" font-family="Helvetica">Std Dev   </text>
<text xml:space="preserve" x="519.119" y="88.8047" fill="black" font-size="12.3106" font-family="Helvetica">   15.1</text>
<path d="M57.1929,48.5978h 8.49683" fill="none" stroke="#000099"/>
<path d="M71.3733,48.5978h 8.49683" fill="none" stroke="#000099"/>
<g fill="#0000ff">
<rect x="65.6898" y="45.756" width="5.6835" height="5.6835"/>
</g>
<path d="M79.8701,170.143h 8.49683" fill="none" stroke="#000099"/>
<path d="M94.0504,170.143h 8.49683" fill="none" stroke="#000099"/>
<g fill="#0000ff">
<rect x="88.3669" y="167.301" width="5.6835" height="5.6835"/>
</g>
<path d="M102.547,214.655h 8.49683" fill="none" stroke="#000099"/>
<path d="M116.728,214.655h 8.49683" fill="none" stroke="#000099"/>
<g fill="#0000ff">
<rect x="111.044" y="211.814" width="5.6835" height="5.6835"/>
</g>
<path d="M125.224,241.14h 8.49683" fill="none" stroke="#000099"/>
<path d="M139.405,241.14h 8.49683" fill="none" stroke="#000099"/>
<g fill="#0000ff">
<rect x="133.721" y="238.299" width="5.6835" height="5.6835"/>
</g>
<path d="M147.902,260.97h 8.49683" fill="none" stroke="#000099"/>
<path d="M162.082,260.97h 8.49683" fill="none" stroke="#000099"/>
<g fill="#0000ff">
<rect x="156.398" y="258.128" width="5.6835" height="5.6835"/>
</g>
<path d="M170.579,275.936h 8.49683" fill="none" stroke="#000099"/>
<path d="M184.759,275.936h 8.49683" fill="none" stroke="#000099"/>
<g fill="#0000ff">
<rect x="179.076" y="273.094" width="5.6835" height="5.6835"/>
</g>
<path d="M193.256,291.65h 8.49683" fill="none" stroke="#000099"/>
<path d="M207.436,291.65h 8.49683" fill="none" stroke="#000099"/>
<g fill="#0000ff">
<rect x="201.753" y="288.809" width="5.6835" height="5.6835"/>
</g>
<path d="M215.933,309.645h 8.49683" fill="none" stroke="#000099"/>
<path d="M230.113,309.645h 8.49683" fill="none" stroke="#000099"/>
<g fill="#0000ff">
<rect x="224.43" y="306.803" width="5.6835" height="5.6835"/>
</g>
<path d="M249.949,320.662v -0.174329" fill="none" stroke="#000099"/>
<path d="M238.61,317.646h 8.49683" fill="none" stroke="#000099"/>
<path d="M252.791,317.646h 8.49683" fill="none" stroke="#000099"/>
<g fill="#0000ff">
<rect x="247.107" y="314.804" width="5.6835" height="5.6835"/>
</g>
<path d="M272.626,337.981v -1.49555" fill="none" stroke="#000099"/>
<path d="M272.626,330.802v -0.207785" fill="none" stroke="#000099"/>
<path d="M261.287,333.643h 8.49683" fill="none" stroke="#000099"/>
<path d="M275.468,333.643h 8.49683" fill="none" stroke="#000099"/>
<g fill="#0000ff">
<rect x="269.784" y="330.802" width="5.6835" height="5.6835"/>
</g>
<path d="M295.303,359.207v -3.81538" fill="none" stroke="#000099"/>
<path d="M295.303,349.708v -1.18083" fill="none" stroke="#000099"/>
<path d="M283.965,352.549h 8.49683" fill="none" stroke="#000099"/>
<path d="M298.145,352.549h 8.49683" fill="none" stroke="#000099"/>
<g fill="#0000ff">
<rect x="292.461" y="349.708" width="5.6835" height="5.6835"/>
</g>
<path d="M317.98,368.291v -18.9443" fill="none" stroke="#000099"/>
<path d="M317.98,343.663v -4.10176" fill="none" stroke="#000099"/>
<path d="M306.642,346.505h 8.49683" fill="none" stroke="#000099"/>
<path d="M320.822,346.505h 8.49683" fill="none" stroke="#000099"/>
<g fill="#0000ff">
<rect x="315.139" y="343.663" width="5.6835" height="5.6835"/>
</g>
<text xml:space="preserve" x="165.322" y="19.8923" fill="black" font-size="19.7796" font-family="Helvetica">Leading jet reco R10 mass</text></svg>
