<?xml version="1.0" standalone="no"?>
<svg width="567.429" height="409.712" viewBox="0 0 567.429 409.712" xmlns="http://www.w3.org/2000/svg" shape-rendering="crispEdges">
<title>
truth_R10_m.svg
</title>
<desc>
Creator: ROOT Version 6.22/02
CreationDate: Tue Oct  6 04:57:53 2020</desc>
<defs>
</defs>
<rect x="0.5" y="0" width="566.929" height="409.212" fill="white"/>
<rect x="57.1929" y="40.9212" width="453.543" height="327.37" fill="white"/>
<rect x="57.1929" y="40.9212" width="453.543" height="327.37" fill="none" stroke="black"/>
<path d="M57.1929,343.925h 22.6772v -73.0968h 22.6772v -75.7411h 22.6772v -49.4872h 22.6772v -28.8093h 22.6772v -25.6332h 22.6772v -12.264h 22.6772v -9.49046h 22.6772v -3.57788h 22.6772v -1.09106h 22.6772v -1.34793h 22.6772v 1.23568h 22.6772v
 0.0747918h 22.6772v -0.520231h 22.6772v 1.32807h 22.6772v 1.38022h 22.6772v 0.0132825h 22.6772v 0.833474h 22.6772v 0.108999h 22.6772v 1.59112h 22.6772" fill="none" stroke="#000099"/>
<path d="M57.1929,368.291h 453.543" fill="none" stroke="black"/>
<path d="M57.1929,358.47v 9.82109" fill="none" stroke="black"/>
<path d="M66.2638,363.38v 4.91054" fill="none" stroke="black"/>
<path d="M75.3346,363.38v 4.91054" fill="none" stroke="black"/>
<path d="M84.4055,363.38v 4.91054" fill="none" stroke="black"/>
<path d="M93.4764,363.38v 4.91054" fill="none" stroke="black"/>
<path d="M102.547,358.47v 9.82109" fill="none" stroke="black"/>
<path d="M111.618,363.38v 4.91054" fill="none" stroke="black"/>
<path d="M120.689,363.38v 4.91054" fill="none" stroke="black"/>
<path d="M129.76,363.38v 4.91054" fill="none" stroke="black"/>
<path d="M138.831,363.38v 4.91054" fill="none" stroke="black"/>
<path d="M147.902,358.47v 9.82109" fill="none" stroke="black"/>
<path d="M156.972,363.38v 4.91054" fill="none" stroke="black"/>
<path d="M166.043,363.38v 4.91054" fill="none" stroke="black"/>
<path d="M175.114,363.38v 4.91054" fill="none" stroke="black"/>
<path d="M184.185,363.38v 4.91054" fill="none" stroke="black"/>
<path d="M193.256,358.47v 9.82109" fill="none" stroke="black"/>
<path d="M202.327,363.38v 4.91054" fill="none" stroke="black"/>
<path d="M211.398,363.38v 4.91054" fill="none" stroke="black"/>
<path d="M220.469,363.38v 4.91054" fill="none" stroke="black"/>
<path d="M229.539,363.38v 4.91054" fill="none" stroke="black"/>
<path d="M238.61,358.47v 9.82109" fill="none" stroke="black"/>
<path d="M247.681,363.38v 4.91054" fill="none" stroke="black"/>
<path d="M256.752,363.38v 4.91054" fill="none" stroke="black"/>
<path d="M265.823,363.38v 4.91054" fill="none" stroke="black"/>
<path d="M274.894,363.38v 4.91054" fill="none" stroke="black"/>
<path d="M283.965,358.47v 9.82109" fill="none" stroke="black"/>
<path d="M293.035,363.38v 4.91054" fill="none" stroke="black"/>
<path d="M302.106,363.38v 4.91054" fill="none" stroke="black"/>
<path d="M311.177,363.38v 4.91054" fill="none" stroke="black"/>
<path d="M320.248,363.38v 4.91054" fill="none" stroke="black"/>
<path d="M329.319,358.47v 9.82109" fill="none" stroke="black"/>
<path d="M338.39,363.38v 4.91054" fill="none" stroke="black"/>
<path d="M347.461,363.38v 4.91054" fill="none" stroke="black"/>
<path d="M356.531,363.38v 4.91054" fill="none" stroke="black"/>
<path d="M365.602,363.38v 4.91054" fill="none" stroke="black"/>
<path d="M374.673,358.47v 9.82109" fill="none" stroke="black"/>
<path d="M383.744,363.38v 4.91054" fill="none" stroke="black"/>
<path d="M392.815,363.38v 4.91054" fill="none" stroke="black"/>
<path d="M401.886,363.38v 4.91054" fill="none" stroke="black"/>
<path d="M410.957,363.38v 4.91054" fill="none" stroke="black"/>
<path d="M420.028,358.47v 9.82109" fill="none" stroke="black"/>
<path d="M429.098,363.38v 4.91054" fill="none" stroke="black"/>
<path d="M438.169,363.38v 4.91054" fill="none" stroke="black"/>
<path d="M447.24,363.38v 4.91054" fill="none" stroke="black"/>
<path d="M456.311,363.38v 4.91054" fill="none" stroke="black"/>
<path d="M465.382,358.47v 9.82109" fill="none" stroke="black"/>
<path d="M474.453,363.38v 4.91054" fill="none" stroke="black"/>
<path d="M483.524,363.38v 4.91054" fill="none" stroke="black"/>
<path d="M492.594,363.38v 4.91054" fill="none" stroke="black"/>
<path d="M501.665,363.38v 4.91054" fill="none" stroke="black"/>
<path d="M510.736,358.47v 9.82109" fill="none" stroke="black"/>
<text xml:space="preserve" x="53.0724" y="381.505" fill="black" font-size="13.6398" font-family="Helvetica">0</text>
<text xml:space="preserve" x="94.2777" y="381.505" fill="black" font-size="13.6398" font-family="Helvetica">10</text>
<text xml:space="preserve" x="139.746" y="381.505" fill="black" font-size="13.6398" font-family="Helvetica">20</text>
<text xml:space="preserve" x="185.214" y="381.505" fill="black" font-size="13.6398" font-family="Helvetica">30</text>
<text xml:space="preserve" x="230.682" y="381.505" fill="black" font-size="13.6398" font-family="Helvetica">40</text>
<text xml:space="preserve" x="276.15" y="381.505" fill="black" font-size="13.6398" font-family="Helvetica">50</text>
<text xml:space="preserve" x="320.907" y="381.505" fill="black" font-size="13.6398" font-family="Helvetica">60</text>
<text xml:space="preserve" x="366.375" y="381.505" fill="black" font-size="13.6398" font-family="Helvetica">70</text>
<text xml:space="preserve" x="411.843" y="381.505" fill="black" font-size="13.6398" font-family="Helvetica">80</text>
<text xml:space="preserve" x="457.311" y="381.505" fill="black" font-size="13.6398" font-family="Helvetica">90</text>
<text xml:space="preserve" x="499.227" y="381.505" fill="black" font-size="13.6398" font-family="Helvetica">100</text>
<text xml:space="preserve" x="475.072" y="395.714" fill="black" font-size="13.6398" font-family="Helvetica"> Mass</text>
<path d="M57.1929,368.291v -327.37" fill="none" stroke="black"/>
<path d="M63.9961,368.291h -6.80315" fill="none" stroke="black"/>
<path d="M63.9961,361.882h -6.80315" fill="none" stroke="black"/>
<path d="M63.9961,356.463h -6.80315" fill="none" stroke="black"/>
<path d="M63.9961,351.769h -6.80315" fill="none" stroke="black"/>
<path d="M63.9961,347.629h -6.80315" fill="none" stroke="black"/>
<path d="M70.7992,343.925h -13.6063" fill="none" stroke="black"/>
<text xml:space="preserve" x="47.3889" y="349.535" fill="black" font-size="13.6398" font-family="Helvetica">1</text>
<path d="M63.9961,319.56h -6.80315" fill="none" stroke="black"/>
<path d="M63.9961,305.307h -6.80315" fill="none" stroke="black"/>
<path d="M63.9961,295.194h -6.80315" fill="none" stroke="black"/>
<path d="M63.9961,287.35h -6.80315" fill="none" stroke="black"/>
<path d="M63.9961,280.941h -6.80315" fill="none" stroke="black"/>
<path d="M63.9961,275.522h -6.80315" fill="none" stroke="black"/>
<path d="M63.9961,270.828h -6.80315" fill="none" stroke="black"/>
<path d="M63.9961,266.688h -6.80315" fill="none" stroke="black"/>
<path d="M70.7992,262.984h -13.6063" fill="none" stroke="black"/>
<text xml:space="preserve" x="37.4427" y="267.835" fill="black" font-size="13.6398" font-family="Helvetica">10</text>
<path d="M63.9961,238.619h -6.80315" fill="none" stroke="black"/>
<path d="M63.9961,224.366h -6.80315" fill="none" stroke="black"/>
<path d="M63.9961,214.253h -6.80315" fill="none" stroke="black"/>
<path d="M63.9961,206.409h -6.80315" fill="none" stroke="black"/>
<path d="M63.9961,200h -6.80315" fill="none" stroke="black"/>
<path d="M63.9961,194.581h -6.80315" fill="none" stroke="black"/>
<path d="M63.9961,189.888h -6.80315" fill="none" stroke="black"/>
<path d="M63.9961,185.747h -6.80315" fill="none" stroke="black"/>
<path d="M70.7992,182.044h -13.6063" fill="none" stroke="black"/>
<text xml:space="preserve" x="47.3889" y="182.582" fill="black" font-size="9.25989" font-family="Helvetica">2</text>
<text xml:space="preserve" x="32.4697" y="188.266" fill="black" font-size="13.6398" font-family="Helvetica">10</text>
<path d="M63.9961,157.678h -6.80315" fill="none" stroke="black"/>
<path d="M63.9961,143.425h -6.80315" fill="none" stroke="black"/>
<path d="M63.9961,133.312h -6.80315" fill="none" stroke="black"/>
<path d="M63.9961,125.468h -6.80315" fill="none" stroke="black"/>
<path d="M63.9961,119.059h -6.80315" fill="none" stroke="black"/>
<path d="M63.9961,113.641h -6.80315" fill="none" stroke="black"/>
<path d="M63.9961,108.947h -6.80315" fill="none" stroke="black"/>
<path d="M63.9961,104.806h -6.80315" fill="none" stroke="black"/>
<path d="M70.7992,101.103h -13.6063" fill="none" stroke="black"/>
<text xml:space="preserve" x="47.3889" y="100.882" fill="black" font-size="9.25989" font-family="Helvetica">3</text>
<text xml:space="preserve" x="32.4697" y="107.276" fill="black" font-size="13.6398" font-family="Helvetica">10</text>
<path d="M63.9961,76.7372h -6.80315" fill="none" stroke="black"/>
<path d="M63.9961,62.4842h -6.80315" fill="none" stroke="black"/>
<path d="M63.9961,52.3716h -6.80315" fill="none" stroke="black"/>
<path d="M63.9961,44.5276h -6.80315" fill="none" stroke="black"/>
<g transform="rotate(-90,21.8131,85.2525)">
<text xml:space="preserve" x="21.8131" y="85.2525" fill="black" font-size="13.6398" font-family="Helvetica"> Events</text>
</g>
<text xml:space="preserve" x="165.322" y="19.8923" fill="black" font-size="19.7796" font-family="Helvetica">Leading jet truth R10 mass</text>
<rect x="442.705" y="26.5988" width="113.386" height="65.4739" fill="white"/>
<path d="M442.705,92.0727h 113.386" fill="none" stroke="black"/>
<path d="M556.091,92.0727v -65.4739" fill="none" stroke="black"/>
<path d="M556.091,26.5988h -113.386" fill="none" stroke="black"/>
<path d="M442.705,26.5988v 65.4739" fill="none" stroke="black"/>
<text xml:space="preserve" x="448.076" y="36.9428" fill="black" font-size="8.97533" font-family="Helvetica">Leading jet truth R10 mass</text>
<path d="M442.705,42.9673h 113.386" fill="none" stroke="black"/>
<text xml:space="preserve" x="448.076" y="56.1246" fill="black" font-size="12.3106" font-family="Helvetica">Entries </text>
<text xml:space="preserve" x="513.436" y="56.1246" fill="black" font-size="12.3106" font-family="Helvetica"> 84746</text>
<text xml:space="preserve" x="448.076" y="72.4646" fill="black" font-size="12.3106" font-family="Helvetica">Mean  </text>
<text xml:space="preserve" x="513.436" y="72.4646" fill="black" font-size="12.3106" font-family="Helvetica">  62.93</text>
<text xml:space="preserve" x="448.076" y="88.8047" fill="black" font-size="12.3106" font-family="Helvetica">Std Dev   </text>
<text xml:space="preserve" x="515.567" y="88.8047" fill="black" font-size="12.3106" font-family="Helvetica">  21.21</text>
<path d="M431.366,47.326v -2.4492" fill="none" stroke="#000099"/>
<path d="M420.028,42.035h 8.49683" fill="none" stroke="#000099"/>
<path d="M434.208,42.035h 8.49683" fill="none" stroke="#000099"/>
<g fill="#0000ff">
<rect x="428.524" y="39.1933" width="5.6835" height="5.6835"/>
</g>
<path d="M454.043,70.1796v -3.02468" fill="none" stroke="#000099"/>
<path d="M454.043,61.4715v -2.18424" fill="none" stroke="#000099"/>
<path d="M442.705,64.3132h 8.49683" fill="none" stroke="#000099"/>
<path d="M456.885,64.3132h 8.49683" fill="none" stroke="#000099"/>
<g fill="#0000ff">
<rect x="451.202" y="61.4715" width="5.6835" height="5.6835"/>
</g>
<path d="M476.72,75.4039v -2.71323" fill="none" stroke="#000099"/>
<path d="M476.72,67.0071v -1.95401" fill="none" stroke="#000099"/>
<path d="M465.382,69.8489h 8.49683" fill="none" stroke="#000099"/>
<path d="M479.562,69.8489h 8.49683" fill="none" stroke="#000099"/>
<g fill="#0000ff">
<rect x="473.879" y="67.0071" width="5.6835" height="5.6835"/>
</g>
<path d="M499.398,75.2247v -4.00687" fill="none" stroke="#000099"/>
<path d="M499.398,65.5343v -2.88767" fill="none" stroke="#000099"/>
<path d="M488.059,68.3761h 8.49683" fill="none" stroke="#000099"/>
<path d="M502.239,68.3761h 8.49683" fill="none" stroke="#000099"/>
<g fill="#0000ff">
<rect x="496.556" y="65.5343" width="5.6835" height="5.6835"/>
</g>
<text xml:space="preserve" x="165.322" y="19.8923" fill="black" font-size="19.7796" font-family="Helvetica">Leading jet truth R10 mass</text></svg>
