<?xml version="1.0" standalone="no"?>
<svg width="567.429" height="409.712" viewBox="0 0 567.429 409.712" xmlns="http://www.w3.org/2000/svg" shape-rendering="crispEdges">
<title>
truth_R10_pt.svg
</title>
<desc>
Creator: ROOT Version 6.22/02
CreationDate: Wed Oct  7 23:37:23 2020</desc>
<defs>
</defs>
<rect x="0.5" y="0" width="566.929" height="409.212" fill="white"/>
<rect x="57.1929" y="40.9212" width="453.543" height="327.37" fill="white"/>
<rect x="57.1929" y="40.9212" width="453.543" height="327.37" fill="none" stroke="black"/>
<path d="M57.1929,48.3864h 8.49683" fill="none" stroke="#000099"/>
<path d="M71.3733,48.3864h 8.49683" fill="none" stroke="#000099"/>
<g fill="#ff0000">
<circle cx="68.5315" cy="48.3864" r="2.84175"/>
</g>
<path d="M79.8701,69.6481h 8.49683" fill="none" stroke="#000099"/>
<path d="M94.0504,69.6481h 8.49683" fill="none" stroke="#000099"/>
<g fill="#ff0000">
<circle cx="91.2087" cy="69.6481" r="2.84175"/>
</g>
<path d="M102.547,110.042h 8.49683" fill="none" stroke="#000099"/>
<path d="M116.728,110.042h 8.49683" fill="none" stroke="#000099"/>
<g fill="#ff0000">
<circle cx="113.886" cy="110.042" r="2.84175"/>
</g>
<path d="M125.224,135.713h 8.49683" fill="none" stroke="#000099"/>
<path d="M139.405,135.713h 8.49683" fill="none" stroke="#000099"/>
<g fill="#ff0000">
<circle cx="136.563" cy="135.713" r="2.84175"/>
</g>
<path d="M147.902,154.74h 8.49683" fill="none" stroke="#000099"/>
<path d="M162.082,154.74h 8.49683" fill="none" stroke="#000099"/>
<g fill="#ff0000">
<circle cx="159.24" cy="154.74" r="2.84175"/>
</g>
<path d="M170.579,170.565h 8.49683" fill="none" stroke="#000099"/>
<path d="M184.759,170.565h 8.49683" fill="none" stroke="#000099"/>
<g fill="#ff0000">
<circle cx="181.917" cy="170.565" r="2.84175"/>
</g>
<path d="M193.256,184.364h 8.49683" fill="none" stroke="#000099"/>
<path d="M207.436,184.364h 8.49683" fill="none" stroke="#000099"/>
<g fill="#ff0000">
<circle cx="204.594" cy="184.364" r="2.84175"/>
</g>
<path d="M215.933,196.255h 8.49683" fill="none" stroke="#000099"/>
<path d="M230.113,196.255h 8.49683" fill="none" stroke="#000099"/>
<g fill="#ff0000">
<circle cx="227.272" cy="196.255" r="2.84175"/>
</g>
<path d="M238.61,207.307h 8.49683" fill="none" stroke="#000099"/>
<path d="M252.791,207.307h 8.49683" fill="none" stroke="#000099"/>
<g fill="#ff0000">
<circle cx="249.949" cy="207.307" r="2.84175"/>
</g>
<path d="M261.287,217.967h 8.49683" fill="none" stroke="#000099"/>
<path d="M275.468,217.967h 8.49683" fill="none" stroke="#000099"/>
<g fill="#ff0000">
<circle cx="272.626" cy="217.967" r="2.84175"/>
</g>
<path d="M283.965,227.551h 8.49683" fill="none" stroke="#000099"/>
<path d="M298.145,227.551h 8.49683" fill="none" stroke="#000099"/>
<g fill="#ff0000">
<circle cx="295.303" cy="227.551" r="2.84175"/>
</g>
<path d="M306.642,236.535h 8.49683" fill="none" stroke="#000099"/>
<path d="M320.822,236.535h 8.49683" fill="none" stroke="#000099"/>
<g fill="#ff0000">
<circle cx="317.98" cy="236.535" r="2.84175"/>
</g>
<path d="M329.319,245.482h 8.49683" fill="none" stroke="#000099"/>
<path d="M343.499,245.482h 8.49683" fill="none" stroke="#000099"/>
<g fill="#ff0000">
<circle cx="340.657" cy="245.482" r="2.84175"/>
</g>
<path d="M351.996,261.193h 8.49683" fill="none" stroke="#000099"/>
<path d="M366.176,261.193h 8.49683" fill="none" stroke="#000099"/>
<g fill="#ff0000">
<circle cx="363.335" cy="261.193" r="2.84175"/>
</g>
<path d="M386.012,301.655v -0.627717" fill="none" stroke="#000099"/>
<path d="M374.673,298.186h 8.49683" fill="none" stroke="#000099"/>
<path d="M388.854,298.186h 8.49683" fill="none" stroke="#000099"/>
<g fill="#ff0000">
<circle cx="386.012" cy="298.186" r="2.84175"/>
</g>
<path d="M408.689,321.114v -9.78306" fill="none" stroke="#000099"/>
<path d="M408.689,305.647v -2.97852" fill="none" stroke="#000099"/>
<path d="M397.35,308.489h 8.49683" fill="none" stroke="#000099"/>
<path d="M411.531,308.489h 8.49683" fill="none" stroke="#000099"/>
<g fill="#ff0000">
<circle cx="408.689" cy="308.489" r="2.84175"/>
</g>
<path d="M431.366,342.916v -14.1395" fill="none" stroke="#000099"/>
<path d="M431.366,323.093v -3.66627" fill="none" stroke="#000099"/>
<path d="M420.028,325.935h 8.49683" fill="none" stroke="#000099"/>
<path d="M434.208,325.935h 8.49683" fill="none" stroke="#000099"/>
<g fill="#ff0000">
<circle cx="431.366" cy="325.935" r="2.84175"/>
</g>
<path d="M454.043,360.443v -11.3959" fill="none" stroke="#000099"/>
<path d="M454.043,343.364v -3.26951" fill="none" stroke="#000099"/>
<path d="M442.705,346.206h 8.49683" fill="none" stroke="#000099"/>
<path d="M456.885,346.206h 8.49683" fill="none" stroke="#000099"/>
<g fill="#ff0000">
<circle cx="454.043" cy="346.206" r="2.84175"/>
</g>
<path d="M57.1929,368.291h 453.543" fill="none" stroke="black"/>
<path d="M57.1929,358.47v 9.82109" fill="none" stroke="black"/>
<path d="M72.311,363.38v 4.91054" fill="none" stroke="black"/>
<path d="M87.4291,363.38v 4.91054" fill="none" stroke="black"/>
<path d="M102.547,363.38v 4.91054" fill="none" stroke="black"/>
<path d="M117.665,363.38v 4.91054" fill="none" stroke="black"/>
<path d="M132.783,358.47v 9.82109" fill="none" stroke="black"/>
<path d="M147.902,363.38v 4.91054" fill="none" stroke="black"/>
<path d="M163.02,363.38v 4.91054" fill="none" stroke="black"/>
<path d="M178.138,363.38v 4.91054" fill="none" stroke="black"/>
<path d="M193.256,363.38v 4.91054" fill="none" stroke="black"/>
<path d="M208.374,358.47v 9.82109" fill="none" stroke="black"/>
<path d="M223.492,363.38v 4.91054" fill="none" stroke="black"/>
<path d="M238.61,363.38v 4.91054" fill="none" stroke="black"/>
<path d="M253.728,363.38v 4.91054" fill="none" stroke="black"/>
<path d="M268.846,363.38v 4.91054" fill="none" stroke="black"/>
<path d="M283.965,358.47v 9.82109" fill="none" stroke="black"/>
<path d="M299.083,363.38v 4.91054" fill="none" stroke="black"/>
<path d="M314.201,363.38v 4.91054" fill="none" stroke="black"/>
<path d="M329.319,363.38v 4.91054" fill="none" stroke="black"/>
<path d="M344.437,363.38v 4.91054" fill="none" stroke="black"/>
<path d="M359.555,358.47v 9.82109" fill="none" stroke="black"/>
<path d="M374.673,363.38v 4.91054" fill="none" stroke="black"/>
<path d="M389.791,363.38v 4.91054" fill="none" stroke="black"/>
<path d="M404.909,363.38v 4.91054" fill="none" stroke="black"/>
<path d="M420.028,363.38v 4.91054" fill="none" stroke="black"/>
<path d="M435.146,358.47v 9.82109" fill="none" stroke="black"/>
<path d="M450.264,363.38v 4.91054" fill="none" stroke="black"/>
<path d="M465.382,363.38v 4.91054" fill="none" stroke="black"/>
<path d="M480.5,363.38v 4.91054" fill="none" stroke="black"/>
<path d="M495.618,363.38v 4.91054" fill="none" stroke="black"/>
<path d="M510.736,358.47v 9.82109" fill="none" stroke="black"/>
<text xml:space="preserve" x="53.0724" y="381.505" fill="black" font-size="13.6398" font-family="Helvetica">0</text>
<text xml:space="preserve" x="121.274" y="381.505" fill="black" font-size="13.6398" font-family="Helvetica">500</text>
<text xml:space="preserve" x="193.029" y="381.505" fill="black" font-size="13.6398" font-family="Helvetica">1000</text>
<text xml:space="preserve" x="269.045" y="381.505" fill="black" font-size="13.6398" font-family="Helvetica">1500</text>
<text xml:space="preserve" x="344.352" y="381.505" fill="black" font-size="13.6398" font-family="Helvetica">2000</text>
<text xml:space="preserve" x="419.658" y="381.505" fill="black" font-size="13.6398" font-family="Helvetica">2500</text>
<text xml:space="preserve" x="495.675" y="381.505" fill="black" font-size="13.6398" font-family="Helvetica">3000</text>
<text xml:space="preserve" x="455.89" y="395.003" fill="black" font-size="13.6398" font-family="Helvetica"> pT(GeV)</text>
<path d="M57.1929,368.291v -327.37" fill="none" stroke="black"/>
<path d="M63.9961,364.327h -6.80315" fill="none" stroke="black"/>
<path d="M63.9961,361.07h -6.80315" fill="none" stroke="black"/>
<path d="M63.9961,358.543h -6.80315" fill="none" stroke="black"/>
<path d="M63.9961,356.479h -6.80315" fill="none" stroke="black"/>
<path d="M63.9961,354.734h -6.80315" fill="none" stroke="black"/>
<path d="M63.9961,353.222h -6.80315" fill="none" stroke="black"/>
<path d="M63.9961,351.889h -6.80315" fill="none" stroke="black"/>
<path d="M70.7992,350.696h -13.6063" fill="none" stroke="black"/>
<text xml:space="preserve" x="47.3889" y="350.246" fill="black" font-size="9.25989" font-family="Helvetica">5</text>
<text xml:space="preserve" x="42.4158" y="350.246" fill="black" font-size="9.25989" font-family="Times">&#8722;</text>
<text xml:space="preserve" x="27.4966" y="356.64" fill="black" font-size="13.6398" font-family="Helvetica">10</text>
<path d="M63.9961,342.849h -6.80315" fill="none" stroke="black"/>
<path d="M63.9961,338.258h -6.80315" fill="none" stroke="black"/>
<path d="M63.9961,335.001h -6.80315" fill="none" stroke="black"/>
<path d="M63.9961,332.475h -6.80315" fill="none" stroke="black"/>
<path d="M63.9961,330.411h -6.80315" fill="none" stroke="black"/>
<path d="M63.9961,328.666h -6.80315" fill="none" stroke="black"/>
<path d="M63.9961,327.154h -6.80315" fill="none" stroke="black"/>
<path d="M63.9961,325.821h -6.80315" fill="none" stroke="black"/>
<path d="M70.7992,324.628h -13.6063" fill="none" stroke="black"/>
<text xml:space="preserve" x="47.3889" y="324.67" fill="black" font-size="9.25989" font-family="Helvetica">4</text>
<text xml:space="preserve" x="42.4158" y="324.67" fill="black" font-size="9.25989" font-family="Times">&#8722;</text>
<text xml:space="preserve" x="27.4966" y="330.353" fill="black" font-size="13.6398" font-family="Helvetica">10</text>
<path d="M63.9961,316.78h -6.80315" fill="none" stroke="black"/>
<path d="M63.9961,312.19h -6.80315" fill="none" stroke="black"/>
<path d="M63.9961,308.933h -6.80315" fill="none" stroke="black"/>
<path d="M63.9961,306.407h -6.80315" fill="none" stroke="black"/>
<path d="M63.9961,304.343h -6.80315" fill="none" stroke="black"/>
<path d="M63.9961,302.597h -6.80315" fill="none" stroke="black"/>
<path d="M63.9961,301.086h -6.80315" fill="none" stroke="black"/>
<path d="M63.9961,299.752h -6.80315" fill="none" stroke="black"/>
<path d="M70.7992,298.559h -13.6063" fill="none" stroke="black"/>
<text xml:space="preserve" x="47.3889" y="298.384" fill="black" font-size="9.25989" font-family="Helvetica">3</text>
<text xml:space="preserve" x="42.4158" y="298.384" fill="black" font-size="9.25989" font-family="Times">&#8722;</text>
<text xml:space="preserve" x="27.4966" y="304.778" fill="black" font-size="13.6398" font-family="Helvetica">10</text>
<path d="M63.9961,290.712h -6.80315" fill="none" stroke="black"/>
<path d="M63.9961,286.122h -6.80315" fill="none" stroke="black"/>
<path d="M63.9961,282.865h -6.80315" fill="none" stroke="black"/>
<path d="M63.9961,280.338h -6.80315" fill="none" stroke="black"/>
<path d="M63.9961,278.274h -6.80315" fill="none" stroke="black"/>
<path d="M63.9961,276.529h -6.80315" fill="none" stroke="black"/>
<path d="M63.9961,275.017h -6.80315" fill="none" stroke="black"/>
<path d="M63.9961,273.684h -6.80315" fill="none" stroke="black"/>
<path d="M70.7992,272.491h -13.6063" fill="none" stroke="black"/>
<text xml:space="preserve" x="47.3889" y="272.808" fill="black" font-size="9.25989" font-family="Helvetica">2</text>
<text xml:space="preserve" x="42.4158" y="272.808" fill="black" font-size="9.25989" font-family="Times">&#8722;</text>
<text xml:space="preserve" x="27.4966" y="278.492" fill="black" font-size="13.6398" font-family="Helvetica">10</text>
<path d="M63.9961,264.644h -6.80315" fill="none" stroke="black"/>
<path d="M63.9961,260.053h -6.80315" fill="none" stroke="black"/>
<path d="M63.9961,256.796h -6.80315" fill="none" stroke="black"/>
<path d="M63.9961,254.27h -6.80315" fill="none" stroke="black"/>
<path d="M63.9961,252.206h -6.80315" fill="none" stroke="black"/>
<path d="M63.9961,250.461h -6.80315" fill="none" stroke="black"/>
<path d="M63.9961,248.949h -6.80315" fill="none" stroke="black"/>
<path d="M63.9961,247.615h -6.80315" fill="none" stroke="black"/>
<path d="M70.7992,246.423h -13.6063" fill="none" stroke="black"/>
<text xml:space="preserve" x="48.8097" y="246.522" fill="black" font-size="9.25989" font-family="Helvetica">1</text>
<text xml:space="preserve" x="43.8367" y="246.522" fill="black" font-size="9.25989" font-family="Times">&#8722;</text>
<text xml:space="preserve" x="28.9175" y="252.205" fill="black" font-size="13.6398" font-family="Helvetica">10</text>
<path d="M63.9961,238.575h -6.80315" fill="none" stroke="black"/>
<path d="M63.9961,233.985h -6.80315" fill="none" stroke="black"/>
<path d="M63.9961,230.728h -6.80315" fill="none" stroke="black"/>
<path d="M63.9961,228.202h -6.80315" fill="none" stroke="black"/>
<path d="M63.9961,226.137h -6.80315" fill="none" stroke="black"/>
<path d="M63.9961,224.392h -6.80315" fill="none" stroke="black"/>
<path d="M63.9961,222.881h -6.80315" fill="none" stroke="black"/>
<path d="M63.9961,221.547h -6.80315" fill="none" stroke="black"/>
<path d="M70.7992,220.354h -13.6063" fill="none" stroke="black"/>
<text xml:space="preserve" x="47.3889" y="225.919" fill="black" font-size="13.6398" font-family="Helvetica">1</text>
<path d="M63.9961,212.507h -6.80315" fill="none" stroke="black"/>
<path d="M63.9961,207.916h -6.80315" fill="none" stroke="black"/>
<path d="M63.9961,204.66h -6.80315" fill="none" stroke="black"/>
<path d="M63.9961,202.133h -6.80315" fill="none" stroke="black"/>
<path d="M63.9961,200.069h -6.80315" fill="none" stroke="black"/>
<path d="M63.9961,198.324h -6.80315" fill="none" stroke="black"/>
<path d="M63.9961,196.812h -6.80315" fill="none" stroke="black"/>
<path d="M63.9961,195.479h -6.80315" fill="none" stroke="black"/>
<path d="M70.7992,194.286h -13.6063" fill="none" stroke="black"/>
<text xml:space="preserve" x="37.4427" y="198.923" fill="black" font-size="13.6398" font-family="Helvetica">10</text>
<path d="M63.9961,186.439h -6.80315" fill="none" stroke="black"/>
<path d="M63.9961,181.848h -6.80315" fill="none" stroke="black"/>
<path d="M63.9961,178.591h -6.80315" fill="none" stroke="black"/>
<path d="M63.9961,176.065h -6.80315" fill="none" stroke="black"/>
<path d="M63.9961,174.001h -6.80315" fill="none" stroke="black"/>
<path d="M63.9961,172.256h -6.80315" fill="none" stroke="black"/>
<path d="M63.9961,170.744h -6.80315" fill="none" stroke="black"/>
<path d="M63.9961,169.41h -6.80315" fill="none" stroke="black"/>
<path d="M70.7992,168.218h -13.6063" fill="none" stroke="black"/>
<text xml:space="preserve" x="47.3889" y="168.374" fill="black" font-size="9.25989" font-family="Helvetica">2</text>
<text xml:space="preserve" x="32.4697" y="174.057" fill="black" font-size="13.6398" font-family="Helvetica">10</text>
<path d="M63.9961,160.37h -6.80315" fill="none" stroke="black"/>
<path d="M63.9961,155.78h -6.80315" fill="none" stroke="black"/>
<path d="M63.9961,152.523h -6.80315" fill="none" stroke="black"/>
<path d="M63.9961,149.997h -6.80315" fill="none" stroke="black"/>
<path d="M63.9961,147.932h -6.80315" fill="none" stroke="black"/>
<path d="M63.9961,146.187h -6.80315" fill="none" stroke="black"/>
<path d="M63.9961,144.675h -6.80315" fill="none" stroke="black"/>
<path d="M63.9961,143.342h -6.80315" fill="none" stroke="black"/>
<path d="M70.7992,142.149h -13.6063" fill="none" stroke="black"/>
<text xml:space="preserve" x="47.3889" y="142.088" fill="black" font-size="9.25989" font-family="Helvetica">3</text>
<text xml:space="preserve" x="32.4697" y="148.481" fill="black" font-size="13.6398" font-family="Helvetica">10</text>
<path d="M63.9961,134.302h -6.80315" fill="none" stroke="black"/>
<path d="M63.9961,129.711h -6.80315" fill="none" stroke="black"/>
<path d="M63.9961,126.454h -6.80315" fill="none" stroke="black"/>
<path d="M63.9961,123.928h -6.80315" fill="none" stroke="black"/>
<path d="M63.9961,121.864h -6.80315" fill="none" stroke="black"/>
<path d="M63.9961,120.119h -6.80315" fill="none" stroke="black"/>
<path d="M63.9961,118.607h -6.80315" fill="none" stroke="black"/>
<path d="M63.9961,117.274h -6.80315" fill="none" stroke="black"/>
<path d="M70.7992,116.081h -13.6063" fill="none" stroke="black"/>
<text xml:space="preserve" x="47.3889" y="116.512" fill="black" font-size="9.25989" font-family="Helvetica">4</text>
<text xml:space="preserve" x="32.4697" y="122.195" fill="black" font-size="13.6398" font-family="Helvetica">10</text>
<path d="M63.9961,108.233h -6.80315" fill="none" stroke="black"/>
<path d="M63.9961,103.643h -6.80315" fill="none" stroke="black"/>
<path d="M63.9961,100.386h -6.80315" fill="none" stroke="black"/>
<path d="M63.9961,97.8598h -6.80315" fill="none" stroke="black"/>
<path d="M63.9961,95.7957h -6.80315" fill="none" stroke="black"/>
<path d="M63.9961,94.0505h -6.80315" fill="none" stroke="black"/>
<path d="M63.9961,92.5387h -6.80315" fill="none" stroke="black"/>
<path d="M63.9961,91.2053h -6.80315" fill="none" stroke="black"/>
<path d="M70.7992,90.0125h -13.6063" fill="none" stroke="black"/>
<text xml:space="preserve" x="47.3889" y="89.5151" fill="black" font-size="9.25989" font-family="Helvetica">5</text>
<text xml:space="preserve" x="32.4697" y="95.9091" fill="black" font-size="13.6398" font-family="Helvetica">10</text>
<path d="M63.9961,82.1651h -6.80315" fill="none" stroke="black"/>
<path d="M63.9961,77.5747h -6.80315" fill="none" stroke="black"/>
<path d="M63.9961,74.3177h -6.80315" fill="none" stroke="black"/>
<path d="M63.9961,71.7914h -6.80315" fill="none" stroke="black"/>
<path d="M63.9961,69.7273h -6.80315" fill="none" stroke="black"/>
<path d="M63.9961,67.9821h -6.80315" fill="none" stroke="black"/>
<path d="M63.9961,66.4704h -6.80315" fill="none" stroke="black"/>
<path d="M63.9961,65.1369h -6.80315" fill="none" stroke="black"/>
<path d="M70.7992,63.9441h -13.6063" fill="none" stroke="black"/>
<text xml:space="preserve" x="47.3889" y="63.9394" fill="black" font-size="9.25989" font-family="Helvetica">6</text>
<text xml:space="preserve" x="32.4697" y="70.3333" fill="black" font-size="13.6398" font-family="Helvetica">10</text>
<path d="M63.9961,56.0967h -6.80315" fill="none" stroke="black"/>
<path d="M63.9961,51.5063h -6.80315" fill="none" stroke="black"/>
<path d="M63.9961,48.2494h -6.80315" fill="none" stroke="black"/>
<path d="M63.9961,45.7231h -6.80315" fill="none" stroke="black"/>
<path d="M63.9961,43.659h -6.80315" fill="none" stroke="black"/>
<path d="M63.9961,41.9138h -6.80315" fill="none" stroke="black"/>
<g transform="rotate(-90,17.5505,85.2525)">
<text xml:space="preserve" x="17.5505" y="85.2525" fill="black" font-size="13.6398" font-family="Helvetica"> Events</text>
</g>
<text xml:space="preserve" x="177.399" y="19.8923" fill="black" font-size="19.7796" font-family="Helvetica">Leading jet truth R10 pT</text>
<rect x="442.705" y="26.5988" width="113.386" height="65.4739" fill="white"/>
<path d="M442.705,92.0727h 113.386" fill="none" stroke="black"/>
<path d="M556.091,92.0727v -65.4739" fill="none" stroke="black"/>
<path d="M556.091,26.5988h -113.386" fill="none" stroke="black"/>
<path d="M442.705,26.5988v 65.4739" fill="none" stroke="black"/>
<text xml:space="preserve" x="449.497" y="36.9428" fill="black" font-size="9.85604" font-family="Helvetica">Leading jet truth R10 pT</text>
<path d="M442.705,42.9673h 113.386" fill="none" stroke="black"/>
<text xml:space="preserve" x="448.076" y="56.1246" fill="black" font-size="12.3106" font-family="Helvetica">Entries </text>
<text xml:space="preserve" x="513.436" y="56.1246" fill="black" font-size="12.3106" font-family="Helvetica"> 84746</text>
<text xml:space="preserve" x="448.076" y="72.4646" fill="black" font-size="12.3106" font-family="Helvetica">Mean  </text>
<text xml:space="preserve" x="513.436" y="72.4646" fill="black" font-size="12.3106" font-family="Helvetica">  125.6</text>
<text xml:space="preserve" x="448.076" y="88.8047" fill="black" font-size="12.3106" font-family="Helvetica">Std Dev   </text>
<text xml:space="preserve" x="513.436" y="88.8047" fill="black" font-size="12.3106" font-family="Helvetica">  32.23</text>
<path d="M57.1929,47.6557h 8.49683" fill="none" stroke="#000099"/>
<path d="M71.3733,47.6557h 8.49683" fill="none" stroke="#000099"/>
<g fill="#0000ff">
<rect x="65.6898" y="44.8139" width="5.6835" height="5.6835"/>
</g>
<path d="M79.8701,75.9603h 8.49683" fill="none" stroke="#000099"/>
<path d="M94.0504,75.9603h 8.49683" fill="none" stroke="#000099"/>
<g fill="#0000ff">
<rect x="88.3669" y="73.1186" width="5.6835" height="5.6835"/>
</g>
<path d="M102.547,113.751h 8.49683" fill="none" stroke="#000099"/>
<path d="M116.728,113.751h 8.49683" fill="none" stroke="#000099"/>
<g fill="#0000ff">
<rect x="111.044" y="110.909" width="5.6835" height="5.6835"/>
</g>
<path d="M125.224,138.612h 8.49683" fill="none" stroke="#000099"/>
<path d="M139.405,138.612h 8.49683" fill="none" stroke="#000099"/>
<g fill="#0000ff">
<rect x="133.721" y="135.771" width="5.6835" height="5.6835"/>
</g>
<path d="M147.902,157.362h 8.49683" fill="none" stroke="#000099"/>
<path d="M162.082,157.362h 8.49683" fill="none" stroke="#000099"/>
<g fill="#0000ff">
<rect x="156.398" y="154.52" width="5.6835" height="5.6835"/>
</g>
<path d="M170.579,172.901h 8.49683" fill="none" stroke="#000099"/>
<path d="M184.759,172.901h 8.49683" fill="none" stroke="#000099"/>
<g fill="#0000ff">
<rect x="179.076" y="170.059" width="5.6835" height="5.6835"/>
</g>
<path d="M193.256,186.547h 8.49683" fill="none" stroke="#000099"/>
<path d="M207.436,186.547h 8.49683" fill="none" stroke="#000099"/>
<g fill="#0000ff">
<rect x="201.753" y="183.706" width="5.6835" height="5.6835"/>
</g>
<path d="M215.933,198.379h 8.49683" fill="none" stroke="#000099"/>
<path d="M230.113,198.379h 8.49683" fill="none" stroke="#000099"/>
<g fill="#0000ff">
<rect x="224.43" y="195.537" width="5.6835" height="5.6835"/>
</g>
<path d="M238.61,209.462h 8.49683" fill="none" stroke="#000099"/>
<path d="M252.791,209.462h 8.49683" fill="none" stroke="#000099"/>
<g fill="#0000ff">
<rect x="247.107" y="206.62" width="5.6835" height="5.6835"/>
</g>
<path d="M261.287,219.789h 8.49683" fill="none" stroke="#000099"/>
<path d="M275.468,219.789h 8.49683" fill="none" stroke="#000099"/>
<g fill="#0000ff">
<rect x="269.784" y="216.947" width="5.6835" height="5.6835"/>
</g>
<path d="M283.965,229.63h 8.49683" fill="none" stroke="#000099"/>
<path d="M298.145,229.63h 8.49683" fill="none" stroke="#000099"/>
<g fill="#0000ff">
<rect x="292.461" y="226.788" width="5.6835" height="5.6835"/>
</g>
<path d="M306.642,238.472h 8.49683" fill="none" stroke="#000099"/>
<path d="M320.822,238.472h 8.49683" fill="none" stroke="#000099"/>
<g fill="#0000ff">
<rect x="315.139" y="235.631" width="5.6835" height="5.6835"/>
</g>
<path d="M329.319,247.715h 8.49683" fill="none" stroke="#000099"/>
<path d="M343.499,247.715h 8.49683" fill="none" stroke="#000099"/>
<g fill="#0000ff">
<rect x="337.816" y="244.874" width="5.6835" height="5.6835"/>
</g>
<path d="M351.996,268.914h 8.49683" fill="none" stroke="#000099"/>
<path d="M366.176,268.914h 8.49683" fill="none" stroke="#000099"/>
<g fill="#0000ff">
<rect x="360.493" y="266.072" width="5.6835" height="5.6835"/>
</g>
<path d="M386.012,306.025v -1.83056" fill="none" stroke="#000099"/>
<path d="M386.012,298.511v -0.455929" fill="none" stroke="#000099"/>
<path d="M374.673,301.353h 8.49683" fill="none" stroke="#000099"/>
<path d="M388.854,301.353h 8.49683" fill="none" stroke="#000099"/>
<g fill="#0000ff">
<rect x="383.17" y="298.511" width="5.6835" height="5.6835"/>
</g>
<path d="M408.689,324.717v -12.4915" fill="none" stroke="#000099"/>
<path d="M408.689,306.542v -3.44126" fill="none" stroke="#000099"/>
<path d="M397.35,309.384h 8.49683" fill="none" stroke="#000099"/>
<path d="M411.531,309.384h 8.49683" fill="none" stroke="#000099"/>
<g fill="#0000ff">
<rect x="405.847" y="306.542" width="5.6835" height="5.6835"/>
</g>
<path d="M431.366,349.33v -7.40196" fill="none" stroke="#000099"/>
<path d="M431.366,336.245v -2.4466" fill="none" stroke="#000099"/>
<path d="M420.028,339.087h 8.49683" fill="none" stroke="#000099"/>
<path d="M434.208,339.087h 8.49683" fill="none" stroke="#000099"/>
<g fill="#0000ff">
<rect x="428.524" y="336.245" width="5.6835" height="5.6835"/>
</g>
<path d="M454.043,368.291v -13.0375" fill="none" stroke="#000099"/>
<path d="M454.043,349.57v -5.00561" fill="none" stroke="#000099"/>
<path d="M442.705,352.412h 8.49683" fill="none" stroke="#000099"/>
<path d="M456.885,352.412h 8.49683" fill="none" stroke="#000099"/>
<g fill="#0000ff">
<rect x="451.202" y="349.57" width="5.6835" height="5.6835"/>
</g>
<text xml:space="preserve" x="177.399" y="19.8923" fill="black" font-size="19.7796" font-family="Helvetica">Leading jet truth R10 pT</text></svg>
