<?xml version="1.0" standalone="no"?>
<svg width="567.429" height="409.712" viewBox="0 0 567.429 409.712" xmlns="http://www.w3.org/2000/svg" shape-rendering="crispEdges">
<title>
truth_R10_m.svg
</title>
<desc>
Creator: ROOT Version 6.22/02
CreationDate: Wed Oct  7 23:37:23 2020</desc>
<defs>
</defs>
<rect x="0.5" y="0" width="566.929" height="409.212" fill="white"/>
<rect x="57.1929" y="40.9212" width="453.543" height="327.37" fill="white"/>
<rect x="57.1929" y="40.9212" width="453.543" height="327.37" fill="none" stroke="black"/>
<path d="M57.1929,48.5146h 8.49683" fill="none" stroke="#000099"/>
<path d="M71.3733,48.5146h 8.49683" fill="none" stroke="#000099"/>
<g fill="#ff0000">
<circle cx="68.5315" cy="48.5146" r="2.84175"/>
</g>
<path d="M79.8701,107.451h 8.49683" fill="none" stroke="#000099"/>
<path d="M94.0504,107.451h 8.49683" fill="none" stroke="#000099"/>
<g fill="#ff0000">
<circle cx="91.2087" cy="107.451" r="2.84175"/>
</g>
<path d="M102.547,157.663h 8.49683" fill="none" stroke="#000099"/>
<path d="M116.728,157.663h 8.49683" fill="none" stroke="#000099"/>
<g fill="#ff0000">
<circle cx="113.886" cy="157.663" r="2.84175"/>
</g>
<path d="M125.224,187.76h 8.49683" fill="none" stroke="#000099"/>
<path d="M139.405,187.76h 8.49683" fill="none" stroke="#000099"/>
<g fill="#ff0000">
<circle cx="136.563" cy="187.76" r="2.84175"/>
</g>
<path d="M147.902,213.865h 8.49683" fill="none" stroke="#000099"/>
<path d="M162.082,213.865h 8.49683" fill="none" stroke="#000099"/>
<g fill="#ff0000">
<circle cx="159.24" cy="213.865" r="2.84175"/>
</g>
<path d="M170.579,231.133h 8.49683" fill="none" stroke="#000099"/>
<path d="M184.759,231.133h 8.49683" fill="none" stroke="#000099"/>
<g fill="#ff0000">
<circle cx="181.917" cy="231.133" r="2.84175"/>
</g>
<path d="M193.256,247.605h 8.49683" fill="none" stroke="#000099"/>
<path d="M207.436,247.605h 8.49683" fill="none" stroke="#000099"/>
<g fill="#ff0000">
<circle cx="204.594" cy="247.605" r="2.84175"/>
</g>
<path d="M215.933,261.985h 8.49683" fill="none" stroke="#000099"/>
<path d="M230.113,261.985h 8.49683" fill="none" stroke="#000099"/>
<g fill="#ff0000">
<circle cx="227.272" cy="261.985" r="2.84175"/>
</g>
<path d="M238.61,282.124h 8.49683" fill="none" stroke="#000099"/>
<path d="M252.791,282.124h 8.49683" fill="none" stroke="#000099"/>
<g fill="#ff0000">
<circle cx="249.949" cy="282.124" r="2.84175"/>
</g>
<path d="M272.626,299.869v -0.27027" fill="none" stroke="#000099"/>
<path d="M261.287,296.757h 8.49683" fill="none" stroke="#000099"/>
<path d="M275.468,296.757h 8.49683" fill="none" stroke="#000099"/>
<g fill="#ff0000">
<circle cx="272.626" cy="296.757" r="2.84175"/>
</g>
<path d="M295.303,310.066v -2.09956" fill="none" stroke="#000099"/>
<path d="M295.303,302.283v -0.608839" fill="none" stroke="#000099"/>
<path d="M283.965,305.125h 8.49683" fill="none" stroke="#000099"/>
<path d="M298.145,305.125h 8.49683" fill="none" stroke="#000099"/>
<g fill="#ff0000">
<circle cx="295.303" cy="305.125" r="2.84175"/>
</g>
<path d="M317.98,360.278v -16.11" fill="none" stroke="#000099"/>
<path d="M317.98,338.485v -3.99086" fill="none" stroke="#000099"/>
<path d="M306.642,341.326h 8.49683" fill="none" stroke="#000099"/>
<path d="M320.822,341.326h 8.49683" fill="none" stroke="#000099"/>
<g fill="#ff0000">
<circle cx="317.98" cy="341.326" r="2.84175"/>
</g>
<path d="M340.657,346.457v -24.3352" fill="none" stroke="#000099"/>
<path d="M340.657,316.438v -4.60666" fill="none" stroke="#000099"/>
<path d="M329.319,319.28h 8.49683" fill="none" stroke="#000099"/>
<path d="M343.499,319.28h 8.49683" fill="none" stroke="#000099"/>
<g fill="#ff0000">
<circle cx="340.657" cy="319.28" r="2.84175"/>
</g>
<path d="M57.1929,368.291h 453.543" fill="none" stroke="black"/>
<path d="M57.1929,358.47v 9.82109" fill="none" stroke="black"/>
<path d="M68.5315,363.38v 4.91054" fill="none" stroke="black"/>
<path d="M79.8701,363.38v 4.91054" fill="none" stroke="black"/>
<path d="M91.2087,363.38v 4.91054" fill="none" stroke="black"/>
<path d="M102.547,358.47v 9.82109" fill="none" stroke="black"/>
<path d="M113.886,363.38v 4.91054" fill="none" stroke="black"/>
<path d="M125.224,363.38v 4.91054" fill="none" stroke="black"/>
<path d="M136.563,363.38v 4.91054" fill="none" stroke="black"/>
<path d="M147.902,358.47v 9.82109" fill="none" stroke="black"/>
<path d="M159.24,363.38v 4.91054" fill="none" stroke="black"/>
<path d="M170.579,363.38v 4.91054" fill="none" stroke="black"/>
<path d="M181.917,363.38v 4.91054" fill="none" stroke="black"/>
<path d="M193.256,358.47v 9.82109" fill="none" stroke="black"/>
<path d="M204.594,363.38v 4.91054" fill="none" stroke="black"/>
<path d="M215.933,363.38v 4.91054" fill="none" stroke="black"/>
<path d="M227.272,363.38v 4.91054" fill="none" stroke="black"/>
<path d="M238.61,358.47v 9.82109" fill="none" stroke="black"/>
<path d="M249.949,363.38v 4.91054" fill="none" stroke="black"/>
<path d="M261.287,363.38v 4.91054" fill="none" stroke="black"/>
<path d="M272.626,363.38v 4.91054" fill="none" stroke="black"/>
<path d="M283.965,358.47v 9.82109" fill="none" stroke="black"/>
<path d="M295.303,363.38v 4.91054" fill="none" stroke="black"/>
<path d="M306.642,363.38v 4.91054" fill="none" stroke="black"/>
<path d="M317.98,363.38v 4.91054" fill="none" stroke="black"/>
<path d="M329.319,358.47v 9.82109" fill="none" stroke="black"/>
<path d="M340.657,363.38v 4.91054" fill="none" stroke="black"/>
<path d="M351.996,363.38v 4.91054" fill="none" stroke="black"/>
<path d="M363.335,363.38v 4.91054" fill="none" stroke="black"/>
<path d="M374.673,358.47v 9.82109" fill="none" stroke="black"/>
<path d="M386.012,363.38v 4.91054" fill="none" stroke="black"/>
<path d="M397.35,363.38v 4.91054" fill="none" stroke="black"/>
<path d="M408.689,363.38v 4.91054" fill="none" stroke="black"/>
<path d="M420.028,358.47v 9.82109" fill="none" stroke="black"/>
<path d="M431.366,363.38v 4.91054" fill="none" stroke="black"/>
<path d="M442.705,363.38v 4.91054" fill="none" stroke="black"/>
<path d="M454.043,363.38v 4.91054" fill="none" stroke="black"/>
<path d="M465.382,358.47v 9.82109" fill="none" stroke="black"/>
<path d="M476.72,363.38v 4.91054" fill="none" stroke="black"/>
<path d="M488.059,363.38v 4.91054" fill="none" stroke="black"/>
<path d="M499.398,363.38v 4.91054" fill="none" stroke="black"/>
<path d="M510.736,358.47v 9.82109" fill="none" stroke="black"/>
<text xml:space="preserve" x="53.0724" y="381.505" fill="black" font-size="13.6398" font-family="Helvetica">0</text>
<text xml:space="preserve" x="90.7256" y="381.505" fill="black" font-size="13.6398" font-family="Helvetica">200</text>
<text xml:space="preserve" x="136.194" y="381.505" fill="black" font-size="13.6398" font-family="Helvetica">400</text>
<text xml:space="preserve" x="181.662" y="381.505" fill="black" font-size="13.6398" font-family="Helvetica">600</text>
<text xml:space="preserve" x="227.13" y="381.505" fill="black" font-size="13.6398" font-family="Helvetica">800</text>
<text xml:space="preserve" x="269.045" y="381.505" fill="black" font-size="13.6398" font-family="Helvetica">1000</text>
<text xml:space="preserve" x="313.803" y="381.505" fill="black" font-size="13.6398" font-family="Helvetica">1200</text>
<text xml:space="preserve" x="359.271" y="381.505" fill="black" font-size="13.6398" font-family="Helvetica">1400</text>
<text xml:space="preserve" x="404.739" y="381.505" fill="black" font-size="13.6398" font-family="Helvetica">1600</text>
<text xml:space="preserve" x="450.207" y="381.505" fill="black" font-size="13.6398" font-family="Helvetica">1800</text>
<text xml:space="preserve" x="495.675" y="381.505" fill="black" font-size="13.6398" font-family="Helvetica">2000</text>
<text xml:space="preserve" x="475.072" y="395.714" fill="black" font-size="13.6398" font-family="Helvetica"> Mass</text>
<path d="M57.1929,368.291v -327.37" fill="none" stroke="black"/>
<path d="M63.9961,366.826h -6.80315" fill="none" stroke="black"/>
<path d="M63.9961,364.718h -6.80315" fill="none" stroke="black"/>
<path d="M63.9961,362.936h -6.80315" fill="none" stroke="black"/>
<path d="M63.9961,361.393h -6.80315" fill="none" stroke="black"/>
<path d="M63.9961,360.031h -6.80315" fill="none" stroke="black"/>
<path d="M70.7992,358.813h -13.6063" fill="none" stroke="black"/>
<text xml:space="preserve" x="47.3889" y="358.771" fill="black" font-size="9.25989" font-family="Helvetica">5</text>
<text xml:space="preserve" x="42.4158" y="358.771" fill="black" font-size="9.25989" font-family="Times">&#8722;</text>
<text xml:space="preserve" x="27.4966" y="365.165" fill="black" font-size="13.6398" font-family="Helvetica">10</text>
<path d="M63.9961,350.801h -6.80315" fill="none" stroke="black"/>
<path d="M63.9961,346.113h -6.80315" fill="none" stroke="black"/>
<path d="M63.9961,342.788h -6.80315" fill="none" stroke="black"/>
<path d="M63.9961,340.208h -6.80315" fill="none" stroke="black"/>
<path d="M63.9961,338.101h -6.80315" fill="none" stroke="black"/>
<path d="M63.9961,336.319h -6.80315" fill="none" stroke="black"/>
<path d="M63.9961,334.775h -6.80315" fill="none" stroke="black"/>
<path d="M63.9961,333.414h -6.80315" fill="none" stroke="black"/>
<path d="M70.7992,332.196h -13.6063" fill="none" stroke="black"/>
<text xml:space="preserve" x="47.3889" y="332.485" fill="black" font-size="9.25989" font-family="Helvetica">4</text>
<text xml:space="preserve" x="42.4158" y="332.485" fill="black" font-size="9.25989" font-family="Times">&#8722;</text>
<text xml:space="preserve" x="27.4966" y="338.168" fill="black" font-size="13.6398" font-family="Helvetica">10</text>
<path d="M63.9961,324.183h -6.80315" fill="none" stroke="black"/>
<path d="M63.9961,319.496h -6.80315" fill="none" stroke="black"/>
<path d="M63.9961,316.17h -6.80315" fill="none" stroke="black"/>
<path d="M63.9961,313.591h -6.80315" fill="none" stroke="black"/>
<path d="M63.9961,311.483h -6.80315" fill="none" stroke="black"/>
<path d="M63.9961,309.701h -6.80315" fill="none" stroke="black"/>
<path d="M63.9961,308.158h -6.80315" fill="none" stroke="black"/>
<path d="M63.9961,306.796h -6.80315" fill="none" stroke="black"/>
<path d="M70.7992,305.578h -13.6063" fill="none" stroke="black"/>
<text xml:space="preserve" x="47.3889" y="305.488" fill="black" font-size="9.25989" font-family="Helvetica">3</text>
<text xml:space="preserve" x="42.4158" y="305.488" fill="black" font-size="9.25989" font-family="Times">&#8722;</text>
<text xml:space="preserve" x="27.4966" y="311.882" fill="black" font-size="13.6398" font-family="Helvetica">10</text>
<path d="M63.9961,297.566h -6.80315" fill="none" stroke="black"/>
<path d="M63.9961,292.879h -6.80315" fill="none" stroke="black"/>
<path d="M63.9961,289.553h -6.80315" fill="none" stroke="black"/>
<path d="M63.9961,286.974h -6.80315" fill="none" stroke="black"/>
<path d="M63.9961,284.866h -6.80315" fill="none" stroke="black"/>
<path d="M63.9961,283.084h -6.80315" fill="none" stroke="black"/>
<path d="M63.9961,281.54h -6.80315" fill="none" stroke="black"/>
<path d="M63.9961,280.179h -6.80315" fill="none" stroke="black"/>
<path d="M70.7992,278.961h -13.6063" fill="none" stroke="black"/>
<text xml:space="preserve" x="47.3889" y="279.202" fill="black" font-size="9.25989" font-family="Helvetica">2</text>
<text xml:space="preserve" x="42.4158" y="279.202" fill="black" font-size="9.25989" font-family="Times">&#8722;</text>
<text xml:space="preserve" x="27.4966" y="284.885" fill="black" font-size="13.6398" font-family="Helvetica">10</text>
<path d="M63.9961,270.948h -6.80315" fill="none" stroke="black"/>
<path d="M63.9961,266.261h -6.80315" fill="none" stroke="black"/>
<path d="M63.9961,262.936h -6.80315" fill="none" stroke="black"/>
<path d="M63.9961,260.356h -6.80315" fill="none" stroke="black"/>
<path d="M63.9961,258.249h -6.80315" fill="none" stroke="black"/>
<path d="M63.9961,256.467h -6.80315" fill="none" stroke="black"/>
<path d="M63.9961,254.923h -6.80315" fill="none" stroke="black"/>
<path d="M63.9961,253.561h -6.80315" fill="none" stroke="black"/>
<path d="M70.7992,252.344h -13.6063" fill="none" stroke="black"/>
<text xml:space="preserve" x="48.8097" y="252.916" fill="black" font-size="9.25989" font-family="Helvetica">1</text>
<text xml:space="preserve" x="43.8367" y="252.916" fill="black" font-size="9.25989" font-family="Times">&#8722;</text>
<text xml:space="preserve" x="28.9175" y="258.599" fill="black" font-size="13.6398" font-family="Helvetica">10</text>
<path d="M63.9961,244.331h -6.80315" fill="none" stroke="black"/>
<path d="M63.9961,239.644h -6.80315" fill="none" stroke="black"/>
<path d="M63.9961,236.318h -6.80315" fill="none" stroke="black"/>
<path d="M63.9961,233.739h -6.80315" fill="none" stroke="black"/>
<path d="M63.9961,231.631h -6.80315" fill="none" stroke="black"/>
<path d="M63.9961,229.849h -6.80315" fill="none" stroke="black"/>
<path d="M63.9961,228.306h -6.80315" fill="none" stroke="black"/>
<path d="M63.9961,226.944h -6.80315" fill="none" stroke="black"/>
<path d="M70.7992,225.726h -13.6063" fill="none" stroke="black"/>
<text xml:space="preserve" x="47.3889" y="230.892" fill="black" font-size="13.6398" font-family="Helvetica">1</text>
<path d="M63.9961,217.713h -6.80315" fill="none" stroke="black"/>
<path d="M63.9961,213.026h -6.80315" fill="none" stroke="black"/>
<path d="M63.9961,209.701h -6.80315" fill="none" stroke="black"/>
<path d="M63.9961,207.121h -6.80315" fill="none" stroke="black"/>
<path d="M63.9961,205.014h -6.80315" fill="none" stroke="black"/>
<path d="M63.9961,203.232h -6.80315" fill="none" stroke="black"/>
<path d="M63.9961,201.688h -6.80315" fill="none" stroke="black"/>
<path d="M63.9961,200.327h -6.80315" fill="none" stroke="black"/>
<path d="M70.7992,199.109h -13.6063" fill="none" stroke="black"/>
<text xml:space="preserve" x="37.4427" y="203.896" fill="black" font-size="13.6398" font-family="Helvetica">10</text>
<path d="M63.9961,191.096h -6.80315" fill="none" stroke="black"/>
<path d="M63.9961,186.409h -6.80315" fill="none" stroke="black"/>
<path d="M63.9961,183.083h -6.80315" fill="none" stroke="black"/>
<path d="M63.9961,180.504h -6.80315" fill="none" stroke="black"/>
<path d="M63.9961,178.396h -6.80315" fill="none" stroke="black"/>
<path d="M63.9961,176.614h -6.80315" fill="none" stroke="black"/>
<path d="M63.9961,175.071h -6.80315" fill="none" stroke="black"/>
<path d="M63.9961,173.709h -6.80315" fill="none" stroke="black"/>
<path d="M70.7992,172.491h -13.6063" fill="none" stroke="black"/>
<text xml:space="preserve" x="47.3889" y="172.636" fill="black" font-size="9.25989" font-family="Helvetica">2</text>
<text xml:space="preserve" x="32.4697" y="178.32" fill="black" font-size="13.6398" font-family="Helvetica">10</text>
<path d="M63.9961,164.479h -6.80315" fill="none" stroke="black"/>
<path d="M63.9961,159.792h -6.80315" fill="none" stroke="black"/>
<path d="M63.9961,156.466h -6.80315" fill="none" stroke="black"/>
<path d="M63.9961,153.886h -6.80315" fill="none" stroke="black"/>
<path d="M63.9961,151.779h -6.80315" fill="none" stroke="black"/>
<path d="M63.9961,149.997h -6.80315" fill="none" stroke="black"/>
<path d="M63.9961,148.453h -6.80315" fill="none" stroke="black"/>
<path d="M63.9961,147.092h -6.80315" fill="none" stroke="black"/>
<path d="M70.7992,145.874h -13.6063" fill="none" stroke="black"/>
<text xml:space="preserve" x="47.3889" y="145.64" fill="black" font-size="9.25989" font-family="Helvetica">3</text>
<text xml:space="preserve" x="32.4697" y="152.034" fill="black" font-size="13.6398" font-family="Helvetica">10</text>
<path d="M63.9961,137.861h -6.80315" fill="none" stroke="black"/>
<path d="M63.9961,133.174h -6.80315" fill="none" stroke="black"/>
<path d="M63.9961,129.849h -6.80315" fill="none" stroke="black"/>
<path d="M63.9961,127.269h -6.80315" fill="none" stroke="black"/>
<path d="M63.9961,125.161h -6.80315" fill="none" stroke="black"/>
<path d="M63.9961,123.38h -6.80315" fill="none" stroke="black"/>
<path d="M63.9961,121.836h -6.80315" fill="none" stroke="black"/>
<path d="M63.9961,120.474h -6.80315" fill="none" stroke="black"/>
<path d="M70.7992,119.256h -13.6063" fill="none" stroke="black"/>
<text xml:space="preserve" x="47.3889" y="119.354" fill="black" font-size="9.25989" font-family="Helvetica">4</text>
<text xml:space="preserve" x="32.4697" y="125.037" fill="black" font-size="13.6398" font-family="Helvetica">10</text>
<path d="M63.9961,111.244h -6.80315" fill="none" stroke="black"/>
<path d="M63.9961,106.557h -6.80315" fill="none" stroke="black"/>
<path d="M63.9961,103.231h -6.80315" fill="none" stroke="black"/>
<path d="M63.9961,100.652h -6.80315" fill="none" stroke="black"/>
<path d="M63.9961,98.5441h -6.80315" fill="none" stroke="black"/>
<path d="M63.9961,96.7621h -6.80315" fill="none" stroke="black"/>
<path d="M63.9961,95.2185h -6.80315" fill="none" stroke="black"/>
<path d="M63.9961,93.857h -6.80315" fill="none" stroke="black"/>
<path d="M70.7992,92.639h -13.6063" fill="none" stroke="black"/>
<text xml:space="preserve" x="47.3889" y="92.3569" fill="black" font-size="9.25989" font-family="Helvetica">5</text>
<text xml:space="preserve" x="32.4697" y="98.7508" fill="black" font-size="13.6398" font-family="Helvetica">10</text>
<path d="M63.9961,84.6264h -6.80315" fill="none" stroke="black"/>
<path d="M63.9961,79.9393h -6.80315" fill="none" stroke="black"/>
<path d="M63.9961,76.6137h -6.80315" fill="none" stroke="black"/>
<path d="M63.9961,74.0343h -6.80315" fill="none" stroke="black"/>
<path d="M63.9961,71.9267h -6.80315" fill="none" stroke="black"/>
<path d="M63.9961,70.1447h -6.80315" fill="none" stroke="black"/>
<path d="M63.9961,68.6011h -6.80315" fill="none" stroke="black"/>
<path d="M63.9961,67.2396h -6.80315" fill="none" stroke="black"/>
<path d="M70.7992,66.0216h -13.6063" fill="none" stroke="black"/>
<text xml:space="preserve" x="47.3889" y="65.3603" fill="black" font-size="9.25989" font-family="Helvetica">6</text>
<text xml:space="preserve" x="32.4697" y="71.7542" fill="black" font-size="13.6398" font-family="Helvetica">10</text>
<path d="M63.9961,58.009h -6.80315" fill="none" stroke="black"/>
<path d="M63.9961,53.3219h -6.80315" fill="none" stroke="black"/>
<path d="M63.9961,49.9963h -6.80315" fill="none" stroke="black"/>
<path d="M63.9961,47.4168h -6.80315" fill="none" stroke="black"/>
<path d="M63.9961,45.3092h -6.80315" fill="none" stroke="black"/>
<path d="M63.9961,43.5273h -6.80315" fill="none" stroke="black"/>
<path d="M63.9961,41.9837h -6.80315" fill="none" stroke="black"/>
<g transform="rotate(-90,17.5505,85.2525)">
<text xml:space="preserve" x="17.5505" y="85.2525" fill="black" font-size="13.6398" font-family="Helvetica"> Events</text>
</g>
<text xml:space="preserve" x="165.322" y="19.8923" fill="black" font-size="19.7796" font-family="Helvetica">Leading jet truth R10 mass</text>
<rect x="442.705" y="26.5988" width="113.386" height="65.4739" fill="white"/>
<path d="M442.705,92.0727h 113.386" fill="none" stroke="black"/>
<path d="M556.091,92.0727v -65.4739" fill="none" stroke="black"/>
<path d="M556.091,26.5988h -113.386" fill="none" stroke="black"/>
<path d="M442.705,26.5988v 65.4739" fill="none" stroke="black"/>
<text xml:space="preserve" x="448.076" y="36.9428" fill="black" font-size="8.97533" font-family="Helvetica">Leading jet truth R10 mass</text>
<path d="M442.705,42.9673h 113.386" fill="none" stroke="black"/>
<text xml:space="preserve" x="448.076" y="56.1246" fill="black" font-size="12.3106" font-family="Helvetica">Entries </text>
<text xml:space="preserve" x="513.436" y="56.1246" fill="black" font-size="12.3106" font-family="Helvetica"> 84746</text>
<text xml:space="preserve" x="448.076" y="72.4646" fill="black" font-size="12.3106" font-family="Helvetica">Mean  </text>
<text xml:space="preserve" x="513.436" y="72.4646" fill="black" font-size="12.3106" font-family="Helvetica">  44.14</text>
<text xml:space="preserve" x="448.076" y="88.8047" fill="black" font-size="12.3106" font-family="Helvetica">Std Dev   </text>
<text xml:space="preserve" x="513.436" y="88.8047" fill="black" font-size="12.3106" font-family="Helvetica">  15.46</text>
<path d="M57.1929,48.4582h 8.49683" fill="none" stroke="#000099"/>
<path d="M71.3733,48.4582h 8.49683" fill="none" stroke="#000099"/>
<g fill="#0000ff">
<rect x="65.6898" y="45.6164" width="5.6835" height="5.6835"/>
</g>
<path d="M79.8701,125.9h 8.49683" fill="none" stroke="#000099"/>
<path d="M94.0504,125.9h 8.49683" fill="none" stroke="#000099"/>
<g fill="#0000ff">
<rect x="88.3669" y="123.058" width="5.6835" height="5.6835"/>
</g>
<path d="M102.547,169.224h 8.49683" fill="none" stroke="#000099"/>
<path d="M116.728,169.224h 8.49683" fill="none" stroke="#000099"/>
<g fill="#0000ff">
<rect x="111.044" y="166.382" width="5.6835" height="5.6835"/>
</g>
<path d="M125.224,198.653h 8.49683" fill="none" stroke="#000099"/>
<path d="M139.405,198.653h 8.49683" fill="none" stroke="#000099"/>
<g fill="#0000ff">
<rect x="133.721" y="195.811" width="5.6835" height="5.6835"/>
</g>
<path d="M147.902,220.822h 8.49683" fill="none" stroke="#000099"/>
<path d="M162.082,220.822h 8.49683" fill="none" stroke="#000099"/>
<g fill="#0000ff">
<rect x="156.398" y="217.98" width="5.6835" height="5.6835"/>
</g>
<path d="M170.579,238.043h 8.49683" fill="none" stroke="#000099"/>
<path d="M184.759,238.043h 8.49683" fill="none" stroke="#000099"/>
<g fill="#0000ff">
<rect x="179.076" y="235.202" width="5.6835" height="5.6835"/>
</g>
<path d="M193.256,255.531h 8.49683" fill="none" stroke="#000099"/>
<path d="M207.436,255.531h 8.49683" fill="none" stroke="#000099"/>
<g fill="#0000ff">
<rect x="201.753" y="252.689" width="5.6835" height="5.6835"/>
</g>
<path d="M227.272,273.363v -0.599837" fill="none" stroke="#000099"/>
<path d="M215.933,269.921h 8.49683" fill="none" stroke="#000099"/>
<path d="M230.113,269.921h 8.49683" fill="none" stroke="#000099"/>
<g fill="#0000ff">
<rect x="224.43" y="267.08" width="5.6835" height="5.6835"/>
</g>
<path d="M249.949,288.91v -0.13314" fill="none" stroke="#000099"/>
<path d="M238.61,285.936h 8.49683" fill="none" stroke="#000099"/>
<path d="M252.791,285.936h 8.49683" fill="none" stroke="#000099"/>
<g fill="#0000ff">
<rect x="247.107" y="283.094" width="5.6835" height="5.6835"/>
</g>
<path d="M272.626,307.24v -1.54901" fill="none" stroke="#000099"/>
<path d="M272.626,300.007v -0.332732" fill="none" stroke="#000099"/>
<path d="M261.287,302.849h 8.49683" fill="none" stroke="#000099"/>
<path d="M275.468,302.849h 8.49683" fill="none" stroke="#000099"/>
<g fill="#0000ff">
<rect x="269.784" y="300.007" width="5.6835" height="5.6835"/>
</g>
<path d="M295.303,327.873v -2.93909" fill="none" stroke="#000099"/>
<path d="M295.303,319.251v -0.994161" fill="none" stroke="#000099"/>
<path d="M283.965,322.092h 8.49683" fill="none" stroke="#000099"/>
<path d="M298.145,322.092h 8.49683" fill="none" stroke="#000099"/>
<g fill="#0000ff">
<rect x="292.461" y="319.251" width="5.6835" height="5.6835"/>
</g>
<path d="M317.98,365.795v -16.9299" fill="none" stroke="#000099"/>
<path d="M317.98,343.182v -4.07561" fill="none" stroke="#000099"/>
<path d="M306.642,346.024h 8.49683" fill="none" stroke="#000099"/>
<path d="M320.822,346.024h 8.49683" fill="none" stroke="#000099"/>
<g fill="#0000ff">
<rect x="315.139" y="343.182" width="5.6835" height="5.6835"/>
</g>
<path d="M340.657,368.291v -44.9654" fill="none" stroke="#000099"/>
<path d="M340.657,317.642v -5.17089" fill="none" stroke="#000099"/>
<path d="M329.319,320.484h 8.49683" fill="none" stroke="#000099"/>
<path d="M343.499,320.484h 8.49683" fill="none" stroke="#000099"/>
<g fill="#0000ff">
<rect x="337.816" y="317.642" width="5.6835" height="5.6835"/>
</g>
<text xml:space="preserve" x="165.322" y="19.8923" fill="black" font-size="19.7796" font-family="Helvetica">Leading jet truth R10 mass</text></svg>
